<?xml version="1.0" standalone="yes"?>
<!DOCTYPE svg PUBLIC "-//W3C//DTD SVG 1.1//EN"
 "http://www.w3.org/Graphics/SVG/1.1/DTD/svg11.dtd">
<svg xmlns="http://www.w3.org/2000/svg" version="1.1"
  width="100%" height="100%" viewBox="0 0 1024 768"
  style="fill: none; font-family: Helvetica;
 font: Helvetica;
">

<!-- Creator: NGspice -->

<rect x="0" y="0" width="1024" height="768" fill="black" stroke="none"/>
<text stroke="none" fill="white" font-size="16" x="358" y="752">
time
</text>
<text stroke="none" fill="white" font-size="16" x="10" y="16">
tran1: * tps54260 dc-dc converter simulation
</text>
<path stroke="white" d="M50 720l0 -672"/>
<text stroke="none" fill="white" font-size="16" x="35" y="728">
0.0
</text>
<path stroke="white" stroke-dasharray="1,2" d="M127 720l0 -672"/>
<text stroke="none" fill="white" font-size="16" x="112" y="728">
0.5
</text>
<path stroke="white" stroke-dasharray="1,2" d="M204 720l0 -672"/>
<text stroke="none" fill="white" font-size="16" x="189" y="728">
1.0
</text>
<path stroke="white" stroke-dasharray="1,2" d="M281 720l0 -672"/>
<text stroke="none" fill="white" font-size="16" x="266" y="728">
1.5
</text>
<path stroke="white" stroke-dasharray="1,2" d="M358 720l0 -672"/>
<text stroke="none" fill="white" font-size="16" x="343" y="728">
2.0
</text>
<path stroke="white" stroke-dasharray="1,2" d="M435 720l0 -672"/>
<text stroke="none" fill="white" font-size="16" x="420" y="728">
2.5
</text>
<path stroke="white" stroke-dasharray="1,2" d="M512 720l0 -672"/>
<text stroke="none" fill="white" font-size="16" x="497" y="728">
3.0
</text>
<path stroke="white" stroke-dasharray="1,2" d="M589 720l0 -672"/>
<text stroke="none" fill="white" font-size="16" x="574" y="728">
3.5
</text>
<path stroke="white" stroke-dasharray="1,2" d="M666 720l0 -672"/>
<text stroke="none" fill="white" font-size="16" x="651" y="728">
4.0
</text>
<path stroke="white" stroke-dasharray="1,2" d="M743 720l0 -672"/>
<text stroke="none" fill="white" font-size="16" x="728" y="728">
4.5
</text>
<path stroke="white" stroke-dasharray="1,2" d="M820 720l0 -672"/>
<text stroke="none" fill="white" font-size="16" x="805" y="728">
5.0
</text>
<path stroke="white" stroke-dasharray="1,2" d="M897 720l0 -672"/>
<text stroke="none" fill="white" font-size="16" x="882" y="728">
5.5
</text>
<path stroke="white" stroke-dasharray="1,2" d="M974 720l0 -672"/>
<text stroke="none" fill="white" font-size="16" x="959" y="728">
6.0
</text>
<text stroke="none" fill="white" font-size="16" x="614" y="752">
ms
</text>
<path stroke="white" stroke-dasharray="1,2" d="M50 720l924 0"/>
<text stroke="none" fill="white" font-size="16" x="8" y="728">
-0.5
</text>
<path stroke="white" d="M50 624l924 0"/>
<text stroke="none" fill="white" font-size="16" x="18" y="632">
0.0
</text>
<path stroke="white" stroke-dasharray="1,2" d="M50 528l924 0"/>
<text stroke="none" fill="white" font-size="16" x="18" y="536">
0.5
</text>
<path stroke="white" stroke-dasharray="1,2" d="M50 432l924 0"/>
<text stroke="none" fill="white" font-size="16" x="18" y="440">
1.0
</text>
<path stroke="white" stroke-dasharray="1,2" d="M50 336l924 0"/>
<text stroke="none" fill="white" font-size="16" x="18" y="344">
1.5
</text>
<path stroke="white" stroke-dasharray="1,2" d="M50 240l924 0"/>
<text stroke="none" fill="white" font-size="16" x="18" y="248">
2.0
</text>
<path stroke="white" stroke-dasharray="1,2" d="M50 144l924 0"/>
<text stroke="none" fill="white" font-size="16" x="18" y="152">
2.5
</text>
<path stroke="white" stroke-dasharray="1,2" d="M50 48l924 0"/>
<text stroke="none" fill="white" font-size="16" x="18" y="56">
3.0
</text>
<text stroke="none" fill="white" font-size="16" x="10" y="32">
A
</text>
<path stroke="red" d="M462 23l46 0"/>
<text stroke="none" fill="white" font-size="16" x="518" y="32">
@l1[i]
</text>
<path stroke="red" d="M50 371l0 -23M50 371l1 0M51 423l0 -52M51 423l1 0M52 479l0 -56M52 479l1 0M53 536l0 -57M53 536l1 0M54 594l0 -58M54 594l1 0M55 625l0 -31M55 624l1 0M56 625l0 -2M56 624l1 0M57 625l0 -2M57 624l102 0 0 -119M159 526l1 0M160 560l0 -34"/>
<path stroke="red" d="M160 560l1 0M161 594l0 -34M161 594l1 0M162 624l0 -30M162 624l2 0 0 -119M164 529l1 0M165 568l0 -39M165 568l1 0M166 600l0 -117M166 489l1 0M167 532l0 -43M167 532l1 0M168 576l0 -44M168 576l1 0M169 619l0 -43M169 619l1 0M170 624l0 -5"/>
<path stroke="red" d="M170 624l1 0 0 -118M171 512l1 0M172 558l0 -46M172 558l1 0M173 604l0 -46M173 604l1 0M174 619l0 -118M174 532l1 0M175 581l0 -49M175 581l1 0M176 621l0 -118M176 510l1 0M177 562l0 -52M177 562l1 0M178 613l0 -51M178 613l1 0M179 625l0 -119"/>
<path stroke="red" d="M179 540l1 0M180 594l0 -54M180 594l1 0M181 625l0 -119M181 514l1 0M182 569l0 -55M182 569l1 0M183 623l0 -54M183 623l1 0M184 625l0 -119M184 542l1 0M185 598l0 -56M185 598l1 0M186 625l0 -119M186 513l1 0M187 571l0 -58M187 571l1 0"/>
<path stroke="red" d="M188 625l0 -54M188 623l1 0M189 625l0 -118M189 544l1 0M190 602l0 -58M190 602l1 0M191 625l0 -119M191 514l1 0M192 574l0 -60M192 574l1 0M193 625l0 -51M193 624l1 0M194 625l0 -118M194 545l1 0M195 605l0 -60M195 605l1 0M196 625l0 -119"/>
<path stroke="red" d="M196 514l1 0M197 575l0 -61M197 575l1 0M198 625l0 -50M198 625l1 0 0 -119M199 545l1 0M200 606l0 -61M200 606l1 0M201 625l0 -119M201 514l1 0M202 577l0 -63M202 577l1 0M203 625l0 -48M203 623l1 0M204 625l0 -118M204 546l1 0M205 608l0 -62"/>
<path stroke="red" d="M205 608l1 0M206 625l0 -119M206 514l1 0M207 577l0 -63M207 577l1 0M208 625l0 -48M208 624l1 0M209 625l0 -119M209 546l1 0M210 609l0 -63M210 609l1 0M211 625l0 -98M211 535l1 0M212 598l0 -63M212 598l1 0M213 625l0 -27M213 624l1 0"/>
<path stroke="red" d="M214 625l0 -97M214 567l1 0M215 625l0 -58M215 623l1 0M216 625l0 -98M216 535l1 0M217 597l0 -62M217 597l1 0M218 625l0 -28M218 624l1 0M219 625l0 -98M219 565l1 0M220 625l0 -60M220 625l1 0 0 -97M221 535l1 0M222 596l0 -61M222 596l1 0"/>
<path stroke="red" d="M223 625l0 -29M223 623l1 0M224 625l0 -97M224 565l1 0M225 624l0 -59M225 624l1 0M226 625l0 -97M226 535l1 0M227 595l0 -60M227 595l1 0M228 625l0 -30M228 624l1 0M229 625l0 -97M229 565l1 0M230 624l0 -59M230 624l1 0M231 625l0 -97"/>
<path stroke="red" d="M231 535l1 0M232 594l0 -59M232 594l1 0M233 625l0 -31M233 625l1 0 0 -98M234 564l1 0M235 622l0 -58M235 622l1 0M236 625l0 -98M236 534l1 0M237 593l0 -59M237 593l1 0M238 625l0 -32M238 624l1 0M239 625l0 -98M239 564l1 0M240 621l0 -57"/>
<path stroke="red" d="M240 621l1 0M241 625l0 -98M241 534l1 0M242 593l0 -59M242 593l1 0M243 625l0 -32M243 623l1 0M244 625l0 -97M244 564l1 0M245 621l0 -57M245 621l1 0M246 625l0 -98M246 534l1 0M247 593l0 -59M247 593l1 0M248 625l0 -32M248 623l1 0"/>
<path stroke="red" d="M249 625l0 -98M249 563l1 0M250 620l0 -57M250 620l1 0M251 625l0 -97M251 534l1 0M252 592l0 -58M252 592l1 0M253 625l0 -33M253 624l1 0M254 625l0 -97M254 563l1 0M255 620l0 -57M255 620l1 0M256 625l0 -97M256 534l1 0M257 592l0 -58"/>
<path stroke="red" d="M257 592l1 0M258 625l0 -33M258 624l1 0M259 625l0 -97M259 563l1 0M260 620l0 -57M260 620l1 0M261 625l0 -97M261 534l1 0M262 592l0 -58M262 592l1 0M263 625l0 -33M263 624l1 0M264 625l0 -97M264 563l1 0M265 620l0 -57M265 620l1 0"/>
<path stroke="red" d="M266 625l0 -97M266 534l1 0M267 592l0 -58M267 592l1 0M268 625l0 -33M268 624l1 0M269 625l0 -97M269 563l1 0M270 620l0 -57M270 620l1 0M271 625l0 -97M271 534l1 0M272 591l0 -57M272 591l1 0M273 625l0 -34M273 625l1 0 0 -97M274 562l1 0"/>
<path stroke="red" d="M275 619l0 -57M275 619l1 0M276 625l0 -97M276 534l1 0M277 591l0 -57M277 591l1 0M278 625l0 -34M278 625l1 0 0 -97M279 563l1 0M280 619l0 -56M280 619l1 0M281 625l0 -97M281 533l1 0M282 591l0 -58M282 591l1 0M283 625l0 -34M283 624l1 0"/>
<path stroke="red" d="M284 625l0 -97M284 562l1 0M285 619l0 -57M285 619l1 0M286 625l0 -97M286 533l1 0M287 591l0 -58M287 591l1 0M288 625l0 -34M288 624l1 0M289 625l0 -97M289 562l1 0M290 619l0 -57M290 619l1 0M291 625l0 -97M291 533l1 0M292 591l0 -58"/>
<path stroke="red" d="M292 591l1 0M293 625l0 -34M293 624l1 0M294 625l0 -97M294 562l1 0M295 618l0 -56M295 618l1 0M296 625l0 -97M296 533l1 0M297 591l0 -58M297 591l1 0M298 625l0 -34M298 624l1 0M299 625l0 -97M299 562l1 0M300 618l0 -56M300 618l1 0"/>
<path stroke="red" d="M301 625l0 -97M301 533l1 0M302 590l0 -57M302 590l1 0M303 625l0 -35M303 624l1 0M304 625l0 -97M304 562l1 0M305 618l0 -56M305 618l1 0M306 625l0 -97M306 532l1 0M307 590l0 -58M307 590l1 0M308 625l0 -35M308 624l1 0M309 625l0 -97"/>
<path stroke="red" d="M309 561l1 0M310 618l0 -57M310 618l1 0M311 625l0 -97M311 532l1 0M312 590l0 -58M312 590l1 0M313 625l0 -35M313 624l1 0M314 625l0 -97M314 561l1 0M315 618l0 -57M315 618l1 0M316 625l0 -97M316 532l1 0M317 590l0 -58M317 590l1 0"/>
<path stroke="red" d="M318 625l0 -35M318 624l1 0M319 625l0 -97M319 561l1 0M320 618l0 -57M320 618l1 0M321 625l0 -106M321 523l1 0M322 581l0 -58M322 581l1 0M323 625l0 -44M323 624l1 0M324 625l0 -119M324 540l1 0M325 598l0 -58M325 598l1 0M326 625l0 -130"/>
<path stroke="red" d="M326 499l1 0M327 559l0 -60M327 559l1 0M328 618l0 -59M328 618l1 0M329 625l0 -140M329 520l1 0M330 582l0 -62M330 582l1 0M331 625l0 -150M331 479l1 0M332 543l0 -64M332 543l1 0M333 607l0 -64M333 607l1 0M334 625l0 -159M334 504l1 0"/>
<path stroke="red" d="M335 570l0 -66M335 570l1 0M336 625l0 -167M336 462l1 0M337 532l0 -70M337 532l1 0M338 600l0 -68M338 600l1 0M339 625l0 -175M339 490l1 0M340 562l0 -72M340 562l1 0M341 625l0 -182M341 447l1 0M342 521l0 -74M342 521l1 0M343 596l0 -75"/>
<path stroke="red" d="M343 596l1 0M344 625l0 -189M344 478l1 0M345 556l0 -78M345 556l1 0M346 625l0 -197M346 432l1 0M347 513l0 -81M347 513l1 0M348 593l0 -80M348 593l1 0M349 624l0 -202M349 467l1 0M350 550l0 -83M350 550l1 0M351 624l0 -209M351 418l1 0"/>
<path stroke="red" d="M352 505l0 -87M352 505l1 0M353 590l0 -85M353 590l1 0M354 625l0 -217M354 456l1 0M355 545l0 -89M355 545l1 0M356 625l0 -223M356 405l1 0M357 497l0 -92M357 497l1 0M358 589l0 -92M358 589l1 0M359 625l0 -230M359 445l1 0M360 541l0 -96"/>
<path stroke="red" d="M360 541l1 0M361 625l0 -236M361 392l1 0M362 489l0 -97M362 489l1 0M363 587l0 -98M363 587l1 0M364 625l0 -243M364 435l1 0M365 536l0 -101M365 536l1 0M366 625l0 -249M366 379l1 0M367 482l0 -103M367 482l1 0M368 585l0 -103M368 585l1 0"/>
<path stroke="red" d="M369 625l0 -255M369 425l1 0M370 532l0 -107M370 532l1 0M371 625l0 -262M371 366l1 0M372 475l0 -109M372 475l1 0M373 583l0 -108M373 583l1 0M374 625l0 -268M374 415l1 0M375 527l0 -112M375 527l1 0M376 625l0 -274M376 353l1 0M377 468l0 -115"/>
<path stroke="red" d="M377 468l1 0M378 582l0 -114M378 582l1 0M379 625l0 -280M379 405l1 0M380 523l0 -118M380 523l1 0M381 625l0 -286M381 341l1 0M382 461l0 -120M382 461l1 0M383 580l0 -119M383 580l1 0M384 625l0 -292M384 395l1 1M385 518l0 -122M385 518l1 0"/>
<path stroke="red" d="M386 625l0 -298M386 328l1 0M387 454l0 -126M387 454l1 0M388 578l0 -124M388 578l1 0M389 625l0 -304M389 386l1 0M390 514l0 -128M390 514l1 0M391 625l0 -309 1 0M392 447l0 -131M392 447l1 0M393 577l0 -130M393 577l1 0M394 625l0 -315"/>
<path stroke="red" d="M394 376l1 0M395 510l0 -134M395 510l1 0M396 625l0 -321 1 0M397 440l0 -136M397 440l1 0M398 575l0 -135M398 575l1 0M399 626l0 -328M399 367l1 0M400 506l0 -139M400 506l1 0M401 626l0 -314 1 0M402 433l0 -140M402 433l1 0M403 573l0 -140"/>
<path stroke="red" d="M403 573l1 0M404 626l0 -339M404 358l1 0M405 501l0 -143M405 501l1 0M406 626l0 -303 1 -1M407 426l0 -144M407 426l1 0M408 572l0 -146M408 572l1 0M409 626l0 -350M409 348l1 0M410 497l0 -149M410 497l1 0M411 626l0 -292 1 -1M412 419l0 -148"/>
<path stroke="red" d="M412 419l1 0M413 448l0 -173M413 395l1 0M414 463l0 -183M414 363l1 0M415 472l0 -189M415 327l1 0M416 480l0 -194M416 289l1 0M417 455l0 -166M417 455l1 0M418 486l0 -198M418 418l1 0M419 491l0 -201M419 378l1 0M420 496l0 -205M420 337l1 0"/>
<path stroke="red" d="M421 500l0 -208M421 295l1 0M422 470l0 -175M422 470l1 0M423 504l0 -211M423 428l1 0M424 506l0 -213M424 385l1 0M425 509l0 -217M425 340l1 0M426 510l0 -218M426 294l1 0M427 477l0 -183M427 477l1 0M428 512l0 -220M428 432l1 0M429 514l0 -223"/>
<path stroke="red" d="M429 386l1 0M430 515l0 -225M430 338l1 0M431 515l0 -226M431 290l1 0M432 479l0 -189M432 479l1 1M433 516l0 -228M433 432l1 0M434 517l0 -244M434 370l1 0M435 503l0 -231M435 321l1 0M436 505l0 -234M436 272l1 0M437 468l0 -196M437 468l1 0"/>
<path stroke="red" d="M438 506l0 -235M438 419l1 0M439 507l0 -237M439 370l1 0M440 509l0 -240M440 319l1 0M441 509l0 -240 1 -1M442 470l0 -202M442 470l1 0M443 510l0 -243M443 419l1 0M444 510l0 -244M444 368l1 0M445 511l0 -246M445 316l1 0M446 511l0 -231"/>
<path stroke="red" d="M446 280l1 -1M447 470l0 -207M447 470l1 0M448 511l0 -249M448 417l1 0M449 511l0 -251M449 364l1 0M450 511l0 -252M450 311l1 0M451 511l0 -220 1 -1M452 468l0 -210M452 468l1 0M453 511l0 -255M453 415l1 0M454 511l0 -256M454 360l1 0"/>
<path stroke="red" d="M455 511l0 -258M455 305l1 0M456 510l0 -210 1 -1M457 466l0 -214M457 466l1 0M458 510l0 -260M458 411l1 0M459 510l0 -262M459 355l1 0M460 509l0 -262M460 299l1 0M461 509l0 -210M461 309l1 0M462 463l0 -218M462 463l1 0M463 509l0 -265"/>
<path stroke="red" d="M463 407l1 0M464 508l0 -266M464 351l1 0M465 508l0 -267M465 293l1 0M466 508l0 -215M466 318l1 -1M467 460l0 -221M467 460l1 0M468 507l0 -269M468 403l1 0M469 507l0 -271M469 346l1 0M470 507l0 -273M470 287l1 0M471 506l0 -219M471 326l1 0"/>
<path stroke="red" d="M472 457l0 -224M472 457l1 0M473 506l0 -275M473 399l1 0M474 505l0 -275M474 340l1 0M475 505l0 -277M475 281l1 0M476 504l0 -223M476 335l1 -1M477 454l0 -227M477 454l1 0M478 504l0 -279M478 395l1 0M479 503l0 -280M479 335l1 0M480 503l0 -281"/>
<path stroke="red" d="M480 275l1 0M481 503l0 -228M481 343l1 -1M482 451l0 -231M482 451l1 0M483 502l0 -283M483 391l1 0M484 502l0 -284M484 331l1 0M485 501l0 -285M485 269l1 0M486 501l0 -232M486 352l1 -1M487 448l0 -234M487 448l1 0M488 500l0 -287M488 387l1 0"/>
<path stroke="red" d="M489 500l0 -289M489 325l1 0M490 499l0 -289M490 263l1 0M491 499l0 -236M491 360l1 -1M492 445l0 -237M492 445l1 0M493 499l0 -292M493 383l1 0M494 498l0 -293M494 320l1 0M495 498l0 -294M495 257l1 0M496 353l0 -149M496 210l1 0M497 357l0 -150"/>
<path stroke="red" d="M497 304l1 0M498 362l0 -150M498 245l1 0M499 365l0 -150M499 343l1 0M500 370l0 -153M500 282l1 0M501 374l0 -154M501 243l1 -1M502 376l0 -155M502 319l1 0M503 379l0 -156M503 255l1 1M504 381l0 -156M504 356l1 0M505 383l0 -157M505 291l1 0"/>
<path stroke="red" d="M506 385l0 -158M506 264l1 -1M507 386l0 -159M507 327l1 0M508 388l0 -160M508 260l1 0M509 389l0 -160M509 362l1 0M510 390l0 -161M510 295l1 0M511 391l0 -162M511 280l1 -1M512 391l0 -162M512 330l1 0M513 392l0 -163M513 261l1 0M514 393l0 -163"/>
<path stroke="red" d="M514 364l1 1M515 393l0 -164M515 295l1 0M516 394l0 -165M516 293l1 -1M517 394l0 -165M517 330l1 0M518 394l0 -165M518 260l1 0M519 394l0 -165M519 365l1 0M520 394l0 -166M520 294l1 0M521 394l0 -166M521 304l1 -1M522 394l0 -167M522 329l1 0"/>
<path stroke="red" d="M523 394l0 -167M523 257l1 0M524 394l0 -168M524 363l1 0M525 394l0 -168M525 292l1 0M526 394l0 -168M526 314l1 -1M527 394l0 -169M527 327l1 0M528 393l0 -169M528 254l1 0M529 393l0 -169M529 362l1 0M530 393l0 -170M530 289l1 0M531 393l0 -171"/>
<path stroke="red" d="M531 322l1 -1M532 392l0 -170M532 324l1 0M533 392l0 -171M533 251l1 0M534 392l0 -171M534 359l1 0M535 392l0 -172M535 286l1 0M536 391l0 -171M536 331l1 0M537 391l0 -172M537 321l1 0M538 391l0 -173M538 247l1 0M539 390l0 -172M539 357l1 0"/>
<path stroke="red" d="M540 390l0 -173M540 283l1 0M541 390l0 -174M541 339l1 -1M542 389l0 -174M542 318l1 0M543 389l0 -175M543 243l1 0M544 388l0 -174M544 354l1 0M545 388l0 -175M545 278l1 0M546 387l0 -175M546 347l1 0M547 387l0 -175M547 315l1 0M548 387l0 -176"/>
<path stroke="red" d="M548 239l1 0M549 386l0 -176M549 351l1 0M550 386l0 -176M550 275l1 0M551 386l0 -177M551 355l1 -1M552 385l0 -177M552 311l1 0M553 385l0 -178M553 235l1 0M554 384l0 -177M554 348l1 0M555 384l0 -178M555 271l1 0M556 383l0 -177M556 363l1 -1"/>
<path stroke="red" d="M557 383l0 -178M557 308l1 0M558 383l0 -179M558 231l1 0M559 382l0 -178M559 345l1 0M560 382l0 -180M560 268l1 0M561 381l0 -179M561 370l1 -1M562 381l0 -180M562 305l1 0M563 381l0 -181M563 227l1 0M564 380l0 -180M564 342l1 0M565 380l0 -181"/>
<path stroke="red" d="M565 264l1 0M566 379l0 -180M566 379l1 -1M567 379l0 -181M567 301l1 0M568 378l0 -181M568 223l1 0M569 378l0 -182M569 339l1 0M570 378l0 -183M570 260l1 1M571 377l0 -182M571 376l1 1 0 -183M572 298l1 0M573 377l0 -183M573 219l1 1"/>
<path stroke="red" d="M574 376l0 -183M574 336l1 0M575 376l0 -184M575 257l1 0M576 375l0 -183M576 374l1 0M577 375l0 -184M577 295l1 0M578 374l0 -184M578 215l1 0M579 374l0 -185M579 333l1 0M580 374l0 -185M580 253l1 0M581 373l0 -185M581 371l1 0M582 373l0 -186"/>
<path stroke="red" d="M582 291l1 0M583 372l0 -185M583 211l1 0M584 372l0 -186M584 330l1 0M585 372l0 -187M585 249l1 0M586 371l0 -186M586 368l1 0M587 371l0 -187M587 288l1 0M588 370l0 -187M588 207l1 0M589 370l0 -188M589 326l1 0M590 369l0 -189M590 244l1 0"/>
<path stroke="red" d="M591 368l0 -188M591 364l1 0M592 367l0 -189M592 282l1 0M593 366l0 -190M593 199l1 1M594 364l0 -189M594 320l1 0M595 364l0 -190M595 237l1 0M596 363l0 -190M596 358l1 0M597 362l0 -191M597 276l1 0M598 361l0 -191M598 193l1 0M599 360l0 -190"/>
<path stroke="red" d="M599 315l1 0M600 360l0 -192M600 232l1 0M601 359l0 -191M601 354l1 0M602 358l0 -192M602 271l1 0M603 358l0 -193M603 187l1 0M604 357l0 -193M604 310l1 0M605 356l0 -193M605 226l1 0M606 356l0 -193M606 350l1 0M607 355l0 -194M607 266l1 0"/>
<path stroke="red" d="M608 354l0 -194M608 182l1 0M609 354l0 -194M609 306l1 0M610 353l0 -194M610 222l1 0M611 353l0 -195M611 346l1 0M612 352l0 -195M612 262l1 0M613 352l0 -196M613 177l1 0M614 352l0 -196M614 302l1 0M615 351l0 -196M615 217l1 0M616 350l0 -196"/>
<path stroke="red" d="M616 343l1 0M617 350l0 -197M617 258l1 0M618 350l0 -198M618 172l1 0M619 349l0 -197M619 299l1 0M620 349l0 -198M620 213l1 0M621 348l0 -198M621 340l1 0M622 348l0 -199M622 254l1 0M623 348l0 -200M623 168l1 0M624 347l0 -199M624 296l1 0"/>
<path stroke="red" d="M625 347l0 -200M625 209l1 0M626 346l0 -199M626 337l1 0M627 346l0 -231M627 159l1 0M628 356l0 -207M628 180l1 0M629 367l0 -202M629 309l1 0M630 366l0 -204M630 219l1 0M631 363l0 -203M631 346l1 0M632 361l0 -204M632 257l1 0M633 358l0 -204"/>
<path stroke="red" d="M633 167l1 1M634 355l0 -202M634 296l1 0M635 354l0 -203M635 207l1 0M636 352l0 -202M636 335l1 1M637 351l0 -203M637 247l1 0M638 349l0 -203M638 158l1 0M639 348l0 -203M639 288l1 0M640 347l0 -204M640 199l1 0M641 346l0 -204M641 329l1 0"/>
<path stroke="red" d="M642 345l0 -204M642 240l1 0M643 344l0 -204M643 151l1 0M644 343l0 -204M644 282l1 0M645 342l0 -204M645 193l1 0M646 342l0 -205M646 324l1 0M647 341l0 -205M647 235l1 0M648 341l0 -206M648 146l1 0M649 340l0 -206M649 278l1 0M650 339l0 -205"/>
<path stroke="red" d="M650 188l1 0M651 339l0 -206M651 320l1 0M652 338l0 -206M652 231l1 0M653 338l0 -207M653 141l1 0M654 337l0 -206M654 274l1 0M655 337l0 -207M655 184l1 0M656 337l0 -207M656 317l1 0M657 336l0 -207M657 227l1 1M658 336l0 -208M658 137l1 0"/>
<path stroke="red" d="M659 335l0 -208M659 271l1 0M660 335l0 -208M660 180l1 0M661 335l0 -209M661 314l1 0M662 334l0 -209M662 224l1 0M663 334l0 -209M663 133l1 0M664 333l0 -209M664 268l1 0M665 333l0 -210M665 177l1 0M666 333l0 -210M666 312l1 0M667 333l0 -211"/>
<path stroke="red" d="M667 221l1 0M668 332l0 -211M668 129l1 0M669 332l0 -211M669 265l1 0M670 332l0 -212M670 173l1 0M671 331l0 -211M671 309l1 0M672 331l0 -212M672 217l1 0M673 330l0 -212M673 125l1 0M674 330l0 -212M674 262l1 0M675 330l0 -213M675 169l1 1"/>
<path stroke="red" d="M676 330l0 -213M676 307l1 0M677 329l0 -213M677 214l1 0M678 329l0 -213M678 121l1 0M679 329l0 -214M679 259l1 0M680 328l0 -214M680 166l1 0M681 328l0 -214M681 304l1 0M682 328l0 -215M682 211l1 0M683 327l0 -214M683 117l1 1M684 327l0 -215"/>
<path stroke="red" d="M684 256l1 0M685 327l0 -215M685 163l1 0M686 326l0 -215M686 301l1 0M687 326l0 -215M687 208l1 0M688 326l0 -216M688 114l1 0M689 325l0 -215M689 253l1 0M690 325l0 -216M690 159l1 0M691 325l0 -216M691 299l1 0M692 325l0 -217M692 205l1 0"/>
<path stroke="red" d="M693 324l0 -217M693 110l1 0M694 324l0 -217M694 250l1 0M695 323l0 -217M695 156l1 0M696 323l0 -217M696 296l1 0M697 323l0 -218M697 202l1 0M698 323l0 -218M698 107l1 0M699 322l0 -218M699 248l1 0M700 322l0 -218M700 152l1 1M701 322l0 -219"/>
<path stroke="red" d="M701 294l1 0M702 321l0 -218M702 199l1 0M703 321l0 -219M703 103l1 0M704 321l0 -219M704 245l1 0M705 321l0 -220M705 149l1 0M706 320l0 -219M706 291l1 1M707 320l0 -220M707 196l1 0M708 320l0 -221 1 0M709 319l0 -220M709 242l1 0"/>
<path stroke="red" d="M710 319l0 -220M710 146l1 0M711 319l0 -220M711 289l1 0M712 319l0 -221M712 193l1 0M713 318l0 -221M713 107l1 -1M714 318l0 -221M714 240l1 0M715 318l0 -222M715 143l1 0M716 318l0 -222M716 287l1 0M717 317l0 -222M717 190l1 0M718 317l0 -222"/>
<path stroke="red" d="M718 115l1 -1M719 317l0 -223M719 237l1 0M720 317l0 -223M720 140l1 0M721 316l0 -222M721 284l1 0M722 316l0 -223M722 187l1 0M723 316l0 -223M723 124l1 -1M724 315l0 -223M724 235l1 0M725 315l0 -223M725 137l1 0M726 315l0 -224M726 282l1 0"/>
<path stroke="red" d="M727 315l0 -224M727 184l1 1M728 314l0 -224M728 132l1 0M729 314l0 -224M729 232l1 0M730 314l0 -224M730 134l1 0M731 314l0 -225M731 280l1 0M732 313l0 -224M732 182l1 0M733 313l0 -225M733 141l1 0M734 313l0 -225M734 230l1 0M735 313l0 -226"/>
<path stroke="red" d="M735 131l1 0M736 312l0 -225M736 277l1 0M737 312l0 -226M737 179l1 0M738 312l0 -226M738 150l1 0M739 312l0 -227M739 227l1 0M740 311l0 -226M740 128l1 0M741 311l0 -226M741 275l1 0M742 311l0 -227M742 176l1 0M743 311l0 -227M743 160l1 -1"/>
<path stroke="red" d="M744 310l0 -227M744 225l1 0M745 310l0 -227M745 125l1 0M746 310l0 -227M746 273l1 0M747 310l0 -228M747 174l1 0M748 310l0 -228M748 169l1 -1M749 309l0 -227M749 222l1 0M750 309l0 -228M750 122l1 0M751 309l0 -228M751 271l1 0M752 308l0 -228"/>
<path stroke="red" d="M752 171l1 0M753 308l0 -228M753 177l1 -1M754 308l0 -229M754 220l1 0M755 308l0 -229M755 120l1 0M756 308l0 -229M756 269l1 0M757 308l0 -230M757 169l1 0M758 307l0 -229M758 185l1 -1M759 307l0 -230M759 218l1 0M760 307l0 -230M760 117l1 0"/>
<path stroke="red" d="M761 306l0 -229M761 267l1 0M762 306l0 -230M762 166l1 0M763 306l0 -230M763 194l1 -1M764 306l0 -230M764 215l1 1M765 306l0 -231M765 114l1 0M766 305l0 -230M766 265l1 0M767 305l0 -230M767 164l1 0M768 305l0 -231M768 202l1 0M769 304l0 -230"/>
<path stroke="red" d="M769 213l1 0M770 305l0 -232M770 112l1 0M771 304l0 -231M771 263l1 0M772 304l0 -232M772 161l1 0M773 304l0 -232M773 211l1 0M774 304l0 -232M774 211l1 0M775 304l0 -232M775 109l1 0M776 303l0 -232M776 261l1 0M777 303l0 -232M777 159l1 0"/>
<path stroke="red" d="M778 303l0 -232M778 220l1 -1M779 303l0 -233M779 209l1 0M780 303l0 -233M780 107l1 0M781 302l0 -233M781 258l1 0M782 302l0 -233M782 156l1 1M783 302l0 -233M783 229l1 -1M784 302l0 -234M784 206l1 0M785 302l0 -234M785 104l1 0M786 301l0 -233"/>
<path stroke="red" d="M786 256l1 0M787 301l0 -234M787 154l1 0M788 301l0 -234M788 238l1 -1M789 301l0 -234M789 204l1 0M790 301l0 -235M790 102l1 0M791 301l0 -235M791 255l1 0M792 300l0 -234M792 152l1 0M793 300l0 -234M793 247l1 -1M794 300l0 -235M794 202l1 0"/>
<path stroke="red" d="M795 300l0 -235M795 99l1 0M796 299l0 -234M796 253l1 0M797 299l0 -235M797 150l1 0M798 299l0 -235M798 256l1 -1M799 299l0 -235M799 200l1 0M800 299l0 -236M800 97l1 0M801 299l0 -236M801 251l1 0M802 299l0 -236M802 148l1 0M803 298l0 -235"/>
<path stroke="red" d="M803 265l1 -1M804 298l0 -236M804 198l1 0M805 298l0 -236M805 94l1 1M806 298l0 -237M806 249l1 0M807 298l0 -237M807 146l1 0M808 299l0 -236M808 276l1 -1M809 300l0 -236M809 200l1 0M810 301l0 -236M810 97l1 0M811 302l0 -236M811 253l1 0"/>
<path stroke="red" d="M812 303l0 -237M812 150l1 0M813 303l0 -237M813 290l1 -1M814 303l0 -236M814 201l1 0M815 304l0 -237M815 98l1 0M816 304l0 -237M816 253l1 0M817 304l0 -237M817 149l1 0M818 304l0 -237M818 301l1 -1M819 303l0 -236M819 201l1 0M820 304l0 -237"/>
<path stroke="red" d="M820 97l1 0M821 304l0 -237M821 252l1 0M822 304l0 -237M822 148l1 0M823 304l0 -237M823 303l1 0M824 304l0 -237M824 200l1 0M825 304l0 -237M825 96l1 0M826 304l0 -237M826 251l1 0M827 304l0 -237M827 148l1 0M828 304l0 -237M828 302l1 0"/>
<path stroke="red" d="M829 304l0 -237M829 199l1 0M830 304l0 -237M830 95l1 0M831 304l0 -237M831 250l1 0M832 304l0 -237M832 147l1 0M833 304l0 -237M833 302l1 0M834 304l0 -237M834 198l1 0M835 304l0 -237M835 94l1 0M836 304l0 -237M836 249l1 0M837 304l0 -237"/>
<path stroke="red" d="M837 146l1 0M838 304l0 -237M838 300l1 1M839 304l0 -237M839 197l1 0M840 304l0 -237M840 93l1 0M841 304l0 -237M841 248l1 0M842 304l0 -237M842 145l1 0M843 304l0 -237M843 300l1 0M844 304l0 -237M844 196l1 0M845 304l0 -237M845 92l1 0"/>
<path stroke="red" d="M846 304l0 -237M846 248l1 0M847 304l0 -237M847 144l1 0M848 304l0 -237M848 299l1 0M849 304l0 -237M849 195l1 0M850 304l0 -238M850 91l1 0M851 304l0 -238M851 246l1 0M852 304l0 -238M852 143l1 0M853 304l0 -237M853 298l1 0M854 304l0 -238"/>
<path stroke="red" d="M854 194l1 0M855 304l0 -237M855 90l1 0M856 304l0 -238M856 246l1 0M857 304l0 -238M857 142l1 0M858 304l0 -238M858 297l1 0M859 304l0 -238M859 193l1 0M860 304l0 -238M860 89l1 0M861 304l0 -238M861 245l1 0M862 304l0 -238M862 141l1 0"/>
<path stroke="red" d="M863 304l0 -238M863 296l1 0M864 304l0 -238M864 192l1 1M865 304l0 -238M865 88l1 0M866 304l0 -238M866 244l1 0M867 304l0 -238M867 140l1 0M868 304l0 -238M868 295l1 0M869 304l0 -238M869 191l1 1M870 304l0 -238M870 87l1 0M871 304l0 -238"/>
<path stroke="red" d="M871 243l1 0M872 304l0 -238M872 139l1 0M873 304l0 -238M873 294l1 0M874 303l0 -237M874 191l1 0M875 304l0 -238M875 87l1 0M876 304l0 -238M876 242l1 0M877 304l0 -238M877 138l1 0M878 304l0 -238M878 293l1 0M879 304l0 -238M879 190l1 0"/>
<path stroke="red" d="M880 304l0 -238M880 85l1 1M881 303l0 -237M881 241l1 0M882 304l0 -238M882 137l1 0M883 303l0 -237M883 292l1 0M884 304l0 -238M884 189l1 0M885 304l0 -238M885 84l1 0M886 303l0 -237M886 240l1 0M887 303l0 -237M887 136l1 0M888 303l0 -237"/>
<path stroke="red" d="M888 291l1 0M889 303l0 -237M889 188l1 0M890 304l0 -238M890 84l1 0M891 304l0 -238M891 239l1 0M892 304l0 -238M892 135l1 0M893 303l0 -237M893 290l1 1M894 304l0 -238M894 187l1 0M895 304l0 -238M895 82l1 1M896 303l0 -237M896 238l1 0"/>
<path stroke="red" d="M897 303l0 -237M897 134l1 0M898 303l0 -237M898 289l1 1M899 303l0 -237M899 186l1 0M900 304l0 -238M900 82l1 0M901 303l0 -237M901 237l1 0M902 303l0 -237M902 133l1 0M903 303l0 -237M903 288l1 1M904 303l0 -237M904 185l1 0M905 303l0 -237"/>
<path stroke="red" d="M905 81l1 0M906 303l0 -237M906 236l1 0M907 303l0 -237M907 132l1 0M908 303l0 -237M908 288l1 0M909 303l0 -237M909 184l1 0M910 303l0 -237M910 80l1 0M911 303l0 -237M911 235l1 0M912 303l0 -237M912 131l1 0M913 303l0 -237M913 287l1 0"/>
<path stroke="red" d="M914 304l0 -238M914 183l1 0M915 303l0 -237M915 79l1 0M916 303l0 -237M916 234l1 0M917 303l0 -237M917 130l1 0M918 303l0 -237M918 286l1 0M919 304l0 -238M919 182l1 0M920 303l0 -237M920 78l1 0M921 303l0 -237M921 233l1 0M922 303l0 -237"/>
<path stroke="red" d="M922 129l1 1M923 303l0 -237M923 285l1 0M924 303l0 -237M924 181l1 0M925 303l0 -237M925 77l1 0M926 303l0 -237M926 233l1 0M927 303l0 -238M927 128l1 0M928 303l0 -237M928 284l1 0M929 303l0 -237M929 180l1 0M930 303l0 -237M930 76l1 0"/>
<path stroke="red" d="M931 303l0 -237M931 232l1 0M932 303l0 -237M932 128l1 0M933 304l0 -238M933 283l1 0M934 303l0 -237M934 179l1 0M935 303l0 -238M935 75l1 0M936 304l0 -239M936 230l1 1M937 303l0 -237M937 127l1 0M938 304l0 -238M938 282l1 0M939 303l0 -237"/>
<path stroke="red" d="M939 178l1 0M940 303l0 -237M940 74l1 0M941 303l0 -237M941 230l1 0M942 303l0 -237M942 126l1 0M943 303l0 -238M943 281l1 0M944 303l0 -238M944 177l1 0M945 303l0 -237M945 73l1 0M946 303l0 -237M946 229l1 0M947 303l0 -238M947 125l1 0"/>
<path stroke="red" d="M948 303l0 -238M948 280l1 0M949 303l0 -237M949 176l1 0M950 303l0 -238M950 72l1 0M951 303l0 -237M951 228l1 0M952 303l0 -238M952 124l1 0M953 303l0 -238M953 279l1 0M954 303l0 -238M954 175l1 0M955 303l0 -238M955 71l1 0M956 303l0 -237"/>
<path stroke="red" d="M956 227l1 0M957 303l0 -238M957 123l1 0M958 303l0 -237M958 278l1 1M959 303l0 -238M959 174l1 1M960 303l0 -237M960 70l1 0M961 303l0 -238M961 226l1 0M962 303l0 -238M962 122l1 0M963 303l0 -237M963 278l1 0M964 303l0 -238M964 173l1 0"/>
<path stroke="red" d="M965 303l0 -238M965 69l1 0M966 303l0 -238M966 225l1 0M967 303l0 -238M967 121l1 0M968 303l0 -238M968 277l1 0M969 303l0 -238M969 173l1 0M970 303l0 -238M970 68l1 0M971 303l0 -238M971 224l1 0M972 303l0 -238M972 120l1 0M973 303l0 -237"/>
<path stroke="red" d="M973 276l1 0M974 303l0 -238"/>
</svg>
