G04 #@! TF.GenerationSoftware,KiCad,Pcbnew,8.0.3*
G04 #@! TF.CreationDate,2024-08-02T19:38:20+02:00*
G04 #@! TF.ProjectId,powermod,706f7765-726d-46f6-942e-6b696361645f,rev?*
G04 #@! TF.SameCoordinates,PXf42400PY2719c40*
G04 #@! TF.FileFunction,Copper,L3,Inr*
G04 #@! TF.FilePolarity,Positive*
%FSLAX46Y46*%
G04 Gerber Fmt 4.6, Leading zero omitted, Abs format (unit mm)*
G04 Created by KiCad (PCBNEW 8.0.3) date 2024-08-02 19:38:20*
%MOMM*%
%LPD*%
G01*
G04 APERTURE LIST*
G04 #@! TA.AperFunction,HeatsinkPad*
%ADD10C,0.500000*%
G04 #@! TD*
G04 #@! TA.AperFunction,ViaPad*
%ADD11C,0.800000*%
G04 #@! TD*
G04 #@! TA.AperFunction,ViaPad*
%ADD12C,0.600000*%
G04 #@! TD*
G04 #@! TA.AperFunction,Profile*
%ADD13C,0.120000*%
G04 #@! TD*
G04 APERTURE END LIST*
D10*
X12390000Y-4670000D03*
X12390000Y-5970000D03*
X12390000Y-7270000D03*
X13690000Y-4670000D03*
X13690000Y-5970000D03*
X13690000Y-7270000D03*
D11*
X15000000Y-12000000D03*
X16000000Y-12000000D03*
X17000000Y-12000000D03*
X8000000Y-8000000D03*
X26000000Y-12000000D03*
X26000000Y-10000000D03*
X26000000Y-8000000D03*
X26000000Y-6000000D03*
X17000000Y-6000003D03*
X16000000Y-3510000D03*
X16294122Y-7546240D03*
X15000000Y-9944919D03*
X10840000Y-3899669D03*
X9500000Y-8000000D03*
X8029077Y-4116585D03*
X6085000Y-1000000D03*
X7036256Y-3996956D03*
X22000000Y-6500000D03*
X22000000Y-7500000D03*
X22000000Y-8500000D03*
X22000000Y-9500000D03*
X19000000Y-5000000D03*
X18000000Y-5000000D03*
X17000000Y-5000000D03*
X17500000Y-1500000D03*
X19000000Y-1500000D03*
X19000000Y-500000D03*
X19000000Y-2500000D03*
X17500000Y-2500000D03*
X17500000Y-500000D03*
X18500000Y-9500000D03*
X18500000Y-8500000D03*
X18500000Y-7500000D03*
X18500000Y-6500000D03*
X26000000Y1000000D03*
X25000000Y1000000D03*
X24000000Y1000000D03*
X26000000Y-4000000D03*
X25000000Y-4000000D03*
X24000000Y-4000000D03*
X13500000Y-8500000D03*
X13500000Y-9500000D03*
X13500000Y-10500000D03*
X12500000Y-10500000D03*
X12500000Y-9500000D03*
X12500000Y-8500000D03*
X13500000Y-3500000D03*
X13500000Y-2500000D03*
X13500000Y-1500000D03*
X12500000Y-3500000D03*
X12500000Y-2500000D03*
X12500000Y-1500000D03*
D12*
X1000000Y-4000000D03*
X1000000Y-6000000D03*
X1000000Y-10000000D03*
X1000000Y-12000000D03*
X1000000Y-8000000D03*
X1000000Y-14000000D03*
G04 #@! TA.AperFunction,Conductor*
G36*
X23496631Y1969498D02*
G01*
X23543124Y1915842D01*
X23553228Y1845568D01*
X23523734Y1780988D01*
X23502571Y1761564D01*
X23388744Y1678865D01*
X23260965Y1536952D01*
X23260958Y1536942D01*
X23165476Y1371562D01*
X23165473Y1371555D01*
X23106457Y1189928D01*
X23086496Y1000000D01*
X23106457Y810073D01*
X23136526Y717530D01*
X23165473Y628444D01*
X23165476Y628439D01*
X23260958Y463059D01*
X23260965Y463049D01*
X23388744Y321136D01*
X23388747Y321134D01*
X23543248Y208882D01*
X23717712Y131206D01*
X23904513Y91500D01*
X24095487Y91500D01*
X24282288Y131206D01*
X24448755Y205322D01*
X24519118Y214755D01*
X24551240Y205324D01*
X24717712Y131206D01*
X24904513Y91500D01*
X25095487Y91500D01*
X25282288Y131206D01*
X25448755Y205322D01*
X25519118Y214755D01*
X25551240Y205324D01*
X25717712Y131206D01*
X25904513Y91500D01*
X26095487Y91500D01*
X26282288Y131206D01*
X26456752Y208882D01*
X26611253Y321134D01*
X26739040Y463056D01*
X26754381Y489629D01*
X26805763Y538621D01*
X26875476Y552058D01*
X26941388Y525671D01*
X26982570Y467839D01*
X26989500Y426628D01*
X26989500Y-3426627D01*
X26969498Y-3494748D01*
X26915842Y-3541241D01*
X26845568Y-3551345D01*
X26780988Y-3521851D01*
X26754381Y-3489628D01*
X26739040Y-3463056D01*
X26739036Y-3463051D01*
X26739034Y-3463048D01*
X26611255Y-3321135D01*
X26456752Y-3208882D01*
X26282288Y-3131206D01*
X26095487Y-3091500D01*
X25904513Y-3091500D01*
X25717711Y-3131206D01*
X25612231Y-3178168D01*
X25551248Y-3205320D01*
X25480882Y-3214754D01*
X25448752Y-3205320D01*
X25282288Y-3131206D01*
X25095487Y-3091500D01*
X24904513Y-3091500D01*
X24717711Y-3131206D01*
X24612231Y-3178168D01*
X24551248Y-3205320D01*
X24480882Y-3214754D01*
X24448752Y-3205320D01*
X24282288Y-3131206D01*
X24095487Y-3091500D01*
X23904513Y-3091500D01*
X23717711Y-3131206D01*
X23543247Y-3208882D01*
X23388744Y-3321135D01*
X23260965Y-3463048D01*
X23260958Y-3463058D01*
X23165476Y-3628438D01*
X23165473Y-3628445D01*
X23106457Y-3810072D01*
X23086496Y-4000000D01*
X23106457Y-4189927D01*
X23122826Y-4240303D01*
X23165473Y-4371556D01*
X23165476Y-4371561D01*
X23260958Y-4536941D01*
X23260965Y-4536951D01*
X23388744Y-4678864D01*
X23388747Y-4678866D01*
X23543248Y-4791118D01*
X23717712Y-4868794D01*
X23904513Y-4908500D01*
X24095487Y-4908500D01*
X24282288Y-4868794D01*
X24448755Y-4794678D01*
X24519118Y-4785245D01*
X24551240Y-4794676D01*
X24717712Y-4868794D01*
X24904513Y-4908500D01*
X25095487Y-4908500D01*
X25282288Y-4868794D01*
X25448755Y-4794678D01*
X25519118Y-4785245D01*
X25551240Y-4794676D01*
X25717712Y-4868794D01*
X25755156Y-4876753D01*
X25817630Y-4910482D01*
X25851951Y-4972631D01*
X25847223Y-5043470D01*
X25804947Y-5100508D01*
X25755156Y-5123247D01*
X25717711Y-5131206D01*
X25543247Y-5208882D01*
X25388744Y-5321135D01*
X25260965Y-5463048D01*
X25260958Y-5463058D01*
X25165476Y-5628438D01*
X25165473Y-5628445D01*
X25106457Y-5810072D01*
X25086496Y-6000000D01*
X25106457Y-6189927D01*
X25136526Y-6282470D01*
X25165473Y-6371556D01*
X25165474Y-6371557D01*
X25165476Y-6371561D01*
X25260958Y-6536941D01*
X25260965Y-6536951D01*
X25388744Y-6678864D01*
X25403971Y-6689927D01*
X25543248Y-6791118D01*
X25717712Y-6868794D01*
X25755156Y-6876753D01*
X25817630Y-6910482D01*
X25851951Y-6972631D01*
X25847223Y-7043470D01*
X25804947Y-7100508D01*
X25755156Y-7123247D01*
X25717711Y-7131206D01*
X25543247Y-7208882D01*
X25388744Y-7321135D01*
X25260965Y-7463048D01*
X25260958Y-7463058D01*
X25168717Y-7622825D01*
X25165473Y-7628444D01*
X25164228Y-7632276D01*
X25106457Y-7810072D01*
X25086496Y-8000000D01*
X25106457Y-8189927D01*
X25117887Y-8225104D01*
X25165473Y-8371556D01*
X25165476Y-8371561D01*
X25260958Y-8536941D01*
X25260965Y-8536951D01*
X25388744Y-8678864D01*
X25388747Y-8678866D01*
X25543248Y-8791118D01*
X25717712Y-8868794D01*
X25755156Y-8876753D01*
X25817630Y-8910482D01*
X25851951Y-8972631D01*
X25847223Y-9043470D01*
X25804947Y-9100508D01*
X25755156Y-9123247D01*
X25717711Y-9131206D01*
X25543247Y-9208882D01*
X25388744Y-9321135D01*
X25260965Y-9463048D01*
X25260958Y-9463058D01*
X25165476Y-9628438D01*
X25165473Y-9628445D01*
X25106457Y-9810072D01*
X25086496Y-10000000D01*
X25106457Y-10189927D01*
X25136526Y-10282470D01*
X25165473Y-10371556D01*
X25165476Y-10371561D01*
X25260958Y-10536941D01*
X25260965Y-10536951D01*
X25388744Y-10678864D01*
X25388747Y-10678866D01*
X25543248Y-10791118D01*
X25717712Y-10868794D01*
X25755156Y-10876753D01*
X25817630Y-10910482D01*
X25851951Y-10972631D01*
X25847223Y-11043470D01*
X25804947Y-11100508D01*
X25755156Y-11123247D01*
X25717711Y-11131206D01*
X25543247Y-11208882D01*
X25388744Y-11321135D01*
X25260965Y-11463048D01*
X25260958Y-11463058D01*
X25165476Y-11628438D01*
X25165473Y-11628445D01*
X25106457Y-11810072D01*
X25086496Y-12000000D01*
X25106457Y-12189927D01*
X25136526Y-12282470D01*
X25165473Y-12371556D01*
X25165476Y-12371561D01*
X25260958Y-12536941D01*
X25260965Y-12536951D01*
X25388744Y-12678864D01*
X25388747Y-12678866D01*
X25543248Y-12791118D01*
X25717712Y-12868794D01*
X25904513Y-12908500D01*
X26095487Y-12908500D01*
X26282288Y-12868794D01*
X26456752Y-12791118D01*
X26611253Y-12678866D01*
X26739040Y-12536944D01*
X26754381Y-12510371D01*
X26805763Y-12461379D01*
X26875476Y-12447942D01*
X26941388Y-12474329D01*
X26982570Y-12532161D01*
X26989500Y-12573372D01*
X26989500Y-15863500D01*
X26969498Y-15931621D01*
X26915842Y-15978114D01*
X26863500Y-15989500D01*
X13126000Y-15989500D01*
X13057879Y-15969498D01*
X13011386Y-15915842D01*
X13000000Y-15863500D01*
X13000000Y-11639500D01*
X13020002Y-11571379D01*
X13073658Y-11524886D01*
X13126000Y-11513500D01*
X14031488Y-11513500D01*
X14031492Y-11513500D01*
X14140892Y-11501711D01*
X14193347Y-11490273D01*
X14297718Y-11455450D01*
X14420597Y-11376311D01*
X14474207Y-11329766D01*
X14474211Y-11329762D01*
X14569814Y-11219210D01*
X14630399Y-11086201D01*
X14650334Y-11018060D01*
X14661579Y-10939299D01*
X14691007Y-10874692D01*
X14750695Y-10836249D01*
X14812510Y-10833863D01*
X14904513Y-10853419D01*
X15095487Y-10853419D01*
X15282288Y-10813713D01*
X15456752Y-10736037D01*
X15611253Y-10623785D01*
X15739040Y-10481863D01*
X15834527Y-10316475D01*
X15893542Y-10134847D01*
X15913504Y-9944919D01*
X15893542Y-9754991D01*
X15834527Y-9573363D01*
X15739040Y-9407975D01*
X15739038Y-9407973D01*
X15739034Y-9407967D01*
X15611255Y-9266054D01*
X15456752Y-9153801D01*
X15282288Y-9076125D01*
X15095487Y-9036419D01*
X14904513Y-9036419D01*
X14904511Y-9036419D01*
X14821280Y-9054110D01*
X14750490Y-9048708D01*
X14693857Y-9005891D01*
X14669364Y-8939253D01*
X14669084Y-8930987D01*
X14668947Y-8791117D01*
X14668257Y-8087921D01*
X14665823Y-8038489D01*
X14663464Y-8014346D01*
X14656285Y-7965386D01*
X14648733Y-7943805D01*
X14608013Y-7827433D01*
X14608010Y-7827426D01*
X14575268Y-7764444D01*
X14575265Y-7764438D01*
X14490082Y-7645672D01*
X14460824Y-7622824D01*
X14419446Y-7565134D01*
X14415826Y-7494229D01*
X14419437Y-7481930D01*
X14434162Y-7439850D01*
X14453299Y-7270000D01*
X14434162Y-7100150D01*
X14377709Y-6938817D01*
X14286771Y-6794091D01*
X14286769Y-6794089D01*
X14286768Y-6794087D01*
X14201776Y-6709095D01*
X14167750Y-6646783D01*
X14172815Y-6575968D01*
X14201776Y-6530905D01*
X14286767Y-6445913D01*
X14286768Y-6445912D01*
X14286771Y-6445909D01*
X14377709Y-6301183D01*
X14434162Y-6139850D01*
X14453299Y-5970000D01*
X14434162Y-5800150D01*
X14377709Y-5638817D01*
X14286771Y-5494091D01*
X14286769Y-5494089D01*
X14286768Y-5494087D01*
X14201776Y-5409095D01*
X14167750Y-5346783D01*
X14172815Y-5275968D01*
X14201776Y-5230905D01*
X14286767Y-5145913D01*
X14286768Y-5145912D01*
X14286771Y-5145909D01*
X14377709Y-5001183D01*
X14434162Y-4839850D01*
X14453299Y-4670000D01*
X14434162Y-4500150D01*
X14417955Y-4453833D01*
X14414336Y-4382929D01*
X14449625Y-4321324D01*
X14454262Y-4317089D01*
X14467311Y-4305760D01*
X14467315Y-4305756D01*
X14562918Y-4195204D01*
X14623503Y-4062195D01*
X14643438Y-3994054D01*
X14664096Y-3849366D01*
X14663763Y-3510000D01*
X15086496Y-3510000D01*
X15106457Y-3699927D01*
X15136526Y-3792470D01*
X15165473Y-3881556D01*
X15165476Y-3881561D01*
X15260958Y-4046941D01*
X15260965Y-4046951D01*
X15388744Y-4188864D01*
X15424379Y-4214754D01*
X15543248Y-4301118D01*
X15717712Y-4378794D01*
X15904513Y-4418500D01*
X16068446Y-4418500D01*
X16136567Y-4438502D01*
X16183060Y-4492158D01*
X16193164Y-4562432D01*
X16177565Y-4607500D01*
X16165476Y-4628438D01*
X16165473Y-4628445D01*
X16106457Y-4810072D01*
X16086496Y-5000000D01*
X16106457Y-5189927D01*
X16119772Y-5230905D01*
X16165473Y-5371556D01*
X16165473Y-5371557D01*
X16165474Y-5371558D01*
X16203258Y-5437002D01*
X16219995Y-5505997D01*
X16203258Y-5563000D01*
X16165474Y-5628444D01*
X16106457Y-5810075D01*
X16086496Y-6000003D01*
X16106457Y-6189930D01*
X16136526Y-6282473D01*
X16165473Y-6371559D01*
X16165473Y-6371560D01*
X16165474Y-6371561D01*
X16219267Y-6464734D01*
X16236004Y-6533729D01*
X16212783Y-6600821D01*
X16156976Y-6644708D01*
X16136344Y-6650979D01*
X16011838Y-6677444D01*
X15837369Y-6755122D01*
X15682866Y-6867375D01*
X15555087Y-7009288D01*
X15555080Y-7009298D01*
X15459598Y-7174678D01*
X15459595Y-7174685D01*
X15400579Y-7356312D01*
X15380618Y-7546240D01*
X15400579Y-7736167D01*
X15424593Y-7810072D01*
X15459595Y-7917796D01*
X15459598Y-7917801D01*
X15555080Y-8083181D01*
X15555087Y-8083191D01*
X15682866Y-8225104D01*
X15682869Y-8225106D01*
X15837370Y-8337358D01*
X16011834Y-8415034D01*
X16198635Y-8454740D01*
X16389609Y-8454740D01*
X16576410Y-8415034D01*
X16750874Y-8337358D01*
X16905375Y-8225106D01*
X16905377Y-8225104D01*
X17033156Y-8083191D01*
X17033157Y-8083189D01*
X17033162Y-8083184D01*
X17128649Y-7917796D01*
X17187664Y-7736168D01*
X17207626Y-7546240D01*
X17187664Y-7356312D01*
X17128649Y-7174684D01*
X17098952Y-7123247D01*
X17074855Y-7081509D01*
X17058117Y-7012513D01*
X17081338Y-6945421D01*
X17137145Y-6901534D01*
X17157771Y-6895263D01*
X17282288Y-6868797D01*
X17456752Y-6791121D01*
X17464163Y-6785736D01*
X17531027Y-6761877D01*
X17600180Y-6777955D01*
X17649662Y-6828867D01*
X17658056Y-6848730D01*
X17665473Y-6871556D01*
X17665474Y-6871559D01*
X17703257Y-6937001D01*
X17719994Y-7005997D01*
X17703257Y-7062999D01*
X17665474Y-7128440D01*
X17665473Y-7128445D01*
X17606457Y-7310072D01*
X17586496Y-7500000D01*
X17606457Y-7689927D01*
X17621482Y-7736167D01*
X17665473Y-7871556D01*
X17665474Y-7871559D01*
X17703257Y-7937001D01*
X17719994Y-8005997D01*
X17703257Y-8062999D01*
X17665474Y-8128440D01*
X17665473Y-8128445D01*
X17606457Y-8310072D01*
X17586496Y-8500000D01*
X17606457Y-8689927D01*
X17636526Y-8782470D01*
X17665473Y-8871556D01*
X17665474Y-8871559D01*
X17703257Y-8937001D01*
X17719994Y-9005997D01*
X17703257Y-9062999D01*
X17665474Y-9128440D01*
X17665473Y-9128445D01*
X17606457Y-9310072D01*
X17586496Y-9500000D01*
X17606457Y-9689927D01*
X17627598Y-9754991D01*
X17665473Y-9871556D01*
X17665476Y-9871561D01*
X17760958Y-10036941D01*
X17760965Y-10036951D01*
X17888744Y-10178864D01*
X17888747Y-10178866D01*
X18043248Y-10291118D01*
X18217712Y-10368794D01*
X18404513Y-10408500D01*
X18595487Y-10408500D01*
X18782288Y-10368794D01*
X18956752Y-10291118D01*
X19111253Y-10178866D01*
X19239040Y-10036944D01*
X19334527Y-9871556D01*
X19393542Y-9689928D01*
X19413504Y-9500000D01*
X19393542Y-9310072D01*
X19334527Y-9128444D01*
X19296742Y-9063000D01*
X19280005Y-8994005D01*
X19296743Y-8936999D01*
X19300214Y-8930987D01*
X19334527Y-8871556D01*
X19393542Y-8689928D01*
X19413504Y-8500000D01*
X19393542Y-8310072D01*
X19334527Y-8128444D01*
X19296742Y-8063000D01*
X19280005Y-7994005D01*
X19296743Y-7936999D01*
X19307831Y-7917794D01*
X19334527Y-7871556D01*
X19393542Y-7689928D01*
X19413504Y-7500000D01*
X19393542Y-7310072D01*
X19334527Y-7128444D01*
X19296742Y-7063000D01*
X19280005Y-6994005D01*
X19296743Y-6936999D01*
X19334527Y-6871556D01*
X19393542Y-6689928D01*
X19413504Y-6500000D01*
X19393542Y-6310072D01*
X19334527Y-6128444D01*
X19274559Y-6024576D01*
X19257821Y-5955581D01*
X19281041Y-5888489D01*
X19332428Y-5846469D01*
X19456752Y-5791118D01*
X19611253Y-5678866D01*
X19647313Y-5638817D01*
X19739034Y-5536951D01*
X19739035Y-5536949D01*
X19739040Y-5536944D01*
X19834527Y-5371556D01*
X19893542Y-5189928D01*
X19913504Y-5000000D01*
X19893542Y-4810072D01*
X19834527Y-4628444D01*
X19739040Y-4463056D01*
X19739038Y-4463054D01*
X19739034Y-4463048D01*
X19611255Y-4321135D01*
X19456752Y-4208882D01*
X19282288Y-4131206D01*
X19095487Y-4091500D01*
X18904513Y-4091500D01*
X18717711Y-4131206D01*
X18626675Y-4171738D01*
X18551248Y-4205320D01*
X18480882Y-4214754D01*
X18448752Y-4205320D01*
X18282288Y-4131206D01*
X18095487Y-4091500D01*
X17904513Y-4091500D01*
X17717711Y-4131206D01*
X17626675Y-4171738D01*
X17551248Y-4205320D01*
X17480882Y-4214754D01*
X17448752Y-4205320D01*
X17282288Y-4131206D01*
X17095487Y-4091500D01*
X16931554Y-4091500D01*
X16863433Y-4071498D01*
X16816940Y-4017842D01*
X16806836Y-3947568D01*
X16822435Y-3902500D01*
X16823180Y-3901210D01*
X16834527Y-3881556D01*
X16893542Y-3699928D01*
X16913504Y-3510000D01*
X16905811Y-3436810D01*
X16918583Y-3366976D01*
X16967084Y-3315129D01*
X17035917Y-3297734D01*
X17082369Y-3308535D01*
X17217712Y-3368794D01*
X17404513Y-3408500D01*
X17595487Y-3408500D01*
X17782288Y-3368794D01*
X17956752Y-3291118D01*
X18111253Y-3178866D01*
X18156363Y-3128765D01*
X18216809Y-3091526D01*
X18287793Y-3092877D01*
X18343636Y-3128765D01*
X18388747Y-3178866D01*
X18543248Y-3291118D01*
X18717712Y-3368794D01*
X18904513Y-3408500D01*
X19095487Y-3408500D01*
X19282288Y-3368794D01*
X19456752Y-3291118D01*
X19611253Y-3178866D01*
X19647649Y-3138444D01*
X19739034Y-3036951D01*
X19739035Y-3036949D01*
X19739040Y-3036944D01*
X19834527Y-2871556D01*
X19893542Y-2689928D01*
X19913504Y-2500000D01*
X19893542Y-2310072D01*
X19834527Y-2128444D01*
X19796742Y-2063000D01*
X19780005Y-1994005D01*
X19796743Y-1936999D01*
X19834527Y-1871556D01*
X19893542Y-1689928D01*
X19913504Y-1500000D01*
X19893542Y-1310072D01*
X19834527Y-1128444D01*
X19796742Y-1063000D01*
X19780005Y-994005D01*
X19796743Y-936999D01*
X19834527Y-871556D01*
X19893542Y-689928D01*
X19913504Y-500000D01*
X19893542Y-310072D01*
X19834527Y-128444D01*
X19739040Y36944D01*
X19739038Y36946D01*
X19739034Y36952D01*
X19611255Y178865D01*
X19456752Y291118D01*
X19282288Y368794D01*
X19095487Y408500D01*
X18904513Y408500D01*
X18717711Y368794D01*
X18543247Y291118D01*
X18388746Y178866D01*
X18343636Y128766D01*
X18283190Y91527D01*
X18212206Y92879D01*
X18156364Y128766D01*
X18111253Y178866D01*
X17956752Y291118D01*
X17782288Y368794D01*
X17595487Y408500D01*
X17404513Y408500D01*
X17217711Y368794D01*
X17043247Y291118D01*
X16888744Y178865D01*
X16760965Y36952D01*
X16760958Y36942D01*
X16665476Y-128438D01*
X16665473Y-128445D01*
X16606457Y-310072D01*
X16586496Y-500000D01*
X16606457Y-689927D01*
X16621879Y-737390D01*
X16665473Y-871556D01*
X16665474Y-871559D01*
X16703257Y-937001D01*
X16719994Y-1005997D01*
X16703257Y-1062999D01*
X16665474Y-1128440D01*
X16665473Y-1128445D01*
X16606457Y-1310072D01*
X16586496Y-1500000D01*
X16606457Y-1689927D01*
X16636526Y-1782470D01*
X16665473Y-1871556D01*
X16665474Y-1871559D01*
X16703257Y-1937001D01*
X16719994Y-2005997D01*
X16703257Y-2062999D01*
X16665474Y-2128440D01*
X16665473Y-2128445D01*
X16606457Y-2310072D01*
X16586496Y-2500000D01*
X16594188Y-2573186D01*
X16581416Y-2643024D01*
X16532913Y-2694871D01*
X16464081Y-2712265D01*
X16417630Y-2701463D01*
X16282290Y-2641206D01*
X16095487Y-2601500D01*
X15904513Y-2601500D01*
X15717711Y-2641206D01*
X15543247Y-2718882D01*
X15388744Y-2831135D01*
X15260965Y-2973048D01*
X15260958Y-2973058D01*
X15165476Y-3138438D01*
X15165473Y-3138445D01*
X15106457Y-3320072D01*
X15086496Y-3510000D01*
X14663763Y-3510000D01*
X14661423Y-1125372D01*
X14649635Y-1016479D01*
X14638249Y-964261D01*
X14626718Y-929646D01*
X14603634Y-860344D01*
X14524616Y-737390D01*
X14524613Y-737385D01*
X14480347Y-686300D01*
X14478523Y-684077D01*
X14367664Y-588019D01*
X14367661Y-588017D01*
X14234712Y-527301D01*
X14166600Y-507302D01*
X14166593Y-507300D01*
X14137658Y-503140D01*
X14021923Y-486500D01*
X13126000Y-486500D01*
X13057879Y-466498D01*
X13011386Y-412842D01*
X13000000Y-360500D01*
X13000000Y1863500D01*
X13020002Y1931621D01*
X13073658Y1978114D01*
X13126000Y1989500D01*
X23428510Y1989500D01*
X23496631Y1969498D01*
G37*
G04 #@! TD.AperFunction*
G04 #@! TA.AperFunction,Conductor*
G36*
X12428621Y1969498D02*
G01*
X12475114Y1915842D01*
X12486500Y1863500D01*
X12486500Y-360500D01*
X12466498Y-428621D01*
X12412842Y-475114D01*
X12360500Y-486500D01*
X12051018Y-486500D01*
X11962295Y-496039D01*
X11941879Y-498234D01*
X11941876Y-498234D01*
X11941872Y-498235D01*
X11941868Y-498235D01*
X11889547Y-509617D01*
X11889526Y-509623D01*
X11785373Y-544288D01*
X11662413Y-623310D01*
X11611327Y-667576D01*
X11609108Y-669395D01*
X11513047Y-780258D01*
X11513045Y-780261D01*
X11452329Y-913210D01*
X11432330Y-981322D01*
X11432328Y-981329D01*
X11411528Y-1126003D01*
X11411528Y-2965629D01*
X11391526Y-3033750D01*
X11337870Y-3080243D01*
X11267596Y-3090347D01*
X11234280Y-3080736D01*
X11122290Y-3030875D01*
X10935487Y-2991169D01*
X10744513Y-2991169D01*
X10557711Y-3030875D01*
X10383247Y-3108551D01*
X10228744Y-3220804D01*
X10100965Y-3362717D01*
X10100958Y-3362727D01*
X10005476Y-3528107D01*
X10005473Y-3528114D01*
X9946457Y-3709741D01*
X9926496Y-3899669D01*
X9946457Y-4089596D01*
X9969835Y-4161544D01*
X10005473Y-4271225D01*
X10005476Y-4271230D01*
X10100958Y-4436610D01*
X10100965Y-4436620D01*
X10228744Y-4578533D01*
X10228747Y-4578535D01*
X10383248Y-4690787D01*
X10557712Y-4768463D01*
X10744513Y-4808169D01*
X10935487Y-4808169D01*
X11122288Y-4768463D01*
X11296752Y-4690787D01*
X11428859Y-4594805D01*
X11495722Y-4570949D01*
X11564874Y-4587029D01*
X11614354Y-4637942D01*
X11628124Y-4682636D01*
X11645837Y-4839848D01*
X11702290Y-5001182D01*
X11793231Y-5145912D01*
X11878224Y-5230905D01*
X11912250Y-5293217D01*
X11907185Y-5364032D01*
X11878224Y-5409095D01*
X11793232Y-5494086D01*
X11793231Y-5494087D01*
X11702290Y-5638817D01*
X11645837Y-5800151D01*
X11626701Y-5970000D01*
X11645837Y-6139848D01*
X11702290Y-6301182D01*
X11793231Y-6445912D01*
X11878224Y-6530905D01*
X11912250Y-6593217D01*
X11907185Y-6664032D01*
X11878224Y-6709095D01*
X11793232Y-6794086D01*
X11793231Y-6794087D01*
X11702290Y-6938817D01*
X11645837Y-7100151D01*
X11626701Y-7270000D01*
X11645837Y-7439847D01*
X11660609Y-7482065D01*
X11664227Y-7552969D01*
X11628937Y-7614574D01*
X11624193Y-7618901D01*
X11611329Y-7630048D01*
X11609109Y-7631869D01*
X11513047Y-7742732D01*
X11513045Y-7742735D01*
X11452329Y-7875684D01*
X11432330Y-7943796D01*
X11432328Y-7943803D01*
X11411528Y-8088477D01*
X11411528Y-10874009D01*
X11423263Y-10983155D01*
X11423263Y-10983159D01*
X11434645Y-11035480D01*
X11434651Y-11035501D01*
X11469316Y-11139654D01*
X11469318Y-11139657D01*
X11548336Y-11262612D01*
X11548339Y-11262615D01*
X11548343Y-11262621D01*
X11592603Y-11313700D01*
X11594424Y-11315920D01*
X11705286Y-11411980D01*
X11705289Y-11411982D01*
X11838238Y-11472698D01*
X11906359Y-11492700D01*
X12051028Y-11513500D01*
X12360500Y-11513500D01*
X12428621Y-11533502D01*
X12475114Y-11587158D01*
X12486500Y-11639500D01*
X12486500Y-15863500D01*
X12466498Y-15931621D01*
X12412842Y-15978114D01*
X12360500Y-15989500D01*
X136500Y-15989500D01*
X68379Y-15969498D01*
X21886Y-15915842D01*
X10500Y-15863500D01*
X10500Y-14361684D01*
X30502Y-14293563D01*
X84158Y-14247070D01*
X154432Y-14236966D01*
X219012Y-14266460D01*
X255428Y-14320067D01*
X266957Y-14353015D01*
X266958Y-14353017D01*
X266959Y-14353019D01*
X363887Y-14507279D01*
X363888Y-14507281D01*
X492718Y-14636111D01*
X492720Y-14636112D01*
X646981Y-14733041D01*
X646982Y-14733041D01*
X646985Y-14733043D01*
X818953Y-14793217D01*
X1000000Y-14813616D01*
X1181047Y-14793217D01*
X1353015Y-14733043D01*
X1507281Y-14636111D01*
X1636111Y-14507281D01*
X1733043Y-14353015D01*
X1793217Y-14181047D01*
X1813616Y-14000000D01*
X1793217Y-13818953D01*
X1733043Y-13646985D01*
X1733041Y-13646982D01*
X1733041Y-13646981D01*
X1636112Y-13492720D01*
X1636111Y-13492718D01*
X1507281Y-13363888D01*
X1507279Y-13363887D01*
X1353018Y-13266958D01*
X1353015Y-13266957D01*
X1181050Y-13206784D01*
X1181049Y-13206783D01*
X1181047Y-13206783D01*
X1000000Y-13186384D01*
X818953Y-13206783D01*
X818950Y-13206783D01*
X818949Y-13206784D01*
X646984Y-13266957D01*
X646981Y-13266958D01*
X492720Y-13363887D01*
X492718Y-13363888D01*
X363888Y-13492718D01*
X363887Y-13492720D01*
X266958Y-13646981D01*
X266957Y-13646984D01*
X255429Y-13679930D01*
X214051Y-13737622D01*
X148051Y-13763784D01*
X78383Y-13750111D01*
X27167Y-13700944D01*
X10500Y-13638315D01*
X10500Y-12361684D01*
X30502Y-12293563D01*
X84158Y-12247070D01*
X154432Y-12236966D01*
X219012Y-12266460D01*
X255428Y-12320067D01*
X266957Y-12353015D01*
X266958Y-12353017D01*
X266959Y-12353019D01*
X363887Y-12507279D01*
X363888Y-12507281D01*
X492718Y-12636111D01*
X492720Y-12636112D01*
X646981Y-12733041D01*
X646982Y-12733041D01*
X646985Y-12733043D01*
X818953Y-12793217D01*
X1000000Y-12813616D01*
X1181047Y-12793217D01*
X1353015Y-12733043D01*
X1507281Y-12636111D01*
X1636111Y-12507281D01*
X1733043Y-12353015D01*
X1793217Y-12181047D01*
X1813616Y-12000000D01*
X1793217Y-11818953D01*
X1733043Y-11646985D01*
X1733041Y-11646982D01*
X1733041Y-11646981D01*
X1636112Y-11492720D01*
X1636111Y-11492718D01*
X1507281Y-11363888D01*
X1507279Y-11363887D01*
X1353018Y-11266958D01*
X1353015Y-11266957D01*
X1181050Y-11206784D01*
X1181049Y-11206783D01*
X1181047Y-11206783D01*
X1000000Y-11186384D01*
X818953Y-11206783D01*
X818950Y-11206783D01*
X818949Y-11206784D01*
X646984Y-11266957D01*
X646981Y-11266958D01*
X492720Y-11363887D01*
X492718Y-11363888D01*
X363888Y-11492718D01*
X363887Y-11492720D01*
X266958Y-11646981D01*
X266957Y-11646984D01*
X255429Y-11679930D01*
X214051Y-11737622D01*
X148051Y-11763784D01*
X78383Y-11750111D01*
X27167Y-11700944D01*
X10500Y-11638315D01*
X10500Y-10361684D01*
X30502Y-10293563D01*
X84158Y-10247070D01*
X154432Y-10236966D01*
X219012Y-10266460D01*
X255428Y-10320067D01*
X266957Y-10353015D01*
X266958Y-10353017D01*
X266959Y-10353019D01*
X363887Y-10507279D01*
X363888Y-10507281D01*
X492718Y-10636111D01*
X492720Y-10636112D01*
X646981Y-10733041D01*
X646982Y-10733041D01*
X646985Y-10733043D01*
X818953Y-10793217D01*
X1000000Y-10813616D01*
X1181047Y-10793217D01*
X1353015Y-10733043D01*
X1507281Y-10636111D01*
X1636111Y-10507281D01*
X1733043Y-10353015D01*
X1793217Y-10181047D01*
X1813616Y-10000000D01*
X1793217Y-9818953D01*
X1733043Y-9646985D01*
X1733041Y-9646982D01*
X1733041Y-9646981D01*
X1636112Y-9492720D01*
X1636111Y-9492718D01*
X1507281Y-9363888D01*
X1507279Y-9363887D01*
X1353018Y-9266958D01*
X1353015Y-9266957D01*
X1181050Y-9206784D01*
X1181049Y-9206783D01*
X1181047Y-9206783D01*
X1000000Y-9186384D01*
X818953Y-9206783D01*
X818950Y-9206783D01*
X818949Y-9206784D01*
X646984Y-9266957D01*
X646981Y-9266958D01*
X492720Y-9363887D01*
X492718Y-9363888D01*
X363888Y-9492718D01*
X363887Y-9492720D01*
X266958Y-9646981D01*
X266957Y-9646984D01*
X255429Y-9679930D01*
X214051Y-9737622D01*
X148051Y-9763784D01*
X78383Y-9750111D01*
X27167Y-9700944D01*
X10500Y-9638315D01*
X10500Y-8361684D01*
X30502Y-8293563D01*
X84158Y-8247070D01*
X154432Y-8236966D01*
X219012Y-8266460D01*
X255428Y-8320067D01*
X266957Y-8353015D01*
X266958Y-8353017D01*
X266959Y-8353019D01*
X363887Y-8507279D01*
X363888Y-8507281D01*
X492718Y-8636111D01*
X492720Y-8636112D01*
X646981Y-8733041D01*
X646982Y-8733041D01*
X646985Y-8733043D01*
X818953Y-8793217D01*
X1000000Y-8813616D01*
X1181047Y-8793217D01*
X1353015Y-8733043D01*
X1507281Y-8636111D01*
X1636111Y-8507281D01*
X1733043Y-8353015D01*
X1793217Y-8181047D01*
X1813616Y-8000000D01*
X7086496Y-8000000D01*
X7106457Y-8189927D01*
X7131325Y-8266460D01*
X7165473Y-8371556D01*
X7165476Y-8371561D01*
X7260958Y-8536941D01*
X7260965Y-8536951D01*
X7388744Y-8678864D01*
X7388747Y-8678866D01*
X7543248Y-8791118D01*
X7717712Y-8868794D01*
X7904513Y-8908500D01*
X8095487Y-8908500D01*
X8282288Y-8868794D01*
X8456752Y-8791118D01*
X8611253Y-8678866D01*
X8656363Y-8628765D01*
X8716809Y-8591526D01*
X8787793Y-8592877D01*
X8843636Y-8628765D01*
X8888747Y-8678866D01*
X9043248Y-8791118D01*
X9217712Y-8868794D01*
X9404513Y-8908500D01*
X9595487Y-8908500D01*
X9782288Y-8868794D01*
X9956752Y-8791118D01*
X10111253Y-8678866D01*
X10239040Y-8536944D01*
X10334527Y-8371556D01*
X10393542Y-8189928D01*
X10413504Y-8000000D01*
X10393542Y-7810072D01*
X10334527Y-7628444D01*
X10239040Y-7463056D01*
X10239038Y-7463054D01*
X10239034Y-7463048D01*
X10111255Y-7321135D01*
X9956752Y-7208882D01*
X9782288Y-7131206D01*
X9595487Y-7091500D01*
X9404513Y-7091500D01*
X9217711Y-7131206D01*
X9043247Y-7208882D01*
X8888746Y-7321134D01*
X8843636Y-7371234D01*
X8783190Y-7408473D01*
X8712206Y-7407121D01*
X8656364Y-7371234D01*
X8611253Y-7321134D01*
X8456752Y-7208882D01*
X8282288Y-7131206D01*
X8095487Y-7091500D01*
X7904513Y-7091500D01*
X7717711Y-7131206D01*
X7543247Y-7208882D01*
X7388744Y-7321135D01*
X7260965Y-7463048D01*
X7260958Y-7463058D01*
X7165476Y-7628438D01*
X7165473Y-7628444D01*
X7164228Y-7632276D01*
X7106457Y-7810072D01*
X7086496Y-8000000D01*
X1813616Y-8000000D01*
X1793217Y-7818953D01*
X1733043Y-7646985D01*
X1733041Y-7646982D01*
X1733041Y-7646981D01*
X1636112Y-7492720D01*
X1636111Y-7492718D01*
X1507281Y-7363888D01*
X1507279Y-7363887D01*
X1353018Y-7266958D01*
X1353015Y-7266957D01*
X1181050Y-7206784D01*
X1181049Y-7206783D01*
X1181047Y-7206783D01*
X1000000Y-7186384D01*
X818953Y-7206783D01*
X818950Y-7206783D01*
X818949Y-7206784D01*
X646984Y-7266957D01*
X646981Y-7266958D01*
X492720Y-7363887D01*
X492718Y-7363888D01*
X363888Y-7492718D01*
X363887Y-7492720D01*
X266958Y-7646981D01*
X266957Y-7646984D01*
X255429Y-7679930D01*
X214051Y-7737622D01*
X148051Y-7763784D01*
X78383Y-7750111D01*
X27167Y-7700944D01*
X10500Y-7638315D01*
X10500Y-6361684D01*
X30502Y-6293563D01*
X84158Y-6247070D01*
X154432Y-6236966D01*
X219012Y-6266460D01*
X255428Y-6320067D01*
X266957Y-6353015D01*
X266958Y-6353017D01*
X266959Y-6353019D01*
X363887Y-6507279D01*
X363888Y-6507281D01*
X492718Y-6636111D01*
X492720Y-6636112D01*
X646981Y-6733041D01*
X646982Y-6733041D01*
X646985Y-6733043D01*
X818953Y-6793217D01*
X1000000Y-6813616D01*
X1181047Y-6793217D01*
X1353015Y-6733043D01*
X1507281Y-6636111D01*
X1636111Y-6507281D01*
X1733043Y-6353015D01*
X1793217Y-6181047D01*
X1813616Y-6000000D01*
X1793217Y-5818953D01*
X1733043Y-5646985D01*
X1733041Y-5646982D01*
X1733041Y-5646981D01*
X1636112Y-5492720D01*
X1636111Y-5492718D01*
X1507281Y-5363888D01*
X1507279Y-5363887D01*
X1353018Y-5266958D01*
X1353015Y-5266957D01*
X1181050Y-5206784D01*
X1181049Y-5206783D01*
X1181047Y-5206783D01*
X1000000Y-5186384D01*
X818953Y-5206783D01*
X818950Y-5206783D01*
X818949Y-5206784D01*
X646984Y-5266957D01*
X646981Y-5266958D01*
X492720Y-5363887D01*
X492718Y-5363888D01*
X363888Y-5492718D01*
X363887Y-5492720D01*
X266958Y-5646981D01*
X266957Y-5646984D01*
X255429Y-5679930D01*
X214051Y-5737622D01*
X148051Y-5763784D01*
X78383Y-5750111D01*
X27167Y-5700944D01*
X10500Y-5638315D01*
X10500Y-4361684D01*
X30502Y-4293563D01*
X84158Y-4247070D01*
X154432Y-4236966D01*
X219012Y-4266460D01*
X255428Y-4320067D01*
X266957Y-4353015D01*
X266958Y-4353017D01*
X266959Y-4353019D01*
X363887Y-4507279D01*
X363888Y-4507281D01*
X492718Y-4636111D01*
X492720Y-4636112D01*
X646981Y-4733041D01*
X646982Y-4733041D01*
X646985Y-4733043D01*
X818953Y-4793217D01*
X1000000Y-4813616D01*
X1181047Y-4793217D01*
X1353015Y-4733043D01*
X1507281Y-4636111D01*
X1636111Y-4507281D01*
X1733043Y-4353015D01*
X1793217Y-4181047D01*
X1800480Y-4116585D01*
X7115573Y-4116585D01*
X7135534Y-4306512D01*
X7158677Y-4377736D01*
X7194550Y-4488141D01*
X7201483Y-4500150D01*
X7290035Y-4653526D01*
X7290042Y-4653536D01*
X7417821Y-4795449D01*
X7442826Y-4813616D01*
X7572325Y-4907703D01*
X7746789Y-4985379D01*
X7933590Y-5025085D01*
X8124564Y-5025085D01*
X8311365Y-4985379D01*
X8485829Y-4907703D01*
X8640330Y-4795451D01*
X8642342Y-4793217D01*
X8768111Y-4653536D01*
X8768112Y-4653534D01*
X8768117Y-4653529D01*
X8863604Y-4488141D01*
X8922619Y-4306513D01*
X8942581Y-4116585D01*
X8922619Y-3926657D01*
X8863604Y-3745029D01*
X8768117Y-3579641D01*
X8768115Y-3579639D01*
X8768111Y-3579633D01*
X8640332Y-3437720D01*
X8485829Y-3325467D01*
X8311365Y-3247791D01*
X8124564Y-3208085D01*
X7933590Y-3208085D01*
X7746788Y-3247791D01*
X7572324Y-3325467D01*
X7417821Y-3437720D01*
X7290042Y-3579633D01*
X7290035Y-3579643D01*
X7194553Y-3745023D01*
X7194550Y-3745030D01*
X7135534Y-3926657D01*
X7115573Y-4116585D01*
X1800480Y-4116585D01*
X1813616Y-4000000D01*
X1793217Y-3818953D01*
X1733043Y-3646985D01*
X1733041Y-3646982D01*
X1733041Y-3646981D01*
X1636112Y-3492720D01*
X1636111Y-3492718D01*
X1507281Y-3363888D01*
X1507279Y-3363887D01*
X1353018Y-3266958D01*
X1353015Y-3266957D01*
X1181050Y-3206784D01*
X1181049Y-3206783D01*
X1181047Y-3206783D01*
X1000000Y-3186384D01*
X818953Y-3206783D01*
X818950Y-3206783D01*
X818949Y-3206784D01*
X646984Y-3266957D01*
X646981Y-3266958D01*
X492720Y-3363887D01*
X492718Y-3363888D01*
X363888Y-3492718D01*
X363887Y-3492720D01*
X266958Y-3646981D01*
X266957Y-3646984D01*
X255429Y-3679930D01*
X214051Y-3737622D01*
X148051Y-3763784D01*
X78383Y-3750111D01*
X27167Y-3700944D01*
X10500Y-3638315D01*
X10500Y-1000000D01*
X5171496Y-1000000D01*
X5191457Y-1189927D01*
X5197221Y-1207666D01*
X5250473Y-1371556D01*
X5250476Y-1371561D01*
X5345958Y-1536941D01*
X5345965Y-1536951D01*
X5473744Y-1678864D01*
X5473747Y-1678866D01*
X5628248Y-1791118D01*
X5802712Y-1868794D01*
X5989513Y-1908500D01*
X6180487Y-1908500D01*
X6367288Y-1868794D01*
X6541752Y-1791118D01*
X6696253Y-1678866D01*
X6824040Y-1536944D01*
X6919527Y-1371556D01*
X6978542Y-1189928D01*
X6998504Y-1000000D01*
X6978542Y-810072D01*
X6919527Y-628444D01*
X6824040Y-463056D01*
X6824038Y-463054D01*
X6824034Y-463048D01*
X6696255Y-321135D01*
X6541752Y-208882D01*
X6367288Y-131206D01*
X6180487Y-91500D01*
X5989513Y-91500D01*
X5802711Y-131206D01*
X5628247Y-208882D01*
X5473744Y-321135D01*
X5345965Y-463048D01*
X5345958Y-463058D01*
X5253438Y-623308D01*
X5250473Y-628444D01*
X5237758Y-667576D01*
X5191457Y-810072D01*
X5171496Y-1000000D01*
X10500Y-1000000D01*
X10500Y1863500D01*
X30502Y1931621D01*
X84158Y1978114D01*
X136500Y1989500D01*
X12360500Y1989500D01*
X12428621Y1969498D01*
G37*
G04 #@! TD.AperFunction*
G04 #@! TA.AperFunction,Conductor*
G36*
X13084032Y-7752815D02*
G01*
X13129095Y-7781776D01*
X13214087Y-7866768D01*
X13214089Y-7866769D01*
X13214091Y-7866771D01*
X13358817Y-7957709D01*
X13520150Y-8014162D01*
X13520149Y-8014162D01*
X13537348Y-8016099D01*
X13690000Y-8033299D01*
X13859850Y-8014162D01*
X13987143Y-7969619D01*
X14058046Y-7966000D01*
X14119651Y-8001289D01*
X14152398Y-8064282D01*
X14154757Y-8088425D01*
X14156223Y-9581748D01*
X14150056Y-9620808D01*
X14106457Y-9754990D01*
X14086496Y-9944919D01*
X14106457Y-10134847D01*
X14150771Y-10271229D01*
X14156938Y-10310041D01*
X14157492Y-10873876D01*
X14137557Y-10942017D01*
X14083947Y-10988562D01*
X14031492Y-11000000D01*
X12051028Y-11000000D01*
X11982907Y-10979998D01*
X11936414Y-10926342D01*
X11925028Y-10874000D01*
X11925028Y-8088474D01*
X11945030Y-8020353D01*
X11998686Y-7973860D01*
X12068960Y-7963756D01*
X12092640Y-7969544D01*
X12220150Y-8014162D01*
X12390000Y-8033299D01*
X12559850Y-8014162D01*
X12721183Y-7957709D01*
X12865909Y-7866771D01*
X12865913Y-7866767D01*
X12950905Y-7781776D01*
X13013217Y-7747750D01*
X13084032Y-7752815D01*
G37*
G04 #@! TD.AperFunction*
G04 #@! TA.AperFunction,Conductor*
G36*
X14090044Y-1020002D02*
G01*
X14136537Y-1073658D01*
X14147923Y-1125876D01*
X14150596Y-3849870D01*
X14130661Y-3918011D01*
X14077051Y-3964556D01*
X14006787Y-3974729D01*
X13982981Y-3968923D01*
X13859847Y-3925837D01*
X13859850Y-3925837D01*
X13690000Y-3906701D01*
X13520151Y-3925837D01*
X13358817Y-3982290D01*
X13214087Y-4073231D01*
X13214086Y-4073232D01*
X13129095Y-4158224D01*
X13066783Y-4192250D01*
X12995968Y-4187185D01*
X12950905Y-4158224D01*
X12865912Y-4073231D01*
X12721182Y-3982290D01*
X12596847Y-3938784D01*
X12559850Y-3925838D01*
X12559848Y-3925837D01*
X12559850Y-3925837D01*
X12390000Y-3906701D01*
X12220151Y-3925837D01*
X12092643Y-3970454D01*
X12021738Y-3974073D01*
X11960133Y-3938784D01*
X11927387Y-3875791D01*
X11925028Y-3851525D01*
X11925028Y-1126000D01*
X11945030Y-1057879D01*
X11998686Y-1011386D01*
X12051028Y-1000000D01*
X14021923Y-1000000D01*
X14090044Y-1020002D01*
G37*
G04 #@! TD.AperFunction*
D13*
X0Y-16000000D02*
X27000000Y-16000000D01*
X27000000Y2000000D02*
X0Y2000000D01*
X27000000Y-16000000D02*
X27000000Y2000000D01*
X0Y2000000D02*
X0Y-16000000D01*
M02*
