G04 #@! TF.GenerationSoftware,KiCad,Pcbnew,8.0.3*
G04 #@! TF.CreationDate,2024-08-02T19:38:21+02:00*
G04 #@! TF.ProjectId,powermod,706f7765-726d-46f6-942e-6b696361645f,rev?*
G04 #@! TF.SameCoordinates,PXf42400PY2719c40*
G04 #@! TF.FileFunction,Copper,L4,Bot*
G04 #@! TF.FilePolarity,Positive*
%FSLAX46Y46*%
G04 Gerber Fmt 4.6, Leading zero omitted, Abs format (unit mm)*
G04 Created by KiCad (PCBNEW 8.0.3) date 2024-08-02 19:38:21*
%MOMM*%
%LPD*%
G01*
G04 APERTURE LIST*
G04 #@! TA.AperFunction,HeatsinkPad*
%ADD10C,0.500000*%
G04 #@! TD*
G04 #@! TA.AperFunction,HeatsinkPad*
%ADD11R,1.800000X3.100000*%
G04 #@! TD*
G04 #@! TA.AperFunction,SMDPad,CuDef*
%ADD12R,2.580000X1.000000*%
G04 #@! TD*
G04 #@! TA.AperFunction,ViaPad*
%ADD13C,0.800000*%
G04 #@! TD*
G04 #@! TA.AperFunction,ViaPad*
%ADD14C,0.600000*%
G04 #@! TD*
G04 #@! TA.AperFunction,Conductor*
%ADD15C,0.300000*%
G04 #@! TD*
G04 #@! TA.AperFunction,Profile*
%ADD16C,0.120000*%
G04 #@! TD*
G04 APERTURE END LIST*
D10*
X12390000Y-4670000D03*
X12390000Y-5970000D03*
X12390000Y-7270000D03*
D11*
X13040000Y-5970000D03*
D10*
X13690000Y-4670000D03*
X13690000Y-5970000D03*
X13690000Y-7270000D03*
D12*
X25085000Y-1000000D03*
X20915000Y-1000000D03*
X25085000Y-3000000D03*
X20915000Y-3000000D03*
X25085000Y-5000000D03*
X20915000Y-5000000D03*
X25085000Y-7000000D03*
X20915000Y-7000000D03*
X25085000Y-9000000D03*
X20915000Y-9000000D03*
X25085000Y-11000000D03*
X20915000Y-11000000D03*
X25085000Y-13000000D03*
X20915000Y-13000000D03*
X6085000Y-1000000D03*
X1915000Y-1000000D03*
X6085000Y-3000000D03*
X1915000Y-3000000D03*
X6085000Y-5000000D03*
X1915000Y-5000000D03*
X6085000Y-7000000D03*
X1915000Y-7000000D03*
X6085000Y-9000000D03*
X1915000Y-9000000D03*
X6085000Y-11000000D03*
X1915000Y-11000000D03*
X6085000Y-13000000D03*
X1915000Y-13000000D03*
D13*
X15000000Y-12000000D03*
X16000000Y-12000000D03*
X17000000Y-12000000D03*
X8000000Y-8000000D03*
X26000000Y-12000000D03*
X26000000Y-10000000D03*
X26000000Y-8000000D03*
X26000000Y-6000000D03*
X17000000Y-6000003D03*
X16000000Y-3510000D03*
X16294122Y-7546240D03*
X15000000Y-9944919D03*
X10840000Y-3899669D03*
X9500000Y-8000000D03*
X8029077Y-4116585D03*
X6085000Y-1000000D03*
X7036256Y-3996956D03*
X22000000Y-6500000D03*
X22000000Y-7500000D03*
X22000000Y-8500000D03*
X22000000Y-9500000D03*
X19000000Y-5000000D03*
X18000000Y-5000000D03*
X17000000Y-5000000D03*
X17500000Y-1500000D03*
X19000000Y-1500000D03*
X19000000Y-500000D03*
X19000000Y-2500000D03*
X17500000Y-2500000D03*
X17500000Y-500000D03*
X18500000Y-9500000D03*
X18500000Y-8500000D03*
X18500000Y-7500000D03*
X18500000Y-6500000D03*
X26000000Y1000000D03*
X25000000Y1000000D03*
X24000000Y1000000D03*
X26000000Y-4000000D03*
X25000000Y-4000000D03*
X24000000Y-4000000D03*
X13500000Y-8500000D03*
X13500000Y-9500000D03*
X13500000Y-10500000D03*
X12500000Y-10500000D03*
X12500000Y-9500000D03*
X12500000Y-8500000D03*
X13500000Y-3500000D03*
X13500000Y-2500000D03*
X13500000Y-1500000D03*
X12500000Y-3500000D03*
X12500000Y-2500000D03*
X12500000Y-1500000D03*
D14*
X1000000Y-4000000D03*
X1000000Y-6000000D03*
X1000000Y-10000000D03*
X1000000Y-12000000D03*
X1000000Y-8000000D03*
X1000000Y-14000000D03*
D15*
X6085000Y-1000000D02*
X6575000Y-1000000D01*
X6575000Y-1000000D02*
X8029077Y-2454077D01*
X8029077Y-2454077D02*
X8029077Y-4116585D01*
X15000000Y-9944919D02*
X16294122Y-8650797D01*
X16294122Y-8650797D02*
X16294122Y-7546240D01*
X16939342Y-6000003D02*
X17000000Y-6000003D01*
X16000000Y-3510000D02*
X16000000Y-5060661D01*
X16000000Y-5060661D02*
X16939342Y-6000003D01*
X9500000Y-5239669D02*
X10840000Y-3899669D01*
X9500000Y-8000000D02*
X9500000Y-5239669D01*
G04 #@! TA.AperFunction,Conductor*
G36*
X26931621Y1969498D02*
G01*
X26978114Y1915842D01*
X26989500Y1863500D01*
X26989500Y-93785D01*
X26969498Y-161906D01*
X26915842Y-208399D01*
X26845568Y-218503D01*
X26780988Y-189009D01*
X26762632Y-169294D01*
X26738261Y-136738D01*
X26621207Y-49112D01*
X26621202Y-49110D01*
X26484204Y1989D01*
X26484196Y1991D01*
X26423649Y8500D01*
X26423638Y8500D01*
X23746362Y8500D01*
X23746350Y8500D01*
X23685803Y1991D01*
X23685795Y1989D01*
X23548797Y-49110D01*
X23548792Y-49112D01*
X23431738Y-136738D01*
X23344112Y-253792D01*
X23344110Y-253797D01*
X23293011Y-390795D01*
X23293009Y-390803D01*
X23286500Y-451350D01*
X23286500Y-1548649D01*
X23293009Y-1609196D01*
X23293011Y-1609204D01*
X23344110Y-1746202D01*
X23344112Y-1746207D01*
X23431738Y-1863261D01*
X23548792Y-1950887D01*
X23548794Y-1950888D01*
X23548796Y-1950889D01*
X23607875Y-1972924D01*
X23685795Y-2001988D01*
X23685803Y-2001990D01*
X23746350Y-2008499D01*
X23746355Y-2008499D01*
X23746362Y-2008500D01*
X23746368Y-2008500D01*
X26423632Y-2008500D01*
X26423638Y-2008500D01*
X26423645Y-2008499D01*
X26423649Y-2008499D01*
X26484196Y-2001990D01*
X26484199Y-2001989D01*
X26484201Y-2001989D01*
X26494269Y-1998234D01*
X26525728Y-1986500D01*
X26621204Y-1950889D01*
X26738261Y-1863261D01*
X26762631Y-1830705D01*
X26819467Y-1788159D01*
X26890282Y-1783093D01*
X26952595Y-1817118D01*
X26986620Y-1879430D01*
X26989500Y-1906214D01*
X26989500Y-15863500D01*
X26969498Y-15931621D01*
X26915842Y-15978114D01*
X26863500Y-15989500D01*
X136500Y-15989500D01*
X68379Y-15969498D01*
X21886Y-15915842D01*
X10500Y-15863500D01*
X10500Y-2626003D01*
X3986500Y-2626003D01*
X3986500Y-13374009D01*
X3998235Y-13483155D01*
X3998235Y-13483159D01*
X4009617Y-13535480D01*
X4009623Y-13535501D01*
X4044288Y-13639654D01*
X4044290Y-13639657D01*
X4123308Y-13762612D01*
X4123311Y-13762615D01*
X4123315Y-13762621D01*
X4167575Y-13813700D01*
X4169396Y-13815920D01*
X4280258Y-13911980D01*
X4280261Y-13911982D01*
X4413210Y-13972698D01*
X4481331Y-13992700D01*
X4626000Y-14013500D01*
X4626004Y-14013500D01*
X7373994Y-14013500D01*
X7374000Y-14013500D01*
X7414060Y-14009193D01*
X7420776Y-14008653D01*
X7423625Y-14008500D01*
X7423638Y-14008500D01*
X7484201Y-14001989D01*
X7484213Y-14001984D01*
X7491888Y-14000171D01*
X7491888Y-14000173D01*
X7495939Y-13998983D01*
X7499241Y-13998264D01*
X7535491Y-13990380D01*
X7639657Y-13955710D01*
X7762612Y-13876692D01*
X7813721Y-13832405D01*
X7815924Y-13830598D01*
X7911980Y-13719741D01*
X7911982Y-13719739D01*
X7972698Y-13586790D01*
X7992700Y-13518669D01*
X8013500Y-13374000D01*
X8013500Y-9944919D01*
X14086496Y-9944919D01*
X14106457Y-10134846D01*
X14136526Y-10227389D01*
X14165473Y-10316475D01*
X14165476Y-10316480D01*
X14260958Y-10481860D01*
X14260965Y-10481870D01*
X14388744Y-10623783D01*
X14388747Y-10623785D01*
X14543248Y-10736037D01*
X14717712Y-10813713D01*
X14884722Y-10849212D01*
X14947195Y-10882940D01*
X14981517Y-10945090D01*
X14976789Y-11015929D01*
X14934513Y-11072967D01*
X14884723Y-11095705D01*
X14717715Y-11131204D01*
X14543247Y-11208882D01*
X14388744Y-11321135D01*
X14260965Y-11463048D01*
X14260958Y-11463058D01*
X14165476Y-11628438D01*
X14165473Y-11628445D01*
X14106457Y-11810072D01*
X14086496Y-12000000D01*
X14106457Y-12189927D01*
X14136526Y-12282470D01*
X14165473Y-12371556D01*
X14165476Y-12371561D01*
X14260958Y-12536941D01*
X14260965Y-12536951D01*
X14388744Y-12678864D01*
X14388747Y-12678866D01*
X14543248Y-12791118D01*
X14717712Y-12868794D01*
X14904513Y-12908500D01*
X15095487Y-12908500D01*
X15282288Y-12868794D01*
X15448755Y-12794678D01*
X15519118Y-12785245D01*
X15551240Y-12794676D01*
X15717712Y-12868794D01*
X15904513Y-12908500D01*
X16095487Y-12908500D01*
X16282288Y-12868794D01*
X16448755Y-12794678D01*
X16519118Y-12785245D01*
X16551240Y-12794676D01*
X16717712Y-12868794D01*
X16904513Y-12908500D01*
X17095487Y-12908500D01*
X17282288Y-12868794D01*
X17456752Y-12791118D01*
X17611253Y-12678866D01*
X17739040Y-12536944D01*
X17834527Y-12371556D01*
X17893542Y-12189928D01*
X17913504Y-12000000D01*
X17893542Y-11810072D01*
X17834527Y-11628444D01*
X17739040Y-11463056D01*
X17739038Y-11463054D01*
X17739034Y-11463048D01*
X17611255Y-11321135D01*
X17456752Y-11208882D01*
X17282288Y-11131206D01*
X17095487Y-11091500D01*
X16904513Y-11091500D01*
X16717711Y-11131206D01*
X16612231Y-11178168D01*
X16551248Y-11205320D01*
X16480882Y-11214754D01*
X16448752Y-11205320D01*
X16282288Y-11131206D01*
X16095487Y-11091500D01*
X15904513Y-11091500D01*
X15717711Y-11131206D01*
X15612231Y-11178168D01*
X15551248Y-11205320D01*
X15480882Y-11214754D01*
X15448752Y-11205320D01*
X15282288Y-11131206D01*
X15282287Y-11131205D01*
X15282283Y-11131204D01*
X15115277Y-11095705D01*
X15052803Y-11061977D01*
X15018482Y-10999827D01*
X15023210Y-10928988D01*
X15065486Y-10871951D01*
X15115275Y-10849212D01*
X15282288Y-10813713D01*
X15456752Y-10736037D01*
X15611253Y-10623785D01*
X15739040Y-10481863D01*
X15834527Y-10316475D01*
X15893542Y-10134847D01*
X15906754Y-10009134D01*
X15933767Y-9943478D01*
X15942960Y-9933217D01*
X16805613Y-9070566D01*
X16877677Y-8962714D01*
X16927316Y-8842874D01*
X16937611Y-8791118D01*
X16952622Y-8715654D01*
X16952622Y-8220999D01*
X16972624Y-8152878D01*
X16984987Y-8136687D01*
X17033160Y-8083186D01*
X17033159Y-8083186D01*
X17033162Y-8083184D01*
X17128649Y-7917796D01*
X17187664Y-7736168D01*
X17207626Y-7546240D01*
X17187664Y-7356312D01*
X17128649Y-7174684D01*
X17101950Y-7128440D01*
X17074855Y-7081509D01*
X17058117Y-7012513D01*
X17081338Y-6945421D01*
X17137145Y-6901534D01*
X17157771Y-6895263D01*
X17282288Y-6868797D01*
X17456752Y-6791121D01*
X17464163Y-6785736D01*
X17531027Y-6761877D01*
X17600180Y-6777955D01*
X17649662Y-6828867D01*
X17658056Y-6848730D01*
X17665473Y-6871556D01*
X17665474Y-6871559D01*
X17703257Y-6937001D01*
X17719994Y-7005997D01*
X17703257Y-7062999D01*
X17665474Y-7128440D01*
X17665473Y-7128445D01*
X17606457Y-7310072D01*
X17586496Y-7500000D01*
X17606457Y-7689927D01*
X17631241Y-7766202D01*
X17665473Y-7871556D01*
X17665474Y-7871559D01*
X17703257Y-7937001D01*
X17719994Y-8005997D01*
X17703257Y-8062999D01*
X17665474Y-8128440D01*
X17665473Y-8128445D01*
X17606457Y-8310072D01*
X17586496Y-8500000D01*
X17606457Y-8689927D01*
X17619192Y-8729119D01*
X17665473Y-8871556D01*
X17665474Y-8871559D01*
X17703257Y-8937001D01*
X17719994Y-9005997D01*
X17703257Y-9062999D01*
X17665474Y-9128440D01*
X17665473Y-9128445D01*
X17606457Y-9310072D01*
X17586496Y-9500000D01*
X17606457Y-9689927D01*
X17627598Y-9754991D01*
X17665473Y-9871556D01*
X17665476Y-9871561D01*
X17760958Y-10036941D01*
X17760965Y-10036951D01*
X17888744Y-10178864D01*
X17888747Y-10178866D01*
X18043248Y-10291118D01*
X18217712Y-10368794D01*
X18404513Y-10408500D01*
X18595487Y-10408500D01*
X18782288Y-10368794D01*
X18782288Y-10368793D01*
X18782292Y-10368793D01*
X18809251Y-10356790D01*
X18879617Y-10347355D01*
X18943915Y-10377461D01*
X18981728Y-10437549D01*
X18986500Y-10471896D01*
X18986500Y-13374009D01*
X18998235Y-13483155D01*
X18998235Y-13483159D01*
X19009617Y-13535480D01*
X19009623Y-13535501D01*
X19044288Y-13639654D01*
X19044290Y-13639657D01*
X19123308Y-13762612D01*
X19123311Y-13762615D01*
X19123315Y-13762621D01*
X19167575Y-13813700D01*
X19169396Y-13815920D01*
X19280258Y-13911980D01*
X19280261Y-13911982D01*
X19413210Y-13972698D01*
X19481331Y-13992700D01*
X19481334Y-13992700D01*
X19481336Y-13992701D01*
X19483473Y-13993008D01*
X19509589Y-13999672D01*
X19515799Y-14001989D01*
X19576362Y-14008500D01*
X19582209Y-14008500D01*
X19600139Y-14009782D01*
X19615923Y-14012051D01*
X19626000Y-14013500D01*
X19626001Y-14013500D01*
X22373994Y-14013500D01*
X22374000Y-14013500D01*
X22483149Y-14001766D01*
X22483158Y-14001764D01*
X22483159Y-14001764D01*
X22499303Y-13998251D01*
X22535491Y-13990380D01*
X22639657Y-13955710D01*
X22762612Y-13876692D01*
X22813721Y-13832405D01*
X22815924Y-13830598D01*
X22911980Y-13719741D01*
X22911982Y-13719739D01*
X22972698Y-13586790D01*
X22992700Y-13518669D01*
X23013500Y-13374000D01*
X23013500Y-2626000D01*
X23001766Y-2516851D01*
X22998100Y-2500000D01*
X22990382Y-2464519D01*
X22990380Y-2464509D01*
X22955710Y-2360343D01*
X22876692Y-2237388D01*
X22832420Y-2186296D01*
X22830600Y-2184077D01*
X22719740Y-2088019D01*
X22719739Y-2088018D01*
X22623692Y-2044155D01*
X22570039Y-1997663D01*
X22550037Y-1929542D01*
X22570039Y-1861421D01*
X22575169Y-1854033D01*
X22655887Y-1746207D01*
X22655887Y-1746206D01*
X22655889Y-1746204D01*
X22706989Y-1609201D01*
X22713500Y-1548638D01*
X22713500Y-451362D01*
X22713499Y-451350D01*
X22706990Y-390803D01*
X22706988Y-390795D01*
X22655889Y-253797D01*
X22655887Y-253792D01*
X22568261Y-136738D01*
X22451207Y-49112D01*
X22451202Y-49110D01*
X22314204Y1989D01*
X22314196Y1991D01*
X22253649Y8500D01*
X22253638Y8500D01*
X19820750Y8500D01*
X19752629Y28502D01*
X19727114Y50190D01*
X19611255Y178865D01*
X19456752Y291118D01*
X19282288Y368794D01*
X19095487Y408500D01*
X18904513Y408500D01*
X18717711Y368794D01*
X18543247Y291118D01*
X18388746Y178866D01*
X18343636Y128766D01*
X18283190Y91527D01*
X18212206Y92879D01*
X18156364Y128766D01*
X18111253Y178866D01*
X17956752Y291118D01*
X17782288Y368794D01*
X17595487Y408500D01*
X17404513Y408500D01*
X17217711Y368794D01*
X17043247Y291118D01*
X16888744Y178865D01*
X16760965Y36952D01*
X16760958Y36942D01*
X16711275Y-49112D01*
X16665473Y-128444D01*
X16652200Y-169294D01*
X16606457Y-310072D01*
X16586496Y-500000D01*
X16606457Y-689927D01*
X16636526Y-782470D01*
X16665473Y-871556D01*
X16665474Y-871559D01*
X16703257Y-937001D01*
X16719994Y-1005997D01*
X16703257Y-1062999D01*
X16665474Y-1128440D01*
X16665473Y-1128445D01*
X16606457Y-1310072D01*
X16586496Y-1500000D01*
X16606457Y-1689927D01*
X16624743Y-1746204D01*
X16665473Y-1871556D01*
X16665474Y-1871559D01*
X16703257Y-1937001D01*
X16719994Y-2005997D01*
X16703257Y-2062999D01*
X16665474Y-2128440D01*
X16665473Y-2128443D01*
X16665473Y-2128444D01*
X16652758Y-2167576D01*
X16606457Y-2310072D01*
X16586496Y-2500000D01*
X16594188Y-2573186D01*
X16581416Y-2643024D01*
X16532913Y-2694871D01*
X16464081Y-2712265D01*
X16417630Y-2701463D01*
X16282290Y-2641206D01*
X16095487Y-2601500D01*
X15904513Y-2601500D01*
X15717711Y-2641206D01*
X15543247Y-2718882D01*
X15388744Y-2831135D01*
X15260965Y-2973048D01*
X15260958Y-2973058D01*
X15165476Y-3138438D01*
X15165473Y-3138445D01*
X15106457Y-3320072D01*
X15086496Y-3510000D01*
X15106457Y-3699927D01*
X15136526Y-3792470D01*
X15165473Y-3881556D01*
X15165476Y-3881561D01*
X15260961Y-4046946D01*
X15309135Y-4100447D01*
X15339853Y-4164454D01*
X15341500Y-4184759D01*
X15341500Y-5125521D01*
X15351305Y-5174812D01*
X15366806Y-5252738D01*
X15416445Y-5372578D01*
X15488509Y-5480430D01*
X15488513Y-5480434D01*
X16064154Y-6056075D01*
X16098180Y-6118387D01*
X16100368Y-6131994D01*
X16106458Y-6189931D01*
X16165473Y-6371559D01*
X16165473Y-6371560D01*
X16165474Y-6371561D01*
X16219267Y-6464734D01*
X16236004Y-6533729D01*
X16212783Y-6600821D01*
X16156976Y-6644708D01*
X16136344Y-6650979D01*
X16011838Y-6677444D01*
X15837369Y-6755122D01*
X15682866Y-6867375D01*
X15555087Y-7009288D01*
X15555080Y-7009298D01*
X15486291Y-7128445D01*
X15459595Y-7174684D01*
X15445121Y-7219226D01*
X15400579Y-7356312D01*
X15380618Y-7546240D01*
X15400579Y-7736167D01*
X15410339Y-7766204D01*
X15459595Y-7917796D01*
X15459598Y-7917801D01*
X15555083Y-8083186D01*
X15603257Y-8136687D01*
X15633975Y-8200694D01*
X15635622Y-8220999D01*
X15635622Y-8325847D01*
X15615620Y-8393968D01*
X15598717Y-8414942D01*
X15014145Y-8999514D01*
X14951833Y-9033540D01*
X14925050Y-9036419D01*
X14904513Y-9036419D01*
X14717711Y-9076125D01*
X14543247Y-9153801D01*
X14388744Y-9266054D01*
X14260965Y-9407967D01*
X14260958Y-9407977D01*
X14165476Y-9573357D01*
X14165473Y-9573364D01*
X14106457Y-9754991D01*
X14086496Y-9944919D01*
X8013500Y-9944919D01*
X8013500Y-8823896D01*
X8004678Y-8729119D01*
X7996093Y-8683405D01*
X7969926Y-8591878D01*
X7898056Y-8464613D01*
X7895843Y-8460694D01*
X7896999Y-8460040D01*
X7879099Y-8410423D01*
X7876990Y-8390804D01*
X7876989Y-8390802D01*
X7876989Y-8390799D01*
X7825889Y-8253796D01*
X7825886Y-8253792D01*
X7825886Y-8253791D01*
X7738261Y-8136738D01*
X7690343Y-8100868D01*
X7647796Y-8044033D01*
X7644647Y-8000000D01*
X8586496Y-8000000D01*
X8606457Y-8189927D01*
X8627210Y-8253796D01*
X8665473Y-8371556D01*
X8665476Y-8371561D01*
X8760958Y-8536941D01*
X8760965Y-8536951D01*
X8888744Y-8678864D01*
X8888747Y-8678866D01*
X9043248Y-8791118D01*
X9217712Y-8868794D01*
X9404513Y-8908500D01*
X9595487Y-8908500D01*
X9782288Y-8868794D01*
X9956752Y-8791118D01*
X10111253Y-8678866D01*
X10189574Y-8591882D01*
X10239034Y-8536951D01*
X10239035Y-8536949D01*
X10239040Y-8536944D01*
X10334527Y-8371556D01*
X10393542Y-8189928D01*
X10413504Y-8000000D01*
X10393542Y-7810072D01*
X10334527Y-7628444D01*
X10239040Y-7463056D01*
X10239038Y-7463054D01*
X10239034Y-7463048D01*
X10190864Y-7409550D01*
X10160146Y-7345543D01*
X10158500Y-7325240D01*
X10158500Y-5564619D01*
X10178502Y-5496498D01*
X10195405Y-5475524D01*
X10825855Y-4845074D01*
X10888167Y-4811048D01*
X10914950Y-4808169D01*
X10935487Y-4808169D01*
X11122288Y-4768463D01*
X11296752Y-4690787D01*
X11428859Y-4594805D01*
X11495722Y-4570949D01*
X11564874Y-4587029D01*
X11614354Y-4637942D01*
X11628123Y-4682631D01*
X11630707Y-4705558D01*
X11631500Y-4719670D01*
X11631500Y-5920328D01*
X11630708Y-5934434D01*
X11626701Y-5969999D01*
X11630708Y-6005563D01*
X11631500Y-6019670D01*
X11631500Y-7220328D01*
X11630708Y-7234434D01*
X11626701Y-7269999D01*
X11630708Y-7305563D01*
X11631500Y-7319670D01*
X11631500Y-7568649D01*
X11638009Y-7629196D01*
X11638011Y-7629204D01*
X11689110Y-7766202D01*
X11689112Y-7766207D01*
X11776738Y-7883261D01*
X11893792Y-7970887D01*
X11893794Y-7970888D01*
X11893796Y-7970889D01*
X11900038Y-7973217D01*
X12030795Y-8021988D01*
X12030803Y-8021990D01*
X12091350Y-8028499D01*
X12091355Y-8028499D01*
X12091362Y-8028500D01*
X12340330Y-8028500D01*
X12354435Y-8029291D01*
X12390000Y-8033299D01*
X12425564Y-8029291D01*
X12439670Y-8028500D01*
X13640330Y-8028500D01*
X13654435Y-8029291D01*
X13690000Y-8033299D01*
X13725564Y-8029291D01*
X13739670Y-8028500D01*
X13988632Y-8028500D01*
X13988638Y-8028500D01*
X13988645Y-8028499D01*
X13988649Y-8028499D01*
X14049196Y-8021990D01*
X14049199Y-8021989D01*
X14049201Y-8021989D01*
X14186204Y-7970889D01*
X14257131Y-7917794D01*
X14303261Y-7883261D01*
X14390887Y-7766207D01*
X14390887Y-7766206D01*
X14390889Y-7766204D01*
X14441989Y-7629201D01*
X14442071Y-7628445D01*
X14448499Y-7568649D01*
X14448500Y-7568632D01*
X14448500Y-7319670D01*
X14449292Y-7305563D01*
X14453299Y-7270000D01*
X14449292Y-7234434D01*
X14448500Y-7220328D01*
X14448500Y-6019670D01*
X14449292Y-6005563D01*
X14453299Y-5970000D01*
X14449292Y-5934434D01*
X14448500Y-5920328D01*
X14448500Y-4719670D01*
X14449292Y-4705563D01*
X14449293Y-4705558D01*
X14453299Y-4670000D01*
X14449292Y-4634434D01*
X14448500Y-4620328D01*
X14448500Y-4371367D01*
X14448499Y-4371350D01*
X14441990Y-4310803D01*
X14441988Y-4310795D01*
X14406166Y-4214754D01*
X14390889Y-4173796D01*
X14390888Y-4173794D01*
X14390887Y-4173792D01*
X14303261Y-4056738D01*
X14186207Y-3969112D01*
X14186202Y-3969110D01*
X14049204Y-3918011D01*
X14049196Y-3918009D01*
X13988649Y-3911500D01*
X13988638Y-3911500D01*
X13739670Y-3911500D01*
X13725564Y-3910708D01*
X13690000Y-3906701D01*
X13654435Y-3910708D01*
X13640330Y-3911500D01*
X12439670Y-3911500D01*
X12425564Y-3910708D01*
X12390000Y-3906701D01*
X12354435Y-3910708D01*
X12340330Y-3911500D01*
X12091350Y-3911500D01*
X12030803Y-3918009D01*
X12030795Y-3918011D01*
X11918166Y-3960021D01*
X11847350Y-3965087D01*
X11785038Y-3931062D01*
X11751013Y-3868750D01*
X11748823Y-3855136D01*
X11746754Y-3835453D01*
X11733542Y-3709741D01*
X11674527Y-3528113D01*
X11579040Y-3362725D01*
X11579038Y-3362723D01*
X11579034Y-3362717D01*
X11451255Y-3220804D01*
X11296752Y-3108551D01*
X11122288Y-3030875D01*
X10935487Y-2991169D01*
X10744513Y-2991169D01*
X10557711Y-3030875D01*
X10383247Y-3108551D01*
X10228744Y-3220804D01*
X10100965Y-3362717D01*
X10100958Y-3362727D01*
X10005476Y-3528107D01*
X10005473Y-3528114D01*
X9946459Y-3709736D01*
X9933245Y-3835453D01*
X9906231Y-3901109D01*
X9897031Y-3911376D01*
X8988508Y-4819900D01*
X8988506Y-4819903D01*
X8955981Y-4868582D01*
X8955980Y-4868584D01*
X8916445Y-4927752D01*
X8866807Y-5047588D01*
X8866806Y-5047591D01*
X8841500Y-5174808D01*
X8841500Y-7325240D01*
X8821498Y-7393361D01*
X8809136Y-7409550D01*
X8760965Y-7463048D01*
X8760958Y-7463058D01*
X8665476Y-7628438D01*
X8665473Y-7628445D01*
X8606457Y-7810072D01*
X8586496Y-8000000D01*
X7644647Y-8000000D01*
X7642731Y-7973217D01*
X7676756Y-7910905D01*
X7690343Y-7899132D01*
X7738261Y-7863261D01*
X7825886Y-7746208D01*
X7825885Y-7746208D01*
X7825889Y-7746204D01*
X7876989Y-7609201D01*
X7878452Y-7595582D01*
X7904505Y-7531395D01*
X7911982Y-7521841D01*
X7972698Y-7388892D01*
X7992700Y-7320771D01*
X8013500Y-7176102D01*
X8013500Y-5150209D01*
X8033502Y-5082088D01*
X8087158Y-5035595D01*
X8118243Y-5027109D01*
X8118105Y-5026458D01*
X8124564Y-5025085D01*
X8311365Y-4985379D01*
X8485829Y-4907703D01*
X8640330Y-4795451D01*
X8664631Y-4768462D01*
X8768111Y-4653536D01*
X8768112Y-4653534D01*
X8768117Y-4653529D01*
X8863604Y-4488141D01*
X8922619Y-4306513D01*
X8942581Y-4116585D01*
X8922619Y-3926657D01*
X8863604Y-3745029D01*
X8768117Y-3579641D01*
X8768115Y-3579639D01*
X8768111Y-3579633D01*
X8719941Y-3526135D01*
X8689223Y-3462128D01*
X8687577Y-3441825D01*
X8687577Y-2389219D01*
X8687576Y-2389216D01*
X8665903Y-2280261D01*
X8662271Y-2262000D01*
X8612632Y-2142160D01*
X8540567Y-2034308D01*
X8448846Y-1942587D01*
X7920404Y-1414144D01*
X7886379Y-1351832D01*
X7883500Y-1325049D01*
X7883500Y-451367D01*
X7883499Y-451350D01*
X7876990Y-390803D01*
X7876988Y-390795D01*
X7825889Y-253797D01*
X7825887Y-253792D01*
X7738261Y-136738D01*
X7621207Y-49112D01*
X7621202Y-49110D01*
X7484204Y1989D01*
X7484196Y1991D01*
X7423649Y8500D01*
X7423638Y8500D01*
X4746362Y8500D01*
X4746350Y8500D01*
X4685803Y1991D01*
X4685795Y1989D01*
X4548797Y-49110D01*
X4548792Y-49112D01*
X4431738Y-136738D01*
X4344112Y-253792D01*
X4344110Y-253797D01*
X4293011Y-390795D01*
X4293009Y-390803D01*
X4286500Y-451350D01*
X4286500Y-1548649D01*
X4293009Y-1609196D01*
X4293011Y-1609204D01*
X4344110Y-1746202D01*
X4344112Y-1746207D01*
X4421271Y-1849278D01*
X4446082Y-1915798D01*
X4430991Y-1985172D01*
X4380789Y-2035374D01*
X4360704Y-2044117D01*
X4360346Y-2044288D01*
X4237385Y-2123310D01*
X4186299Y-2167576D01*
X4184080Y-2169395D01*
X4088019Y-2280258D01*
X4088017Y-2280261D01*
X4027301Y-2413210D01*
X4007302Y-2481322D01*
X4007300Y-2481329D01*
X4007300Y-2481331D01*
X3986502Y-2625990D01*
X3986500Y-2626003D01*
X10500Y-2626003D01*
X10500Y-1906214D01*
X30502Y-1838093D01*
X84158Y-1791600D01*
X154432Y-1781496D01*
X219012Y-1810990D01*
X237366Y-1830703D01*
X254831Y-1854033D01*
X261739Y-1863261D01*
X378792Y-1950887D01*
X378794Y-1950888D01*
X378796Y-1950889D01*
X437875Y-1972924D01*
X515795Y-2001988D01*
X515803Y-2001990D01*
X576350Y-2008499D01*
X576355Y-2008499D01*
X576362Y-2008500D01*
X576368Y-2008500D01*
X3253632Y-2008500D01*
X3253638Y-2008500D01*
X3253645Y-2008499D01*
X3253649Y-2008499D01*
X3314196Y-2001990D01*
X3314199Y-2001989D01*
X3314201Y-2001989D01*
X3324269Y-1998234D01*
X3355728Y-1986500D01*
X3451204Y-1950889D01*
X3568261Y-1863261D01*
X3655889Y-1746204D01*
X3706989Y-1609201D01*
X3713500Y-1548638D01*
X3713500Y-451362D01*
X3713499Y-451350D01*
X3706990Y-390803D01*
X3706988Y-390795D01*
X3655889Y-253797D01*
X3655887Y-253792D01*
X3568261Y-136738D01*
X3451207Y-49112D01*
X3451202Y-49110D01*
X3314204Y1989D01*
X3314196Y1991D01*
X3253649Y8500D01*
X3253638Y8500D01*
X576362Y8500D01*
X576350Y8500D01*
X515803Y1991D01*
X515795Y1989D01*
X378797Y-49110D01*
X378792Y-49112D01*
X261738Y-136738D01*
X237368Y-169294D01*
X180532Y-211841D01*
X109716Y-216905D01*
X47404Y-182880D01*
X13379Y-120568D01*
X10500Y-93785D01*
X10500Y1863500D01*
X30502Y1931621D01*
X84158Y1978114D01*
X136500Y1989500D01*
X26863500Y1989500D01*
X26931621Y1969498D01*
G37*
G04 #@! TD.AperFunction*
G04 #@! TA.AperFunction,Conductor*
G36*
X22442121Y-2520002D02*
G01*
X22488614Y-2573658D01*
X22500000Y-2626000D01*
X22500000Y-13374000D01*
X22479998Y-13442121D01*
X22426342Y-13488614D01*
X22374000Y-13500000D01*
X19626000Y-13500000D01*
X19557879Y-13479998D01*
X19511386Y-13426342D01*
X19500000Y-13374000D01*
X19500000Y-5823896D01*
X19520002Y-5755775D01*
X19551939Y-5721960D01*
X19611253Y-5678866D01*
X19739040Y-5536944D01*
X19834527Y-5371556D01*
X19893542Y-5189928D01*
X19913504Y-5000000D01*
X19893542Y-4810072D01*
X19834527Y-4628444D01*
X19739040Y-4463056D01*
X19739038Y-4463054D01*
X19739034Y-4463048D01*
X19611257Y-4321137D01*
X19551937Y-4278037D01*
X19508584Y-4221813D01*
X19500000Y-4176102D01*
X19500000Y-3323896D01*
X19520002Y-3255775D01*
X19551939Y-3221960D01*
X19611253Y-3178866D01*
X19739040Y-3036944D01*
X19834527Y-2871556D01*
X19893542Y-2689928D01*
X19901645Y-2612829D01*
X19928658Y-2547173D01*
X19986879Y-2506543D01*
X20026955Y-2500000D01*
X22374000Y-2500000D01*
X22442121Y-2520002D01*
G37*
G04 #@! TD.AperFunction*
G04 #@! TA.AperFunction,Conductor*
G36*
X7159672Y-2520002D02*
G01*
X7180646Y-2536905D01*
X7333672Y-2689931D01*
X7367698Y-2752243D01*
X7370577Y-2779026D01*
X7370577Y-3441825D01*
X7350575Y-3509946D01*
X7338213Y-3526135D01*
X7290042Y-3579633D01*
X7290035Y-3579643D01*
X7194553Y-3745023D01*
X7194550Y-3745030D01*
X7135534Y-3926657D01*
X7115573Y-4116585D01*
X7135534Y-4306512D01*
X7165603Y-4399055D01*
X7194550Y-4488141D01*
X7194553Y-4488146D01*
X7290035Y-4653526D01*
X7290042Y-4653536D01*
X7417820Y-4795448D01*
X7417823Y-4795450D01*
X7417824Y-4795451D01*
X7448061Y-4817419D01*
X7491414Y-4873640D01*
X7500000Y-4919355D01*
X7500000Y-7176102D01*
X7479998Y-7244223D01*
X7448063Y-7278037D01*
X7388742Y-7321137D01*
X7260965Y-7463048D01*
X7260958Y-7463058D01*
X7165476Y-7628438D01*
X7165473Y-7628445D01*
X7106457Y-7810072D01*
X7086496Y-8000000D01*
X7106457Y-8189927D01*
X7136526Y-8282470D01*
X7165473Y-8371556D01*
X7165476Y-8371561D01*
X7260958Y-8536941D01*
X7260965Y-8536951D01*
X7388744Y-8678864D01*
X7448061Y-8721960D01*
X7491415Y-8778182D01*
X7500000Y-8823896D01*
X7500000Y-13374000D01*
X7479998Y-13442121D01*
X7426342Y-13488614D01*
X7374000Y-13500000D01*
X4626000Y-13500000D01*
X4557879Y-13479998D01*
X4511386Y-13426342D01*
X4500000Y-13374000D01*
X4500000Y-2626000D01*
X4520002Y-2557879D01*
X4573658Y-2511386D01*
X4626000Y-2500000D01*
X7091551Y-2500000D01*
X7159672Y-2520002D01*
G37*
G04 #@! TD.AperFunction*
D16*
X0Y-16000000D02*
X27000000Y-16000000D01*
X27000000Y2000000D02*
X0Y2000000D01*
X27000000Y-16000000D02*
X27000000Y2000000D01*
X0Y2000000D02*
X0Y-16000000D01*
M02*
