M48
; DRILL file {KiCad 8.0.3} date 2024-08-02T23:53:23+0200
; FORMAT={-:-/ absolute / inch / decimal}
; #@! TF.CreationDate,2024-08-02T23:53:23+02:00
; #@! TF.GenerationSoftware,Kicad,Pcbnew,8.0.3
; #@! TF.FileFunction,Plated,1,4,PTH
FMAT,2
INCH
; #@! TA.AperFunction,Plated,PTH,ComponentDrill
T1C0.0118
; #@! TA.AperFunction,Plated,PTH,ViaDrill
T2C0.0157
%
G90
G05
T1
X0.4878Y-0.1839
X0.4878Y-0.235
X0.4878Y-0.2862
X0.539Y-0.1839
X0.539Y-0.235
X0.539Y-0.2862
T2
X0.0394Y-0.1575
X0.0394Y-0.2362
X0.0394Y-0.315
X0.0394Y-0.3937
X0.0394Y-0.4724
X0.0394Y-0.5512
X0.2165Y-0.1575
X0.2559Y-0.1575
X0.2756Y-0.2362
X0.315Y-0.315
X0.3346Y-0.1575
X0.374Y-0.315
X0.4268Y-0.1535
X0.4921Y-0.0591
X0.4921Y-0.0984
X0.4921Y-0.1378
X0.4921Y-0.3346
X0.4921Y-0.374
X0.4921Y-0.4134
X0.5315Y-0.0591
X0.5315Y-0.0984
X0.5315Y-0.1378
X0.5315Y-0.3346
X0.5315Y-0.374
X0.5315Y-0.4134
X0.5906Y-0.3915
X0.5906Y-0.4724
X0.6299Y-0.1382
X0.6299Y-0.4724
X0.6415Y-0.2971
X0.6693Y-0.1969
X0.6693Y-0.2362
X0.6693Y-0.4724
X0.689Y0.0197
X0.689Y-0.1378
X0.7087Y-0.1969
X0.7283Y-0.2559
X0.7283Y-0.374
X0.748Y0.0197
X0.748Y-0.1378
X0.748Y-0.1969
X0.8661Y-0.2559
X0.8661Y-0.374
X0.9449Y0.0394
X0.9449Y-0.1575
X0.9843Y0.0394
X0.9843Y-0.1575
X1.0236Y0.0394
X1.0236Y-0.1575
X1.0236Y-0.2362
X1.0236Y-0.315
X1.0236Y-0.3937
X1.0236Y-0.4724
M30
