G04 #@! TF.GenerationSoftware,KiCad,Pcbnew,8.0.3*
G04 #@! TF.CreationDate,2024-08-02T23:53:28+02:00*
G04 #@! TF.ProjectId,powermod,706f7765-726d-46f6-942e-6b696361645f,rev?*
G04 #@! TF.SameCoordinates,PXf42400PY2719c40*
G04 #@! TF.FileFunction,Other,User*
%FSLAX46Y46*%
G04 Gerber Fmt 4.6, Leading zero omitted, Abs format (unit mm)*
G04 Created by KiCad (PCBNEW 8.0.3) date 2024-08-02 23:53:28*
%MOMM*%
%LPD*%
G01*
G04 APERTURE LIST*
%ADD10C,0.050000*%
G04 #@! TA.AperFunction,Profile*
%ADD11C,0.120000*%
G04 #@! TD*
G04 APERTURE END LIST*
D10*
X8843140Y-2550000D02*
X8843140Y-450000D01*
X8843140Y-450000D02*
X7943140Y-450000D01*
X7943140Y-3900000D02*
X7943140Y-2550000D01*
X7943140Y-3900000D02*
X6793140Y-5050000D01*
X7943140Y-2550000D02*
X8843140Y-2550000D01*
X7943140Y-450000D02*
X7943140Y900000D01*
X7943140Y900000D02*
X6793140Y2050000D01*
X6793140Y-5050000D02*
X843140Y-5050000D01*
X6793140Y2050000D02*
X843140Y2050000D01*
X843140Y-5050000D02*
X843140Y-2550000D01*
X843140Y-2550000D02*
X-56860Y-2550000D01*
X843140Y-450000D02*
X843140Y2050000D01*
X-56860Y-2550000D02*
X-56860Y-450000D01*
X-56860Y-450000D02*
X843140Y-450000D01*
X9920000Y-4170000D02*
X9920000Y-7770000D01*
X9920000Y-7770000D02*
X16160000Y-7770000D01*
X16160000Y-4170000D02*
X9920000Y-4170000D01*
X16160000Y-7770000D02*
X16160000Y-4170000D01*
X15470000Y-2070000D02*
X15470000Y-3930000D01*
X14530000Y-2070000D02*
X15470000Y-2070000D01*
X15470000Y-3930000D02*
X14530000Y-3930000D01*
X14530000Y-3930000D02*
X14530000Y-2070000D01*
X11930000Y-8970000D02*
X10070000Y-8970000D01*
X11930000Y-8030000D02*
X11930000Y-8970000D01*
X10070000Y-8970000D02*
X10070000Y-8030000D01*
X10070000Y-8030000D02*
X11930000Y-8030000D01*
X9430000Y-5470000D02*
X7570000Y-5470000D01*
X9430000Y-4530000D02*
X9430000Y-5470000D01*
X7570000Y-5470000D02*
X7570000Y-4530000D01*
X7570000Y-4530000D02*
X9430000Y-4530000D01*
X9430000Y-7470000D02*
X7570000Y-7470000D01*
X9430000Y-6530000D02*
X9430000Y-7470000D01*
X7570000Y-7470000D02*
X7570000Y-6530000D01*
X7570000Y-6530000D02*
X9430000Y-6530000D01*
X7570000Y-5530000D02*
X9430000Y-5530000D01*
X7570000Y-6470000D02*
X7570000Y-5530000D01*
X9430000Y-5530000D02*
X9430000Y-6470000D01*
X9430000Y-6470000D02*
X7570000Y-6470000D01*
X14530000Y-9930000D02*
X14530000Y-8070000D01*
X15470000Y-9930000D02*
X14530000Y-9930000D01*
X14530000Y-8070000D02*
X15470000Y-8070000D01*
X15470000Y-8070000D02*
X15470000Y-9930000D01*
X14530000Y-11930000D02*
X14530000Y-10070000D01*
X15470000Y-11930000D02*
X14530000Y-11930000D01*
X14530000Y-10070000D02*
X15470000Y-10070000D01*
X15470000Y-10070000D02*
X15470000Y-11930000D01*
X17700000Y-5250000D02*
X17700000Y-10750000D01*
X17700000Y-10750000D02*
X23300000Y-10750000D01*
X23300000Y-5250000D02*
X17700000Y-5250000D01*
X23300000Y-10750000D02*
X23300000Y-5250000D01*
X16600000Y1850000D02*
X26400000Y1850000D01*
X16600000Y-4850000D02*
X16600000Y1850000D01*
X26400000Y1850000D02*
X26400000Y-4850000D01*
X26400000Y-4850000D02*
X16600000Y-4850000D01*
X16744121Y-7925657D02*
X16744121Y-6105657D01*
X17664121Y-7925657D02*
X16744121Y-7925657D01*
X16744121Y-6105657D02*
X17664121Y-6105657D01*
X17664121Y-6105657D02*
X17664121Y-7925657D01*
X13590000Y-1040000D02*
X15410000Y-1040000D01*
X13590000Y-1960000D02*
X13590000Y-1040000D01*
X15410000Y-1040000D02*
X15410000Y-1960000D01*
X15410000Y-1960000D02*
X13590000Y-1960000D01*
X9590000Y-2040000D02*
X11410000Y-2040000D01*
X9590000Y-2960000D02*
X9590000Y-2040000D01*
X11410000Y-2040000D02*
X11410000Y-2960000D01*
X11410000Y-2960000D02*
X9590000Y-2960000D01*
X15520000Y-11650000D02*
X15520000Y-8250000D01*
X17480000Y-11650000D02*
X15520000Y-11650000D01*
X15520000Y-8250000D02*
X17480000Y-8250000D01*
X17480000Y-8250000D02*
X17480000Y-11650000D01*
X15410000Y-960000D02*
X13590000Y-960000D01*
X15410000Y-40000D02*
X15410000Y-960000D01*
X13590000Y-960000D02*
X13590000Y-40000D01*
X13590000Y-40000D02*
X15410000Y-40000D01*
D11*
X0Y-16000000D02*
X27000000Y-16000000D01*
X27000000Y2000000D02*
X0Y2000000D01*
X27000000Y-16000000D02*
X27000000Y2000000D01*
X0Y2000000D02*
X0Y-16000000D01*
M02*
