G04 #@! TF.GenerationSoftware,KiCad,Pcbnew,8.0.3*
G04 #@! TF.CreationDate,2024-08-02T19:57:07+02:00*
G04 #@! TF.ProjectId,powermod,706f7765-726d-46f6-942e-6b696361645f,rev?*
G04 #@! TF.SameCoordinates,PXf42400PY2719c40*
G04 #@! TF.FileFunction,Legend,Bot*
G04 #@! TF.FilePolarity,Positive*
%FSLAX46Y46*%
G04 Gerber Fmt 4.6, Leading zero omitted, Abs format (unit mm)*
G04 Created by KiCad (PCBNEW 8.0.3) date 2024-08-02 19:57:07*
%MOMM*%
%LPD*%
G01*
G04 APERTURE LIST*
%ADD10C,0.125000*%
%ADD11C,0.150000*%
%ADD12C,0.120000*%
G04 #@! TA.AperFunction,Profile*
%ADD13C,0.120000*%
G04 #@! TD*
G04 APERTURE END LIST*
D10*
X14574599Y-898962D02*
X14407932Y-898962D01*
X14336504Y-1160867D02*
X14574599Y-1160867D01*
X14574599Y-1160867D02*
X14574599Y-660867D01*
X14574599Y-660867D02*
X14336504Y-660867D01*
X14122218Y-827534D02*
X14122218Y-1160867D01*
X14122218Y-875153D02*
X14098408Y-851343D01*
X14098408Y-851343D02*
X14050789Y-827534D01*
X14050789Y-827534D02*
X13979361Y-827534D01*
X13979361Y-827534D02*
X13931742Y-851343D01*
X13931742Y-851343D02*
X13907932Y-898962D01*
X13907932Y-898962D02*
X13907932Y-1160867D01*
X13455551Y-1160867D02*
X13455551Y-898962D01*
X13455551Y-898962D02*
X13479361Y-851343D01*
X13479361Y-851343D02*
X13526980Y-827534D01*
X13526980Y-827534D02*
X13622218Y-827534D01*
X13622218Y-827534D02*
X13669837Y-851343D01*
X13455551Y-1137058D02*
X13503170Y-1160867D01*
X13503170Y-1160867D02*
X13622218Y-1160867D01*
X13622218Y-1160867D02*
X13669837Y-1137058D01*
X13669837Y-1137058D02*
X13693646Y-1089438D01*
X13693646Y-1089438D02*
X13693646Y-1041819D01*
X13693646Y-1041819D02*
X13669837Y-994200D01*
X13669837Y-994200D02*
X13622218Y-970391D01*
X13622218Y-970391D02*
X13503170Y-970391D01*
X13503170Y-970391D02*
X13455551Y-946581D01*
X13217456Y-1160867D02*
X13217456Y-660867D01*
X13217456Y-851343D02*
X13169837Y-827534D01*
X13169837Y-827534D02*
X13074599Y-827534D01*
X13074599Y-827534D02*
X13026980Y-851343D01*
X13026980Y-851343D02*
X13003170Y-875153D01*
X13003170Y-875153D02*
X12979361Y-922772D01*
X12979361Y-922772D02*
X12979361Y-1065629D01*
X12979361Y-1065629D02*
X13003170Y-1113248D01*
X13003170Y-1113248D02*
X13026980Y-1137058D01*
X13026980Y-1137058D02*
X13074599Y-1160867D01*
X13074599Y-1160867D02*
X13169837Y-1160867D01*
X13169837Y-1160867D02*
X13217456Y-1137058D01*
X12693646Y-1160867D02*
X12741265Y-1137058D01*
X12741265Y-1137058D02*
X12765075Y-1089438D01*
X12765075Y-1089438D02*
X12765075Y-660867D01*
X12312694Y-1137058D02*
X12360313Y-1160867D01*
X12360313Y-1160867D02*
X12455551Y-1160867D01*
X12455551Y-1160867D02*
X12503170Y-1137058D01*
X12503170Y-1137058D02*
X12526979Y-1089438D01*
X12526979Y-1089438D02*
X12526979Y-898962D01*
X12526979Y-898962D02*
X12503170Y-851343D01*
X12503170Y-851343D02*
X12455551Y-827534D01*
X12455551Y-827534D02*
X12360313Y-827534D01*
X12360313Y-827534D02*
X12312694Y-851343D01*
X12312694Y-851343D02*
X12288884Y-898962D01*
X12288884Y-898962D02*
X12288884Y-946581D01*
X12288884Y-946581D02*
X12526979Y-994200D01*
X11693647Y-827534D02*
X11693647Y-1327534D01*
X11693647Y-851343D02*
X11646028Y-827534D01*
X11646028Y-827534D02*
X11550790Y-827534D01*
X11550790Y-827534D02*
X11503171Y-851343D01*
X11503171Y-851343D02*
X11479361Y-875153D01*
X11479361Y-875153D02*
X11455552Y-922772D01*
X11455552Y-922772D02*
X11455552Y-1065629D01*
X11455552Y-1065629D02*
X11479361Y-1113248D01*
X11479361Y-1113248D02*
X11503171Y-1137058D01*
X11503171Y-1137058D02*
X11550790Y-1160867D01*
X11550790Y-1160867D02*
X11646028Y-1160867D01*
X11646028Y-1160867D02*
X11693647Y-1137058D01*
X11241266Y-1160867D02*
X11241266Y-827534D01*
X11241266Y-660867D02*
X11265075Y-684677D01*
X11265075Y-684677D02*
X11241266Y-708486D01*
X11241266Y-708486D02*
X11217456Y-684677D01*
X11217456Y-684677D02*
X11241266Y-660867D01*
X11241266Y-660867D02*
X11241266Y-708486D01*
X11003171Y-827534D02*
X11003171Y-1160867D01*
X11003171Y-875153D02*
X10979361Y-851343D01*
X10979361Y-851343D02*
X10931742Y-827534D01*
X10931742Y-827534D02*
X10860314Y-827534D01*
X10860314Y-827534D02*
X10812695Y-851343D01*
X10812695Y-851343D02*
X10788885Y-898962D01*
X10788885Y-898962D02*
X10788885Y-1160867D01*
D11*
X9500000Y-1000000D02*
X10500000Y-1000000D01*
X9500000Y-1500000D02*
X8000000Y-1000000D01*
X9500000Y-1000000D02*
X9500000Y-1500000D01*
X9500000Y-500000D02*
X8000000Y-1000000D01*
X9500000Y-1000000D02*
X9500000Y-500000D01*
X8000000Y-1000000D02*
X9500000Y-1000000D01*
X23333333Y1605181D02*
X23333333Y890896D01*
X23333333Y890896D02*
X23380952Y748039D01*
X23380952Y748039D02*
X23476190Y652800D01*
X23476190Y652800D02*
X23619047Y605181D01*
X23619047Y605181D02*
X23714285Y605181D01*
X22904761Y1509943D02*
X22857142Y1557562D01*
X22857142Y1557562D02*
X22761904Y1605181D01*
X22761904Y1605181D02*
X22523809Y1605181D01*
X22523809Y1605181D02*
X22428571Y1557562D01*
X22428571Y1557562D02*
X22380952Y1509943D01*
X22380952Y1509943D02*
X22333333Y1414705D01*
X22333333Y1414705D02*
X22333333Y1319467D01*
X22333333Y1319467D02*
X22380952Y1176610D01*
X22380952Y1176610D02*
X22952380Y605181D01*
X22952380Y605181D02*
X22333333Y605181D01*
X4333333Y1605181D02*
X4333333Y890896D01*
X4333333Y890896D02*
X4380952Y748039D01*
X4380952Y748039D02*
X4476190Y652800D01*
X4476190Y652800D02*
X4619047Y605181D01*
X4619047Y605181D02*
X4714285Y605181D01*
X3333333Y605181D02*
X3904761Y605181D01*
X3619047Y605181D02*
X3619047Y1605181D01*
X3619047Y1605181D02*
X3714285Y1462324D01*
X3714285Y1462324D02*
X3809523Y1367086D01*
X3809523Y1367086D02*
X3904761Y1319467D01*
D12*
X20940000Y60000D02*
X20940000Y-240000D01*
X20940000Y-1760000D02*
X20940000Y-2240000D01*
X20940000Y-3760000D02*
X20940000Y-4240000D01*
X20940000Y-5760000D02*
X20940000Y-6240000D01*
X20940000Y-7760000D02*
X20940000Y-8240000D01*
X20940000Y-9760000D02*
X20940000Y-10240000D01*
X20940000Y-11760000D02*
X20940000Y-12240000D01*
X20940000Y-13760000D02*
X20940000Y-14060000D01*
X25060000Y60000D02*
X20940000Y60000D01*
X25060000Y60000D02*
X25060000Y-240000D01*
X25060000Y-1760000D02*
X25060000Y-2240000D01*
X25060000Y-3760000D02*
X25060000Y-4240000D01*
X25060000Y-5760000D02*
X25060000Y-6240000D01*
X25060000Y-7760000D02*
X25060000Y-8240000D01*
X25060000Y-9760000D02*
X25060000Y-10240000D01*
X25060000Y-11760000D02*
X25060000Y-12240000D01*
X25060000Y-13760000D02*
X25060000Y-14060000D01*
X25060000Y-14060000D02*
X20940000Y-14060000D01*
X26315000Y-240000D02*
X25060000Y-240000D01*
X1940000Y60000D02*
X1940000Y-240000D01*
X1940000Y-1760000D02*
X1940000Y-2240000D01*
X1940000Y-3760000D02*
X1940000Y-4240000D01*
X1940000Y-5760000D02*
X1940000Y-6240000D01*
X1940000Y-7760000D02*
X1940000Y-8240000D01*
X1940000Y-9760000D02*
X1940000Y-10240000D01*
X1940000Y-11760000D02*
X1940000Y-12240000D01*
X1940000Y-13760000D02*
X1940000Y-14060000D01*
X6060000Y60000D02*
X1940000Y60000D01*
X6060000Y60000D02*
X6060000Y-240000D01*
X6060000Y-1760000D02*
X6060000Y-2240000D01*
X6060000Y-3760000D02*
X6060000Y-4240000D01*
X6060000Y-5760000D02*
X6060000Y-6240000D01*
X6060000Y-7760000D02*
X6060000Y-8240000D01*
X6060000Y-9760000D02*
X6060000Y-10240000D01*
X6060000Y-11760000D02*
X6060000Y-12240000D01*
X6060000Y-13760000D02*
X6060000Y-14060000D01*
X6060000Y-14060000D02*
X1940000Y-14060000D01*
X7315000Y-240000D02*
X6060000Y-240000D01*
D13*
X0Y-16000000D02*
X27000000Y-16000000D01*
X27000000Y2000000D02*
X0Y2000000D01*
X27000000Y-16000000D02*
X27000000Y2000000D01*
X0Y2000000D02*
X0Y-16000000D01*
M02*
