G04 #@! TF.GenerationSoftware,KiCad,Pcbnew,8.0.3*
G04 #@! TF.CreationDate,2024-08-02T23:53:28+02:00*
G04 #@! TF.ProjectId,powermod,706f7765-726d-46f6-942e-6b696361645f,rev?*
G04 #@! TF.SameCoordinates,PXf42400PY2719c40*
G04 #@! TF.FileFunction,AssemblyDrawing,Bot*
%FSLAX46Y46*%
G04 Gerber Fmt 4.6, Leading zero omitted, Abs format (unit mm)*
G04 Created by KiCad (PCBNEW 8.0.3) date 2024-08-02 23:53:28*
%MOMM*%
%LPD*%
G01*
G04 APERTURE LIST*
%ADD10C,0.150000*%
%ADD11C,0.100000*%
G04 #@! TA.AperFunction,Profile*
%ADD12C,0.120000*%
G04 #@! TD*
G04 APERTURE END LIST*
D10*
X30642858Y-15419580D02*
X30690477Y-15467200D01*
X30690477Y-15467200D02*
X30833334Y-15514819D01*
X30833334Y-15514819D02*
X30928572Y-15514819D01*
X30928572Y-15514819D02*
X31071429Y-15467200D01*
X31071429Y-15467200D02*
X31166667Y-15371961D01*
X31166667Y-15371961D02*
X31214286Y-15276723D01*
X31214286Y-15276723D02*
X31261905Y-15086247D01*
X31261905Y-15086247D02*
X31261905Y-14943390D01*
X31261905Y-14943390D02*
X31214286Y-14752914D01*
X31214286Y-14752914D02*
X31166667Y-14657676D01*
X31166667Y-14657676D02*
X31071429Y-14562438D01*
X31071429Y-14562438D02*
X30928572Y-14514819D01*
X30928572Y-14514819D02*
X30833334Y-14514819D01*
X30833334Y-14514819D02*
X30690477Y-14562438D01*
X30690477Y-14562438D02*
X30642858Y-14610057D01*
X30071429Y-15514819D02*
X30166667Y-15467200D01*
X30166667Y-15467200D02*
X30214286Y-15419580D01*
X30214286Y-15419580D02*
X30261905Y-15324342D01*
X30261905Y-15324342D02*
X30261905Y-15038628D01*
X30261905Y-15038628D02*
X30214286Y-14943390D01*
X30214286Y-14943390D02*
X30166667Y-14895771D01*
X30166667Y-14895771D02*
X30071429Y-14848152D01*
X30071429Y-14848152D02*
X29928572Y-14848152D01*
X29928572Y-14848152D02*
X29833334Y-14895771D01*
X29833334Y-14895771D02*
X29785715Y-14943390D01*
X29785715Y-14943390D02*
X29738096Y-15038628D01*
X29738096Y-15038628D02*
X29738096Y-15324342D01*
X29738096Y-15324342D02*
X29785715Y-15419580D01*
X29785715Y-15419580D02*
X29833334Y-15467200D01*
X29833334Y-15467200D02*
X29928572Y-15514819D01*
X29928572Y-15514819D02*
X30071429Y-15514819D01*
X29309524Y-14848152D02*
X29309524Y-15514819D01*
X29309524Y-14943390D02*
X29261905Y-14895771D01*
X29261905Y-14895771D02*
X29166667Y-14848152D01*
X29166667Y-14848152D02*
X29023810Y-14848152D01*
X29023810Y-14848152D02*
X28928572Y-14895771D01*
X28928572Y-14895771D02*
X28880953Y-14991009D01*
X28880953Y-14991009D02*
X28880953Y-15514819D01*
X28404762Y-14848152D02*
X28404762Y-15514819D01*
X28404762Y-14943390D02*
X28357143Y-14895771D01*
X28357143Y-14895771D02*
X28261905Y-14848152D01*
X28261905Y-14848152D02*
X28119048Y-14848152D01*
X28119048Y-14848152D02*
X28023810Y-14895771D01*
X28023810Y-14895771D02*
X27976191Y-14991009D01*
X27976191Y-14991009D02*
X27976191Y-15514819D01*
X27738096Y-15610057D02*
X26976191Y-15610057D01*
X26547619Y-14514819D02*
X26452381Y-14514819D01*
X26452381Y-14514819D02*
X26357143Y-14562438D01*
X26357143Y-14562438D02*
X26309524Y-14610057D01*
X26309524Y-14610057D02*
X26261905Y-14705295D01*
X26261905Y-14705295D02*
X26214286Y-14895771D01*
X26214286Y-14895771D02*
X26214286Y-15133866D01*
X26214286Y-15133866D02*
X26261905Y-15324342D01*
X26261905Y-15324342D02*
X26309524Y-15419580D01*
X26309524Y-15419580D02*
X26357143Y-15467200D01*
X26357143Y-15467200D02*
X26452381Y-15514819D01*
X26452381Y-15514819D02*
X26547619Y-15514819D01*
X26547619Y-15514819D02*
X26642857Y-15467200D01*
X26642857Y-15467200D02*
X26690476Y-15419580D01*
X26690476Y-15419580D02*
X26738095Y-15324342D01*
X26738095Y-15324342D02*
X26785714Y-15133866D01*
X26785714Y-15133866D02*
X26785714Y-14895771D01*
X26785714Y-14895771D02*
X26738095Y-14705295D01*
X26738095Y-14705295D02*
X26690476Y-14610057D01*
X26690476Y-14610057D02*
X26642857Y-14562438D01*
X26642857Y-14562438D02*
X26547619Y-14514819D01*
X25833333Y-14610057D02*
X25785714Y-14562438D01*
X25785714Y-14562438D02*
X25690476Y-14514819D01*
X25690476Y-14514819D02*
X25452381Y-14514819D01*
X25452381Y-14514819D02*
X25357143Y-14562438D01*
X25357143Y-14562438D02*
X25309524Y-14610057D01*
X25309524Y-14610057D02*
X25261905Y-14705295D01*
X25261905Y-14705295D02*
X25261905Y-14800533D01*
X25261905Y-14800533D02*
X25309524Y-14943390D01*
X25309524Y-14943390D02*
X25880952Y-15514819D01*
X25880952Y-15514819D02*
X25261905Y-15514819D01*
X24928571Y-15514819D02*
X24404762Y-14848152D01*
X24928571Y-14848152D02*
X24404762Y-15514819D01*
X23833333Y-14514819D02*
X23738095Y-14514819D01*
X23738095Y-14514819D02*
X23642857Y-14562438D01*
X23642857Y-14562438D02*
X23595238Y-14610057D01*
X23595238Y-14610057D02*
X23547619Y-14705295D01*
X23547619Y-14705295D02*
X23500000Y-14895771D01*
X23500000Y-14895771D02*
X23500000Y-15133866D01*
X23500000Y-15133866D02*
X23547619Y-15324342D01*
X23547619Y-15324342D02*
X23595238Y-15419580D01*
X23595238Y-15419580D02*
X23642857Y-15467200D01*
X23642857Y-15467200D02*
X23738095Y-15514819D01*
X23738095Y-15514819D02*
X23833333Y-15514819D01*
X23833333Y-15514819D02*
X23928571Y-15467200D01*
X23928571Y-15467200D02*
X23976190Y-15419580D01*
X23976190Y-15419580D02*
X24023809Y-15324342D01*
X24023809Y-15324342D02*
X24071428Y-15133866D01*
X24071428Y-15133866D02*
X24071428Y-14895771D01*
X24071428Y-14895771D02*
X24023809Y-14705295D01*
X24023809Y-14705295D02*
X23976190Y-14610057D01*
X23976190Y-14610057D02*
X23928571Y-14562438D01*
X23928571Y-14562438D02*
X23833333Y-14514819D01*
X23166666Y-14514819D02*
X22500000Y-14514819D01*
X22500000Y-14514819D02*
X22928571Y-15514819D01*
X22357143Y-15610057D02*
X21595238Y-15610057D01*
X21166666Y-14514819D02*
X20976190Y-14514819D01*
X20976190Y-14514819D02*
X20880952Y-14562438D01*
X20880952Y-14562438D02*
X20785714Y-14657676D01*
X20785714Y-14657676D02*
X20738095Y-14848152D01*
X20738095Y-14848152D02*
X20738095Y-15181485D01*
X20738095Y-15181485D02*
X20785714Y-15371961D01*
X20785714Y-15371961D02*
X20880952Y-15467200D01*
X20880952Y-15467200D02*
X20976190Y-15514819D01*
X20976190Y-15514819D02*
X21166666Y-15514819D01*
X21166666Y-15514819D02*
X21261904Y-15467200D01*
X21261904Y-15467200D02*
X21357142Y-15371961D01*
X21357142Y-15371961D02*
X21404761Y-15181485D01*
X21404761Y-15181485D02*
X21404761Y-14848152D01*
X21404761Y-14848152D02*
X21357142Y-14657676D01*
X21357142Y-14657676D02*
X21261904Y-14562438D01*
X21261904Y-14562438D02*
X21166666Y-14514819D01*
X19880952Y-15514819D02*
X19880952Y-14514819D01*
X19880952Y-15467200D02*
X19976190Y-15514819D01*
X19976190Y-15514819D02*
X20166666Y-15514819D01*
X20166666Y-15514819D02*
X20261904Y-15467200D01*
X20261904Y-15467200D02*
X20309523Y-15419580D01*
X20309523Y-15419580D02*
X20357142Y-15324342D01*
X20357142Y-15324342D02*
X20357142Y-15038628D01*
X20357142Y-15038628D02*
X20309523Y-14943390D01*
X20309523Y-14943390D02*
X20261904Y-14895771D01*
X20261904Y-14895771D02*
X20166666Y-14848152D01*
X20166666Y-14848152D02*
X19976190Y-14848152D01*
X19976190Y-14848152D02*
X19880952Y-14895771D01*
X18976190Y-15514819D02*
X18976190Y-14514819D01*
X18976190Y-15467200D02*
X19071428Y-15514819D01*
X19071428Y-15514819D02*
X19261904Y-15514819D01*
X19261904Y-15514819D02*
X19357142Y-15467200D01*
X19357142Y-15467200D02*
X19404761Y-15419580D01*
X19404761Y-15419580D02*
X19452380Y-15324342D01*
X19452380Y-15324342D02*
X19452380Y-15038628D01*
X19452380Y-15038628D02*
X19404761Y-14943390D01*
X19404761Y-14943390D02*
X19357142Y-14895771D01*
X19357142Y-14895771D02*
X19261904Y-14848152D01*
X19261904Y-14848152D02*
X19071428Y-14848152D01*
X19071428Y-14848152D02*
X18976190Y-14895771D01*
X18738095Y-15610057D02*
X17976190Y-15610057D01*
X17738094Y-14991009D02*
X17404761Y-14991009D01*
X17261904Y-15514819D02*
X17738094Y-15514819D01*
X17738094Y-15514819D02*
X17738094Y-14514819D01*
X17738094Y-14514819D02*
X17261904Y-14514819D01*
X16928570Y-14848152D02*
X16690475Y-15514819D01*
X16690475Y-15514819D02*
X16452380Y-14848152D01*
X15690475Y-15467200D02*
X15785713Y-15514819D01*
X15785713Y-15514819D02*
X15976189Y-15514819D01*
X15976189Y-15514819D02*
X16071427Y-15467200D01*
X16071427Y-15467200D02*
X16119046Y-15371961D01*
X16119046Y-15371961D02*
X16119046Y-14991009D01*
X16119046Y-14991009D02*
X16071427Y-14895771D01*
X16071427Y-14895771D02*
X15976189Y-14848152D01*
X15976189Y-14848152D02*
X15785713Y-14848152D01*
X15785713Y-14848152D02*
X15690475Y-14895771D01*
X15690475Y-14895771D02*
X15642856Y-14991009D01*
X15642856Y-14991009D02*
X15642856Y-15086247D01*
X15642856Y-15086247D02*
X16119046Y-15181485D01*
X15214284Y-14848152D02*
X15214284Y-15514819D01*
X15214284Y-14943390D02*
X15166665Y-14895771D01*
X15166665Y-14895771D02*
X15071427Y-14848152D01*
X15071427Y-14848152D02*
X14928570Y-14848152D01*
X14928570Y-14848152D02*
X14833332Y-14895771D01*
X14833332Y-14895771D02*
X14785713Y-14991009D01*
X14785713Y-14991009D02*
X14785713Y-15514819D01*
X11642858Y-15419580D02*
X11690477Y-15467200D01*
X11690477Y-15467200D02*
X11833334Y-15514819D01*
X11833334Y-15514819D02*
X11928572Y-15514819D01*
X11928572Y-15514819D02*
X12071429Y-15467200D01*
X12071429Y-15467200D02*
X12166667Y-15371961D01*
X12166667Y-15371961D02*
X12214286Y-15276723D01*
X12214286Y-15276723D02*
X12261905Y-15086247D01*
X12261905Y-15086247D02*
X12261905Y-14943390D01*
X12261905Y-14943390D02*
X12214286Y-14752914D01*
X12214286Y-14752914D02*
X12166667Y-14657676D01*
X12166667Y-14657676D02*
X12071429Y-14562438D01*
X12071429Y-14562438D02*
X11928572Y-14514819D01*
X11928572Y-14514819D02*
X11833334Y-14514819D01*
X11833334Y-14514819D02*
X11690477Y-14562438D01*
X11690477Y-14562438D02*
X11642858Y-14610057D01*
X11071429Y-15514819D02*
X11166667Y-15467200D01*
X11166667Y-15467200D02*
X11214286Y-15419580D01*
X11214286Y-15419580D02*
X11261905Y-15324342D01*
X11261905Y-15324342D02*
X11261905Y-15038628D01*
X11261905Y-15038628D02*
X11214286Y-14943390D01*
X11214286Y-14943390D02*
X11166667Y-14895771D01*
X11166667Y-14895771D02*
X11071429Y-14848152D01*
X11071429Y-14848152D02*
X10928572Y-14848152D01*
X10928572Y-14848152D02*
X10833334Y-14895771D01*
X10833334Y-14895771D02*
X10785715Y-14943390D01*
X10785715Y-14943390D02*
X10738096Y-15038628D01*
X10738096Y-15038628D02*
X10738096Y-15324342D01*
X10738096Y-15324342D02*
X10785715Y-15419580D01*
X10785715Y-15419580D02*
X10833334Y-15467200D01*
X10833334Y-15467200D02*
X10928572Y-15514819D01*
X10928572Y-15514819D02*
X11071429Y-15514819D01*
X10309524Y-14848152D02*
X10309524Y-15514819D01*
X10309524Y-14943390D02*
X10261905Y-14895771D01*
X10261905Y-14895771D02*
X10166667Y-14848152D01*
X10166667Y-14848152D02*
X10023810Y-14848152D01*
X10023810Y-14848152D02*
X9928572Y-14895771D01*
X9928572Y-14895771D02*
X9880953Y-14991009D01*
X9880953Y-14991009D02*
X9880953Y-15514819D01*
X9404762Y-14848152D02*
X9404762Y-15514819D01*
X9404762Y-14943390D02*
X9357143Y-14895771D01*
X9357143Y-14895771D02*
X9261905Y-14848152D01*
X9261905Y-14848152D02*
X9119048Y-14848152D01*
X9119048Y-14848152D02*
X9023810Y-14895771D01*
X9023810Y-14895771D02*
X8976191Y-14991009D01*
X8976191Y-14991009D02*
X8976191Y-15514819D01*
X8738096Y-15610057D02*
X7976191Y-15610057D01*
X7547619Y-14514819D02*
X7452381Y-14514819D01*
X7452381Y-14514819D02*
X7357143Y-14562438D01*
X7357143Y-14562438D02*
X7309524Y-14610057D01*
X7309524Y-14610057D02*
X7261905Y-14705295D01*
X7261905Y-14705295D02*
X7214286Y-14895771D01*
X7214286Y-14895771D02*
X7214286Y-15133866D01*
X7214286Y-15133866D02*
X7261905Y-15324342D01*
X7261905Y-15324342D02*
X7309524Y-15419580D01*
X7309524Y-15419580D02*
X7357143Y-15467200D01*
X7357143Y-15467200D02*
X7452381Y-15514819D01*
X7452381Y-15514819D02*
X7547619Y-15514819D01*
X7547619Y-15514819D02*
X7642857Y-15467200D01*
X7642857Y-15467200D02*
X7690476Y-15419580D01*
X7690476Y-15419580D02*
X7738095Y-15324342D01*
X7738095Y-15324342D02*
X7785714Y-15133866D01*
X7785714Y-15133866D02*
X7785714Y-14895771D01*
X7785714Y-14895771D02*
X7738095Y-14705295D01*
X7738095Y-14705295D02*
X7690476Y-14610057D01*
X7690476Y-14610057D02*
X7642857Y-14562438D01*
X7642857Y-14562438D02*
X7547619Y-14514819D01*
X6833333Y-14610057D02*
X6785714Y-14562438D01*
X6785714Y-14562438D02*
X6690476Y-14514819D01*
X6690476Y-14514819D02*
X6452381Y-14514819D01*
X6452381Y-14514819D02*
X6357143Y-14562438D01*
X6357143Y-14562438D02*
X6309524Y-14610057D01*
X6309524Y-14610057D02*
X6261905Y-14705295D01*
X6261905Y-14705295D02*
X6261905Y-14800533D01*
X6261905Y-14800533D02*
X6309524Y-14943390D01*
X6309524Y-14943390D02*
X6880952Y-15514819D01*
X6880952Y-15514819D02*
X6261905Y-15514819D01*
X5928571Y-15514819D02*
X5404762Y-14848152D01*
X5928571Y-14848152D02*
X5404762Y-15514819D01*
X4833333Y-14514819D02*
X4738095Y-14514819D01*
X4738095Y-14514819D02*
X4642857Y-14562438D01*
X4642857Y-14562438D02*
X4595238Y-14610057D01*
X4595238Y-14610057D02*
X4547619Y-14705295D01*
X4547619Y-14705295D02*
X4500000Y-14895771D01*
X4500000Y-14895771D02*
X4500000Y-15133866D01*
X4500000Y-15133866D02*
X4547619Y-15324342D01*
X4547619Y-15324342D02*
X4595238Y-15419580D01*
X4595238Y-15419580D02*
X4642857Y-15467200D01*
X4642857Y-15467200D02*
X4738095Y-15514819D01*
X4738095Y-15514819D02*
X4833333Y-15514819D01*
X4833333Y-15514819D02*
X4928571Y-15467200D01*
X4928571Y-15467200D02*
X4976190Y-15419580D01*
X4976190Y-15419580D02*
X5023809Y-15324342D01*
X5023809Y-15324342D02*
X5071428Y-15133866D01*
X5071428Y-15133866D02*
X5071428Y-14895771D01*
X5071428Y-14895771D02*
X5023809Y-14705295D01*
X5023809Y-14705295D02*
X4976190Y-14610057D01*
X4976190Y-14610057D02*
X4928571Y-14562438D01*
X4928571Y-14562438D02*
X4833333Y-14514819D01*
X4166666Y-14514819D02*
X3500000Y-14514819D01*
X3500000Y-14514819D02*
X3928571Y-15514819D01*
X3357143Y-15610057D02*
X2595238Y-15610057D01*
X2166666Y-14514819D02*
X1976190Y-14514819D01*
X1976190Y-14514819D02*
X1880952Y-14562438D01*
X1880952Y-14562438D02*
X1785714Y-14657676D01*
X1785714Y-14657676D02*
X1738095Y-14848152D01*
X1738095Y-14848152D02*
X1738095Y-15181485D01*
X1738095Y-15181485D02*
X1785714Y-15371961D01*
X1785714Y-15371961D02*
X1880952Y-15467200D01*
X1880952Y-15467200D02*
X1976190Y-15514819D01*
X1976190Y-15514819D02*
X2166666Y-15514819D01*
X2166666Y-15514819D02*
X2261904Y-15467200D01*
X2261904Y-15467200D02*
X2357142Y-15371961D01*
X2357142Y-15371961D02*
X2404761Y-15181485D01*
X2404761Y-15181485D02*
X2404761Y-14848152D01*
X2404761Y-14848152D02*
X2357142Y-14657676D01*
X2357142Y-14657676D02*
X2261904Y-14562438D01*
X2261904Y-14562438D02*
X2166666Y-14514819D01*
X880952Y-15514819D02*
X880952Y-14514819D01*
X880952Y-15467200D02*
X976190Y-15514819D01*
X976190Y-15514819D02*
X1166666Y-15514819D01*
X1166666Y-15514819D02*
X1261904Y-15467200D01*
X1261904Y-15467200D02*
X1309523Y-15419580D01*
X1309523Y-15419580D02*
X1357142Y-15324342D01*
X1357142Y-15324342D02*
X1357142Y-15038628D01*
X1357142Y-15038628D02*
X1309523Y-14943390D01*
X1309523Y-14943390D02*
X1261904Y-14895771D01*
X1261904Y-14895771D02*
X1166666Y-14848152D01*
X1166666Y-14848152D02*
X976190Y-14848152D01*
X976190Y-14848152D02*
X880952Y-14895771D01*
X-23810Y-15514819D02*
X-23810Y-14514819D01*
X-23810Y-15467200D02*
X71428Y-15514819D01*
X71428Y-15514819D02*
X261904Y-15514819D01*
X261904Y-15514819D02*
X357142Y-15467200D01*
X357142Y-15467200D02*
X404761Y-15419580D01*
X404761Y-15419580D02*
X452380Y-15324342D01*
X452380Y-15324342D02*
X452380Y-15038628D01*
X452380Y-15038628D02*
X404761Y-14943390D01*
X404761Y-14943390D02*
X357142Y-14895771D01*
X357142Y-14895771D02*
X261904Y-14848152D01*
X261904Y-14848152D02*
X71428Y-14848152D01*
X71428Y-14848152D02*
X-23810Y-14895771D01*
X-261905Y-15610057D02*
X-1023810Y-15610057D01*
X-1261906Y-14991009D02*
X-1595239Y-14991009D01*
X-1738096Y-15514819D02*
X-1261906Y-15514819D01*
X-1261906Y-15514819D02*
X-1261906Y-14514819D01*
X-1261906Y-14514819D02*
X-1738096Y-14514819D01*
X-2071430Y-14848152D02*
X-2309525Y-15514819D01*
X-2309525Y-15514819D02*
X-2547620Y-14848152D01*
X-3309525Y-15467200D02*
X-3214287Y-15514819D01*
X-3214287Y-15514819D02*
X-3023811Y-15514819D01*
X-3023811Y-15514819D02*
X-2928573Y-15467200D01*
X-2928573Y-15467200D02*
X-2880954Y-15371961D01*
X-2880954Y-15371961D02*
X-2880954Y-14991009D01*
X-2880954Y-14991009D02*
X-2928573Y-14895771D01*
X-2928573Y-14895771D02*
X-3023811Y-14848152D01*
X-3023811Y-14848152D02*
X-3214287Y-14848152D01*
X-3214287Y-14848152D02*
X-3309525Y-14895771D01*
X-3309525Y-14895771D02*
X-3357144Y-14991009D01*
X-3357144Y-14991009D02*
X-3357144Y-15086247D01*
X-3357144Y-15086247D02*
X-2880954Y-15181485D01*
X-3785716Y-14848152D02*
X-3785716Y-15514819D01*
X-3785716Y-14943390D02*
X-3833335Y-14895771D01*
X-3833335Y-14895771D02*
X-3928573Y-14848152D01*
X-3928573Y-14848152D02*
X-4071430Y-14848152D01*
X-4071430Y-14848152D02*
X-4166668Y-14895771D01*
X-4166668Y-14895771D02*
X-4214287Y-14991009D01*
X-4214287Y-14991009D02*
X-4214287Y-15514819D01*
X3454819Y-6666666D02*
X4169104Y-6666666D01*
X4169104Y-6666666D02*
X4311961Y-6619047D01*
X4311961Y-6619047D02*
X4407200Y-6523809D01*
X4407200Y-6523809D02*
X4454819Y-6380952D01*
X4454819Y-6380952D02*
X4454819Y-6285714D01*
X4454819Y-7666666D02*
X4454819Y-7095238D01*
X4454819Y-7380952D02*
X3454819Y-7380952D01*
X3454819Y-7380952D02*
X3597676Y-7285714D01*
X3597676Y-7285714D02*
X3692914Y-7190476D01*
X3692914Y-7190476D02*
X3740533Y-7095238D01*
D11*
X20125000Y-750000D02*
X20125000Y-1250000D01*
X20125000Y-1250000D02*
X21000000Y-1250000D01*
X20125000Y-2750000D02*
X20125000Y-3250000D01*
X20125000Y-3250000D02*
X21000000Y-3250000D01*
X20125000Y-4750000D02*
X20125000Y-5250000D01*
X20125000Y-5250000D02*
X21000000Y-5250000D01*
X20125000Y-6750000D02*
X20125000Y-7250000D01*
X20125000Y-7250000D02*
X21000000Y-7250000D01*
X20125000Y-8750000D02*
X20125000Y-9250000D01*
X20125000Y-9250000D02*
X21000000Y-9250000D01*
X20125000Y-10750000D02*
X20125000Y-11250000D01*
X20125000Y-11250000D02*
X21000000Y-11250000D01*
X20125000Y-12750000D02*
X20125000Y-13250000D01*
X20125000Y-13250000D02*
X21000000Y-13250000D01*
X21000000Y0D02*
X21000000Y-14000000D01*
X21000000Y-750000D02*
X20125000Y-750000D01*
X21000000Y-2750000D02*
X20125000Y-2750000D01*
X21000000Y-4750000D02*
X20125000Y-4750000D01*
X21000000Y-6750000D02*
X20125000Y-6750000D01*
X21000000Y-8750000D02*
X20125000Y-8750000D01*
X21000000Y-10750000D02*
X20125000Y-10750000D01*
X21000000Y-12750000D02*
X20125000Y-12750000D01*
X21000000Y-14000000D02*
X25000000Y-14000000D01*
X24250000Y0D02*
X21000000Y0D01*
X25000000Y-750000D02*
X24250000Y0D01*
X25000000Y-750000D02*
X25875000Y-750000D01*
X25000000Y-2750000D02*
X25875000Y-2750000D01*
X25000000Y-4750000D02*
X25875000Y-4750000D01*
X25000000Y-6750000D02*
X25875000Y-6750000D01*
X25000000Y-8750000D02*
X25875000Y-8750000D01*
X25000000Y-10750000D02*
X25875000Y-10750000D01*
X25000000Y-12750000D02*
X25875000Y-12750000D01*
X25000000Y-14000000D02*
X25000000Y-750000D01*
X25875000Y-750000D02*
X25875000Y-1250000D01*
X25875000Y-1250000D02*
X25000000Y-1250000D01*
X25875000Y-2750000D02*
X25875000Y-3250000D01*
X25875000Y-3250000D02*
X25000000Y-3250000D01*
X25875000Y-4750000D02*
X25875000Y-5250000D01*
X25875000Y-5250000D02*
X25000000Y-5250000D01*
X25875000Y-6750000D02*
X25875000Y-7250000D01*
X25875000Y-7250000D02*
X25000000Y-7250000D01*
X25875000Y-8750000D02*
X25875000Y-9250000D01*
X25875000Y-9250000D02*
X25000000Y-9250000D01*
X25875000Y-10750000D02*
X25875000Y-11250000D01*
X25875000Y-11250000D02*
X25000000Y-11250000D01*
X25875000Y-12750000D02*
X25875000Y-13250000D01*
X25875000Y-13250000D02*
X25000000Y-13250000D01*
X1125000Y-750000D02*
X1125000Y-1250000D01*
X1125000Y-1250000D02*
X2000000Y-1250000D01*
X1125000Y-2750000D02*
X1125000Y-3250000D01*
X1125000Y-3250000D02*
X2000000Y-3250000D01*
X1125000Y-4750000D02*
X1125000Y-5250000D01*
X1125000Y-5250000D02*
X2000000Y-5250000D01*
X1125000Y-6750000D02*
X1125000Y-7250000D01*
X1125000Y-7250000D02*
X2000000Y-7250000D01*
X1125000Y-8750000D02*
X1125000Y-9250000D01*
X1125000Y-9250000D02*
X2000000Y-9250000D01*
X1125000Y-10750000D02*
X1125000Y-11250000D01*
X1125000Y-11250000D02*
X2000000Y-11250000D01*
X1125000Y-12750000D02*
X1125000Y-13250000D01*
X1125000Y-13250000D02*
X2000000Y-13250000D01*
X2000000Y0D02*
X2000000Y-14000000D01*
X2000000Y-750000D02*
X1125000Y-750000D01*
X2000000Y-2750000D02*
X1125000Y-2750000D01*
X2000000Y-4750000D02*
X1125000Y-4750000D01*
X2000000Y-6750000D02*
X1125000Y-6750000D01*
X2000000Y-8750000D02*
X1125000Y-8750000D01*
X2000000Y-10750000D02*
X1125000Y-10750000D01*
X2000000Y-12750000D02*
X1125000Y-12750000D01*
X2000000Y-14000000D02*
X6000000Y-14000000D01*
X5250000Y0D02*
X2000000Y0D01*
X6000000Y-750000D02*
X5250000Y0D01*
X6000000Y-750000D02*
X6875000Y-750000D01*
X6000000Y-2750000D02*
X6875000Y-2750000D01*
X6000000Y-4750000D02*
X6875000Y-4750000D01*
X6000000Y-6750000D02*
X6875000Y-6750000D01*
X6000000Y-8750000D02*
X6875000Y-8750000D01*
X6000000Y-10750000D02*
X6875000Y-10750000D01*
X6000000Y-12750000D02*
X6875000Y-12750000D01*
X6000000Y-14000000D02*
X6000000Y-750000D01*
X6875000Y-750000D02*
X6875000Y-1250000D01*
X6875000Y-1250000D02*
X6000000Y-1250000D01*
X6875000Y-2750000D02*
X6875000Y-3250000D01*
X6875000Y-3250000D02*
X6000000Y-3250000D01*
X6875000Y-4750000D02*
X6875000Y-5250000D01*
X6875000Y-5250000D02*
X6000000Y-5250000D01*
X6875000Y-6750000D02*
X6875000Y-7250000D01*
X6875000Y-7250000D02*
X6000000Y-7250000D01*
X6875000Y-8750000D02*
X6875000Y-9250000D01*
X6875000Y-9250000D02*
X6000000Y-9250000D01*
X6875000Y-10750000D02*
X6875000Y-11250000D01*
X6875000Y-11250000D02*
X6000000Y-11250000D01*
X6875000Y-12750000D02*
X6875000Y-13250000D01*
X6875000Y-13250000D02*
X6000000Y-13250000D01*
D12*
X0Y-16000000D02*
X27000000Y-16000000D01*
X27000000Y2000000D02*
X0Y2000000D01*
X27000000Y-16000000D02*
X27000000Y2000000D01*
X0Y2000000D02*
X0Y-16000000D01*
M02*
