G04 #@! TF.GenerationSoftware,KiCad,Pcbnew,8.0.3*
G04 #@! TF.CreationDate,2024-08-02T23:53:27+02:00*
G04 #@! TF.ProjectId,powermod,706f7765-726d-46f6-942e-6b696361645f,rev?*
G04 #@! TF.SameCoordinates,PXf42400PY2719c40*
G04 #@! TF.FileFunction,Copper,L4,Bot*
G04 #@! TF.FilePolarity,Positive*
%FSLAX46Y46*%
G04 Gerber Fmt 4.6, Leading zero omitted, Abs format (unit mm)*
G04 Created by KiCad (PCBNEW 8.0.3) date 2024-08-02 23:53:27*
%MOMM*%
%LPD*%
G01*
G04 APERTURE LIST*
G04 #@! TA.AperFunction,HeatsinkPad*
%ADD10C,0.500000*%
G04 #@! TD*
G04 #@! TA.AperFunction,HeatsinkPad*
%ADD11R,1.800000X3.100000*%
G04 #@! TD*
G04 #@! TA.AperFunction,SMDPad,CuDef*
%ADD12R,2.580000X1.000000*%
G04 #@! TD*
G04 #@! TA.AperFunction,ViaPad*
%ADD13C,0.800000*%
G04 #@! TD*
G04 #@! TA.AperFunction,ViaPad*
%ADD14C,0.600000*%
G04 #@! TD*
G04 #@! TA.AperFunction,Conductor*
%ADD15C,0.300000*%
G04 #@! TD*
G04 #@! TA.AperFunction,Profile*
%ADD16C,0.120000*%
G04 #@! TD*
G04 APERTURE END LIST*
D10*
X12390000Y-4670000D03*
X12390000Y-5970000D03*
X12390000Y-7270000D03*
D11*
X13040000Y-5970000D03*
D10*
X13690000Y-4670000D03*
X13690000Y-5970000D03*
X13690000Y-7270000D03*
D12*
X25085000Y-1000000D03*
X20915000Y-1000000D03*
X25085000Y-3000000D03*
X20915000Y-3000000D03*
X25085000Y-5000000D03*
X20915000Y-5000000D03*
X25085000Y-7000000D03*
X20915000Y-7000000D03*
X25085000Y-9000000D03*
X20915000Y-9000000D03*
X25085000Y-11000000D03*
X20915000Y-11000000D03*
X25085000Y-13000000D03*
X20915000Y-13000000D03*
X6085000Y-1000000D03*
X1915000Y-1000000D03*
X6085000Y-3000000D03*
X1915000Y-3000000D03*
X6085000Y-5000000D03*
X1915000Y-5000000D03*
X6085000Y-7000000D03*
X1915000Y-7000000D03*
X6085000Y-9000000D03*
X1915000Y-9000000D03*
X6085000Y-11000000D03*
X1915000Y-11000000D03*
X6085000Y-13000000D03*
X1915000Y-13000000D03*
D13*
X7000000Y-6000000D03*
X6500000Y-4000000D03*
X5500000Y-4000000D03*
X15000000Y-12000000D03*
X16000000Y-12000000D03*
X17000000Y-12000000D03*
X8000000Y-8000000D03*
X26000000Y-12000000D03*
X26000000Y-10000000D03*
X26000000Y-8000000D03*
X26000000Y-6000000D03*
X17000000Y-6000003D03*
X16000000Y-3510000D03*
X16294122Y-7546240D03*
X15000000Y-9944919D03*
X10840000Y-3899669D03*
X9500000Y-8000000D03*
X8500000Y-4000000D03*
X22000000Y-6500000D03*
X22000000Y-9500000D03*
X19000000Y-5000000D03*
X18000000Y-5000000D03*
X17000000Y-5000000D03*
X19000000Y500000D03*
X19000000Y-3500000D03*
X17500000Y-3500000D03*
X17500000Y500000D03*
X18500000Y-9500000D03*
X18500000Y-6500000D03*
X26000000Y1000000D03*
X25000000Y1000000D03*
X24000000Y1000000D03*
X26000000Y-4000000D03*
X25000000Y-4000000D03*
X24000000Y-4000000D03*
X13500000Y-8500000D03*
X13500000Y-9500000D03*
X13500000Y-10500000D03*
X12500000Y-10500000D03*
X12500000Y-9500000D03*
X12500000Y-8500000D03*
X13500000Y-3500000D03*
X13500000Y-2500000D03*
X13500000Y-1500000D03*
X12500000Y-3500000D03*
X12500000Y-2500000D03*
X12500000Y-1500000D03*
D14*
X1000000Y-4000000D03*
X1000000Y-6000000D03*
X1000000Y-10000000D03*
X1000000Y-12000000D03*
X1000000Y-8000000D03*
X1000000Y-14000000D03*
D15*
X8500000Y-4000000D02*
X8500000Y-2925000D01*
X8500000Y-2925000D02*
X6575000Y-1000000D01*
X15000000Y-9944919D02*
X16294122Y-8650797D01*
X16294122Y-8650797D02*
X16294122Y-7546240D01*
X16939342Y-6000003D02*
X17000000Y-6000003D01*
X16000000Y-3510000D02*
X16000000Y-5060661D01*
X16000000Y-5060661D02*
X16939342Y-6000003D01*
X9500000Y-5239669D02*
X10840000Y-3899669D01*
X9500000Y-8000000D02*
X9500000Y-5239669D01*
G04 #@! TA.AperFunction,Conductor*
G36*
X26931621Y1969498D02*
G01*
X26978114Y1915842D01*
X26989500Y1863500D01*
X26989500Y-93785D01*
X26969498Y-161906D01*
X26915842Y-208399D01*
X26845568Y-218503D01*
X26780988Y-189009D01*
X26762632Y-169294D01*
X26738261Y-136738D01*
X26621207Y-49112D01*
X26621202Y-49110D01*
X26484204Y1989D01*
X26484196Y1991D01*
X26423649Y8500D01*
X26423638Y8500D01*
X23746362Y8500D01*
X23746350Y8500D01*
X23685803Y1991D01*
X23685795Y1989D01*
X23548797Y-49110D01*
X23548792Y-49112D01*
X23431738Y-136738D01*
X23344112Y-253792D01*
X23344110Y-253797D01*
X23293011Y-390795D01*
X23293009Y-390803D01*
X23286500Y-451350D01*
X23286500Y-1548649D01*
X23293009Y-1609196D01*
X23293011Y-1609204D01*
X23344110Y-1746202D01*
X23344112Y-1746207D01*
X23431738Y-1863261D01*
X23548792Y-1950887D01*
X23548794Y-1950888D01*
X23548796Y-1950889D01*
X23607875Y-1972924D01*
X23685795Y-2001988D01*
X23685803Y-2001990D01*
X23746350Y-2008499D01*
X23746355Y-2008499D01*
X23746362Y-2008500D01*
X23746368Y-2008500D01*
X26423632Y-2008500D01*
X26423638Y-2008500D01*
X26423645Y-2008499D01*
X26423649Y-2008499D01*
X26484196Y-2001990D01*
X26484199Y-2001989D01*
X26484201Y-2001989D01*
X26490175Y-1999761D01*
X26525728Y-1986500D01*
X26621204Y-1950889D01*
X26631950Y-1942845D01*
X26668080Y-1915798D01*
X26738261Y-1863261D01*
X26762631Y-1830705D01*
X26819467Y-1788159D01*
X26890282Y-1783093D01*
X26952595Y-1817118D01*
X26986620Y-1879430D01*
X26989500Y-1906214D01*
X26989500Y-15863500D01*
X26969498Y-15931621D01*
X26915842Y-15978114D01*
X26863500Y-15989500D01*
X136500Y-15989500D01*
X68379Y-15969498D01*
X21886Y-15915842D01*
X10500Y-15863500D01*
X10500Y-2626003D01*
X3986500Y-2626003D01*
X3986500Y-13374009D01*
X3998235Y-13483155D01*
X3998235Y-13483159D01*
X4009617Y-13535480D01*
X4009623Y-13535501D01*
X4044288Y-13639654D01*
X4044290Y-13639657D01*
X4123308Y-13762612D01*
X4123311Y-13762615D01*
X4123315Y-13762621D01*
X4167575Y-13813700D01*
X4169396Y-13815920D01*
X4280258Y-13911980D01*
X4280261Y-13911982D01*
X4413210Y-13972698D01*
X4481331Y-13992700D01*
X4626000Y-14013500D01*
X4626004Y-14013500D01*
X7373994Y-14013500D01*
X7374000Y-14013500D01*
X7414060Y-14009193D01*
X7420776Y-14008653D01*
X7423625Y-14008500D01*
X7423638Y-14008500D01*
X7484201Y-14001989D01*
X7484213Y-14001984D01*
X7491888Y-14000171D01*
X7491888Y-14000173D01*
X7495939Y-13998983D01*
X7499241Y-13998264D01*
X7535491Y-13990380D01*
X7639657Y-13955710D01*
X7762612Y-13876692D01*
X7813721Y-13832405D01*
X7815924Y-13830598D01*
X7911980Y-13719741D01*
X7911982Y-13719739D01*
X7972698Y-13586790D01*
X7992700Y-13518669D01*
X8013500Y-13374000D01*
X8013500Y-9944919D01*
X14086496Y-9944919D01*
X14106457Y-10134846D01*
X14136526Y-10227389D01*
X14165473Y-10316475D01*
X14165476Y-10316480D01*
X14260958Y-10481860D01*
X14260965Y-10481870D01*
X14388744Y-10623783D01*
X14388747Y-10623785D01*
X14543248Y-10736037D01*
X14717712Y-10813713D01*
X14884722Y-10849212D01*
X14947195Y-10882940D01*
X14981517Y-10945090D01*
X14976789Y-11015929D01*
X14934513Y-11072967D01*
X14884723Y-11095705D01*
X14717715Y-11131204D01*
X14543247Y-11208882D01*
X14388744Y-11321135D01*
X14260965Y-11463048D01*
X14260958Y-11463058D01*
X14165476Y-11628438D01*
X14165473Y-11628445D01*
X14106457Y-11810072D01*
X14086496Y-12000000D01*
X14106457Y-12189927D01*
X14136526Y-12282470D01*
X14165473Y-12371556D01*
X14165476Y-12371561D01*
X14260958Y-12536941D01*
X14260965Y-12536951D01*
X14388744Y-12678864D01*
X14388747Y-12678866D01*
X14543248Y-12791118D01*
X14717712Y-12868794D01*
X14904513Y-12908500D01*
X15095487Y-12908500D01*
X15282288Y-12868794D01*
X15448755Y-12794678D01*
X15519118Y-12785245D01*
X15551240Y-12794676D01*
X15717712Y-12868794D01*
X15904513Y-12908500D01*
X16095487Y-12908500D01*
X16282288Y-12868794D01*
X16448755Y-12794678D01*
X16519118Y-12785245D01*
X16551240Y-12794676D01*
X16717712Y-12868794D01*
X16904513Y-12908500D01*
X17095487Y-12908500D01*
X17282288Y-12868794D01*
X17456752Y-12791118D01*
X17611253Y-12678866D01*
X17739040Y-12536944D01*
X17834527Y-12371556D01*
X17893542Y-12189928D01*
X17913504Y-12000000D01*
X17893542Y-11810072D01*
X17834527Y-11628444D01*
X17739040Y-11463056D01*
X17739038Y-11463054D01*
X17739034Y-11463048D01*
X17611255Y-11321135D01*
X17456752Y-11208882D01*
X17282288Y-11131206D01*
X17095487Y-11091500D01*
X16904513Y-11091500D01*
X16717711Y-11131206D01*
X16612231Y-11178168D01*
X16551248Y-11205320D01*
X16480882Y-11214754D01*
X16448752Y-11205320D01*
X16282288Y-11131206D01*
X16095487Y-11091500D01*
X15904513Y-11091500D01*
X15717711Y-11131206D01*
X15612231Y-11178168D01*
X15551248Y-11205320D01*
X15480882Y-11214754D01*
X15448752Y-11205320D01*
X15282288Y-11131206D01*
X15282287Y-11131205D01*
X15282283Y-11131204D01*
X15115277Y-11095705D01*
X15052803Y-11061977D01*
X15018482Y-10999827D01*
X15023210Y-10928988D01*
X15065486Y-10871951D01*
X15115275Y-10849212D01*
X15282288Y-10813713D01*
X15456752Y-10736037D01*
X15611253Y-10623785D01*
X15739040Y-10481863D01*
X15834527Y-10316475D01*
X15893542Y-10134847D01*
X15906754Y-10009134D01*
X15933767Y-9943478D01*
X15942960Y-9933217D01*
X16805613Y-9070566D01*
X16877677Y-8962714D01*
X16927316Y-8842874D01*
X16937611Y-8791118D01*
X16952622Y-8715654D01*
X16952622Y-8220999D01*
X16972624Y-8152878D01*
X16984987Y-8136687D01*
X17033160Y-8083186D01*
X17033159Y-8083186D01*
X17033162Y-8083184D01*
X17128649Y-7917796D01*
X17187664Y-7736168D01*
X17207626Y-7546240D01*
X17187664Y-7356312D01*
X17128649Y-7174684D01*
X17105700Y-7134936D01*
X17074855Y-7081509D01*
X17058117Y-7012513D01*
X17081338Y-6945421D01*
X17137145Y-6901534D01*
X17157771Y-6895263D01*
X17282288Y-6868797D01*
X17456752Y-6791121D01*
X17464163Y-6785736D01*
X17531027Y-6761877D01*
X17600180Y-6777955D01*
X17649662Y-6828867D01*
X17658056Y-6848730D01*
X17665473Y-6871556D01*
X17665476Y-6871561D01*
X17760958Y-7036941D01*
X17760965Y-7036951D01*
X17888744Y-7178864D01*
X17888747Y-7178866D01*
X18043248Y-7291118D01*
X18217712Y-7368794D01*
X18404513Y-7408500D01*
X18595487Y-7408500D01*
X18782288Y-7368794D01*
X18782288Y-7368793D01*
X18782292Y-7368793D01*
X18809251Y-7356790D01*
X18879617Y-7347355D01*
X18943915Y-7377461D01*
X18981728Y-7437549D01*
X18986500Y-7471896D01*
X18986500Y-8528103D01*
X18966498Y-8596224D01*
X18912842Y-8642717D01*
X18842568Y-8652821D01*
X18809253Y-8643211D01*
X18782288Y-8631206D01*
X18595487Y-8591500D01*
X18404513Y-8591500D01*
X18217711Y-8631206D01*
X18043247Y-8708882D01*
X17888744Y-8821135D01*
X17760965Y-8963048D01*
X17760958Y-8963058D01*
X17665476Y-9128438D01*
X17665473Y-9128445D01*
X17606457Y-9310072D01*
X17586496Y-9500000D01*
X17606457Y-9689927D01*
X17627598Y-9754991D01*
X17665473Y-9871556D01*
X17665476Y-9871561D01*
X17760958Y-10036941D01*
X17760965Y-10036951D01*
X17888744Y-10178864D01*
X17888747Y-10178866D01*
X18043248Y-10291118D01*
X18217712Y-10368794D01*
X18404513Y-10408500D01*
X18595487Y-10408500D01*
X18782288Y-10368794D01*
X18782288Y-10368793D01*
X18782292Y-10368793D01*
X18809251Y-10356790D01*
X18879617Y-10347355D01*
X18943915Y-10377461D01*
X18981728Y-10437549D01*
X18986500Y-10471896D01*
X18986500Y-13374009D01*
X18998235Y-13483155D01*
X18998235Y-13483159D01*
X19009617Y-13535480D01*
X19009623Y-13535501D01*
X19044288Y-13639654D01*
X19044290Y-13639657D01*
X19123308Y-13762612D01*
X19123311Y-13762615D01*
X19123315Y-13762621D01*
X19167575Y-13813700D01*
X19169396Y-13815920D01*
X19280258Y-13911980D01*
X19280261Y-13911982D01*
X19413210Y-13972698D01*
X19481331Y-13992700D01*
X19481334Y-13992700D01*
X19481336Y-13992701D01*
X19483473Y-13993008D01*
X19509589Y-13999672D01*
X19515799Y-14001989D01*
X19576362Y-14008500D01*
X19582209Y-14008500D01*
X19600139Y-14009782D01*
X19615923Y-14012051D01*
X19626000Y-14013500D01*
X19626001Y-14013500D01*
X22373994Y-14013500D01*
X22374000Y-14013500D01*
X22483149Y-14001766D01*
X22483158Y-14001764D01*
X22483159Y-14001764D01*
X22499303Y-13998251D01*
X22535491Y-13990380D01*
X22639657Y-13955710D01*
X22762612Y-13876692D01*
X22813721Y-13832405D01*
X22815924Y-13830598D01*
X22911980Y-13719741D01*
X22911982Y-13719739D01*
X22972698Y-13586790D01*
X22992700Y-13518669D01*
X23013500Y-13374000D01*
X23013500Y-2626000D01*
X23001766Y-2516851D01*
X22999238Y-2505231D01*
X22990382Y-2464519D01*
X22990380Y-2464509D01*
X22955710Y-2360343D01*
X22876692Y-2237388D01*
X22832420Y-2186296D01*
X22830600Y-2184077D01*
X22719740Y-2088019D01*
X22719739Y-2088018D01*
X22623692Y-2044155D01*
X22570039Y-1997663D01*
X22550037Y-1929542D01*
X22570039Y-1861421D01*
X22575169Y-1854033D01*
X22655887Y-1746207D01*
X22655887Y-1746206D01*
X22655889Y-1746204D01*
X22706989Y-1609201D01*
X22713500Y-1548638D01*
X22713500Y-451362D01*
X22713499Y-451350D01*
X22706990Y-390803D01*
X22706988Y-390795D01*
X22677924Y-312875D01*
X22655889Y-253796D01*
X22655888Y-253794D01*
X22655887Y-253792D01*
X22568261Y-136738D01*
X22451207Y-49112D01*
X22451202Y-49110D01*
X22314204Y1989D01*
X22314196Y1991D01*
X22253649Y8500D01*
X22253638Y8500D01*
X19968979Y8500D01*
X19900858Y28502D01*
X19854365Y82158D01*
X19844261Y152432D01*
X19849146Y173437D01*
X19893542Y310073D01*
X19913504Y500000D01*
X19893542Y689928D01*
X19834527Y871556D01*
X19739040Y1036944D01*
X19739038Y1036946D01*
X19739034Y1036952D01*
X19611255Y1178865D01*
X19456752Y1291118D01*
X19282288Y1368794D01*
X19095487Y1408500D01*
X18904513Y1408500D01*
X18717711Y1368794D01*
X18543247Y1291118D01*
X18388746Y1178866D01*
X18343636Y1128766D01*
X18283190Y1091527D01*
X18212206Y1092879D01*
X18156364Y1128766D01*
X18111253Y1178866D01*
X17956752Y1291118D01*
X17782288Y1368794D01*
X17595487Y1408500D01*
X17404513Y1408500D01*
X17217711Y1368794D01*
X17043247Y1291118D01*
X16888744Y1178865D01*
X16760965Y1036952D01*
X16760958Y1036942D01*
X16665476Y871562D01*
X16665473Y871555D01*
X16606457Y689928D01*
X16586496Y500000D01*
X16606457Y310073D01*
X16636526Y217530D01*
X16665473Y128444D01*
X16665476Y128439D01*
X16760958Y-36941D01*
X16760965Y-36951D01*
X16888744Y-178864D01*
X16934133Y-211841D01*
X17043248Y-291118D01*
X17217712Y-368794D01*
X17404513Y-408500D01*
X17595487Y-408500D01*
X17782288Y-368794D01*
X17956752Y-291118D01*
X18111253Y-178866D01*
X18156363Y-128765D01*
X18216809Y-91526D01*
X18287793Y-92877D01*
X18343636Y-128765D01*
X18388747Y-178866D01*
X18543248Y-291118D01*
X18717712Y-368794D01*
X18904513Y-408500D01*
X18990500Y-408500D01*
X19058621Y-428502D01*
X19105114Y-482158D01*
X19116500Y-534500D01*
X19116500Y-1548649D01*
X19123009Y-1609196D01*
X19123011Y-1609204D01*
X19174110Y-1746202D01*
X19174112Y-1746207D01*
X19261736Y-1863258D01*
X19261737Y-1863259D01*
X19261739Y-1863261D01*
X19292129Y-1886011D01*
X19334674Y-1942845D01*
X19339740Y-2013661D01*
X19305715Y-2075973D01*
X19284742Y-2092875D01*
X19237384Y-2123310D01*
X19186299Y-2167576D01*
X19184080Y-2169395D01*
X19088019Y-2280258D01*
X19088017Y-2280261D01*
X19027301Y-2413210D01*
X19007302Y-2481322D01*
X19007299Y-2481337D01*
X19006714Y-2485406D01*
X18977219Y-2549986D01*
X18917491Y-2588367D01*
X18908194Y-2590716D01*
X18717716Y-2631204D01*
X18543247Y-2708882D01*
X18388746Y-2821134D01*
X18343636Y-2871234D01*
X18283190Y-2908473D01*
X18212206Y-2907121D01*
X18156364Y-2871234D01*
X18111253Y-2821134D01*
X17956752Y-2708882D01*
X17782288Y-2631206D01*
X17595487Y-2591500D01*
X17404513Y-2591500D01*
X17217711Y-2631206D01*
X17043247Y-2708882D01*
X16888746Y-2821134D01*
X16839132Y-2876235D01*
X16778686Y-2913473D01*
X16707702Y-2912121D01*
X16651860Y-2876233D01*
X16611252Y-2831133D01*
X16456752Y-2718882D01*
X16282288Y-2641206D01*
X16095487Y-2601500D01*
X15904513Y-2601500D01*
X15717711Y-2641206D01*
X15543247Y-2718882D01*
X15388744Y-2831135D01*
X15260965Y-2973048D01*
X15260958Y-2973058D01*
X15165476Y-3138438D01*
X15165473Y-3138445D01*
X15106457Y-3320072D01*
X15086496Y-3510000D01*
X15106457Y-3699927D01*
X15109646Y-3709741D01*
X15165473Y-3881556D01*
X15165476Y-3881561D01*
X15260961Y-4046946D01*
X15309135Y-4100447D01*
X15339853Y-4164454D01*
X15341500Y-4184759D01*
X15341500Y-5125521D01*
X15351305Y-5174812D01*
X15366806Y-5252738D01*
X15416445Y-5372578D01*
X15488509Y-5480430D01*
X15488513Y-5480434D01*
X16064154Y-6056075D01*
X16098180Y-6118387D01*
X16100368Y-6131994D01*
X16106458Y-6189931D01*
X16165473Y-6371559D01*
X16165473Y-6371560D01*
X16165474Y-6371561D01*
X16219267Y-6464734D01*
X16236004Y-6533729D01*
X16212783Y-6600821D01*
X16156976Y-6644708D01*
X16136344Y-6650979D01*
X16011838Y-6677444D01*
X15837369Y-6755122D01*
X15682866Y-6867375D01*
X15555087Y-7009288D01*
X15555080Y-7009298D01*
X15459598Y-7174678D01*
X15459595Y-7174684D01*
X15458237Y-7178864D01*
X15400579Y-7356312D01*
X15380618Y-7546240D01*
X15400579Y-7736167D01*
X15403842Y-7746208D01*
X15459595Y-7917796D01*
X15459598Y-7917801D01*
X15555083Y-8083186D01*
X15603257Y-8136687D01*
X15633975Y-8200694D01*
X15635622Y-8220999D01*
X15635622Y-8325847D01*
X15615620Y-8393968D01*
X15598717Y-8414942D01*
X15014145Y-8999514D01*
X14951833Y-9033540D01*
X14925050Y-9036419D01*
X14904513Y-9036419D01*
X14717711Y-9076125D01*
X14543247Y-9153801D01*
X14388744Y-9266054D01*
X14260965Y-9407967D01*
X14260958Y-9407977D01*
X14165476Y-9573357D01*
X14165473Y-9573364D01*
X14106457Y-9754991D01*
X14086496Y-9944919D01*
X8013500Y-9944919D01*
X8013500Y-8823896D01*
X8004678Y-8729119D01*
X7996093Y-8683405D01*
X7969926Y-8591878D01*
X7898056Y-8464613D01*
X7895843Y-8460694D01*
X7896999Y-8460040D01*
X7879099Y-8410423D01*
X7876990Y-8390804D01*
X7876989Y-8390802D01*
X7876989Y-8390799D01*
X7825889Y-8253796D01*
X7825886Y-8253792D01*
X7825886Y-8253791D01*
X7738261Y-8136738D01*
X7690343Y-8100868D01*
X7647796Y-8044033D01*
X7642731Y-7973217D01*
X7676756Y-7910905D01*
X7690343Y-7899132D01*
X7738261Y-7863261D01*
X7825886Y-7746208D01*
X7825885Y-7746208D01*
X7825889Y-7746204D01*
X7876989Y-7609201D01*
X7878452Y-7595582D01*
X7904505Y-7531395D01*
X7911982Y-7521841D01*
X7972698Y-7388892D01*
X7992700Y-7320771D01*
X8013500Y-7176102D01*
X8013500Y-4971896D01*
X8033502Y-4903775D01*
X8087158Y-4857282D01*
X8157432Y-4847178D01*
X8190749Y-4856790D01*
X8217707Y-4868793D01*
X8217712Y-4868794D01*
X8404513Y-4908500D01*
X8595487Y-4908500D01*
X8721922Y-4881625D01*
X8792712Y-4887027D01*
X8849345Y-4929844D01*
X8873839Y-4996481D01*
X8866556Y-5041044D01*
X8868604Y-5041665D01*
X8866806Y-5047591D01*
X8841500Y-5174808D01*
X8841500Y-7325240D01*
X8821498Y-7393361D01*
X8809136Y-7409550D01*
X8760965Y-7463048D01*
X8760958Y-7463058D01*
X8665476Y-7628438D01*
X8665473Y-7628445D01*
X8606457Y-7810072D01*
X8586496Y-8000000D01*
X8606457Y-8189927D01*
X8627210Y-8253796D01*
X8665473Y-8371556D01*
X8665476Y-8371561D01*
X8760958Y-8536941D01*
X8760965Y-8536951D01*
X8888744Y-8678864D01*
X8888747Y-8678866D01*
X9043248Y-8791118D01*
X9217712Y-8868794D01*
X9404513Y-8908500D01*
X9595487Y-8908500D01*
X9782288Y-8868794D01*
X9956752Y-8791118D01*
X10111253Y-8678866D01*
X10189574Y-8591882D01*
X10239034Y-8536951D01*
X10239035Y-8536949D01*
X10239040Y-8536944D01*
X10334527Y-8371556D01*
X10393542Y-8189928D01*
X10413504Y-8000000D01*
X10393542Y-7810072D01*
X10334527Y-7628444D01*
X10239040Y-7463056D01*
X10239038Y-7463054D01*
X10239034Y-7463048D01*
X10190864Y-7409550D01*
X10160146Y-7345543D01*
X10158500Y-7325240D01*
X10158500Y-5564619D01*
X10178502Y-5496498D01*
X10195405Y-5475524D01*
X10825855Y-4845074D01*
X10888167Y-4811048D01*
X10914950Y-4808169D01*
X10935487Y-4808169D01*
X11122288Y-4768463D01*
X11296752Y-4690787D01*
X11451253Y-4578535D01*
X11579040Y-4436613D01*
X11674527Y-4271225D01*
X11733542Y-4089597D01*
X11753504Y-3899669D01*
X11733542Y-3709741D01*
X11674527Y-3528113D01*
X11579040Y-3362725D01*
X11579038Y-3362723D01*
X11579034Y-3362717D01*
X11451255Y-3220804D01*
X11296752Y-3108551D01*
X11122288Y-3030875D01*
X10935487Y-2991169D01*
X10744513Y-2991169D01*
X10557711Y-3030875D01*
X10383247Y-3108551D01*
X10228744Y-3220804D01*
X10100965Y-3362717D01*
X10100958Y-3362727D01*
X10005476Y-3528107D01*
X10005473Y-3528114D01*
X9946459Y-3709736D01*
X9933245Y-3835453D01*
X9906231Y-3901109D01*
X9897030Y-3911376D01*
X9618720Y-4189686D01*
X9556408Y-4223712D01*
X9485593Y-4218647D01*
X9428757Y-4176100D01*
X9403946Y-4109580D01*
X9404314Y-4087430D01*
X9413504Y-4000000D01*
X9393542Y-3810072D01*
X9334527Y-3628444D01*
X9239040Y-3463056D01*
X9239038Y-3463054D01*
X9239034Y-3463048D01*
X9190864Y-3409550D01*
X9160146Y-3345543D01*
X9158500Y-3325240D01*
X9158500Y-2860142D01*
X9158499Y-2860139D01*
X9152730Y-2831135D01*
X9133194Y-2732923D01*
X9083555Y-2613083D01*
X9011491Y-2505231D01*
X7920405Y-1414145D01*
X7886379Y-1351833D01*
X7883500Y-1325050D01*
X7883500Y-451367D01*
X7883499Y-451350D01*
X7876990Y-390803D01*
X7876988Y-390795D01*
X7847924Y-312875D01*
X7825889Y-253796D01*
X7825888Y-253794D01*
X7825887Y-253792D01*
X7738261Y-136738D01*
X7621207Y-49112D01*
X7621202Y-49110D01*
X7484204Y1989D01*
X7484196Y1991D01*
X7423649Y8500D01*
X7423638Y8500D01*
X4746362Y8500D01*
X4746350Y8500D01*
X4685803Y1991D01*
X4685795Y1989D01*
X4548797Y-49110D01*
X4548792Y-49112D01*
X4431738Y-136738D01*
X4344112Y-253792D01*
X4344110Y-253797D01*
X4293011Y-390795D01*
X4293009Y-390803D01*
X4286500Y-451350D01*
X4286500Y-1548649D01*
X4293009Y-1609196D01*
X4293011Y-1609204D01*
X4344110Y-1746202D01*
X4344112Y-1746207D01*
X4421271Y-1849278D01*
X4446082Y-1915798D01*
X4430991Y-1985172D01*
X4380789Y-2035374D01*
X4360704Y-2044117D01*
X4360346Y-2044288D01*
X4237385Y-2123310D01*
X4186299Y-2167576D01*
X4184080Y-2169395D01*
X4088019Y-2280258D01*
X4088017Y-2280261D01*
X4027301Y-2413210D01*
X4007302Y-2481322D01*
X4007300Y-2481329D01*
X4002195Y-2516840D01*
X3986502Y-2625990D01*
X3986500Y-2626003D01*
X10500Y-2626003D01*
X10500Y-1906214D01*
X30502Y-1838093D01*
X84158Y-1791600D01*
X154432Y-1781496D01*
X219012Y-1810990D01*
X237366Y-1830703D01*
X254831Y-1854033D01*
X261739Y-1863261D01*
X378792Y-1950887D01*
X378794Y-1950888D01*
X378796Y-1950889D01*
X437875Y-1972924D01*
X515795Y-2001988D01*
X515803Y-2001990D01*
X576350Y-2008499D01*
X576355Y-2008499D01*
X576362Y-2008500D01*
X576368Y-2008500D01*
X3253632Y-2008500D01*
X3253638Y-2008500D01*
X3253645Y-2008499D01*
X3253649Y-2008499D01*
X3314196Y-2001990D01*
X3314199Y-2001989D01*
X3314201Y-2001989D01*
X3320175Y-1999761D01*
X3355728Y-1986500D01*
X3451204Y-1950889D01*
X3461950Y-1942845D01*
X3568261Y-1863261D01*
X3655887Y-1746207D01*
X3655887Y-1746206D01*
X3655889Y-1746204D01*
X3706989Y-1609201D01*
X3713500Y-1548638D01*
X3713500Y-451362D01*
X3713499Y-451350D01*
X3706990Y-390803D01*
X3706988Y-390795D01*
X3677924Y-312875D01*
X3655889Y-253796D01*
X3655888Y-253794D01*
X3655887Y-253792D01*
X3568261Y-136738D01*
X3451207Y-49112D01*
X3451202Y-49110D01*
X3314204Y1989D01*
X3314196Y1991D01*
X3253649Y8500D01*
X3253638Y8500D01*
X576362Y8500D01*
X576350Y8500D01*
X515803Y1991D01*
X515795Y1989D01*
X378797Y-49110D01*
X378792Y-49112D01*
X261738Y-136738D01*
X237368Y-169294D01*
X180532Y-211841D01*
X109716Y-216905D01*
X47404Y-182880D01*
X13379Y-120568D01*
X10500Y-93785D01*
X10500Y1863500D01*
X30502Y1931621D01*
X84158Y1978114D01*
X136500Y1989500D01*
X26863500Y1989500D01*
X26931621Y1969498D01*
G37*
G04 #@! TD.AperFunction*
G04 #@! TA.AperFunction,Conductor*
G36*
X22442121Y-2520002D02*
G01*
X22488614Y-2573658D01*
X22500000Y-2626000D01*
X22500000Y-13374000D01*
X22479998Y-13442121D01*
X22426342Y-13488614D01*
X22374000Y-13500000D01*
X19626000Y-13500000D01*
X19557879Y-13479998D01*
X19511386Y-13426342D01*
X19500000Y-13374000D01*
X19500000Y-5823896D01*
X19520002Y-5755775D01*
X19551939Y-5721960D01*
X19611253Y-5678866D01*
X19739040Y-5536944D01*
X19834527Y-5371556D01*
X19893542Y-5189928D01*
X19913504Y-5000000D01*
X19893542Y-4810072D01*
X19834527Y-4628444D01*
X19739040Y-4463056D01*
X19623116Y-4334309D01*
X19592400Y-4270303D01*
X19601164Y-4199849D01*
X19623115Y-4165691D01*
X19739040Y-4036944D01*
X19834527Y-3871556D01*
X19893542Y-3689928D01*
X19913504Y-3500000D01*
X19893542Y-3310072D01*
X19834527Y-3128444D01*
X19739040Y-2963056D01*
X19739038Y-2963054D01*
X19739034Y-2963048D01*
X19611257Y-2821137D01*
X19551937Y-2778037D01*
X19508584Y-2721813D01*
X19500000Y-2676102D01*
X19500000Y-2626000D01*
X19520002Y-2557879D01*
X19573658Y-2511386D01*
X19626000Y-2500000D01*
X22374000Y-2500000D01*
X22442121Y-2520002D01*
G37*
G04 #@! TD.AperFunction*
G04 #@! TA.AperFunction,Conductor*
G36*
X7159671Y-2520002D02*
G01*
X7180645Y-2536905D01*
X7463095Y-2819355D01*
X7497121Y-2881667D01*
X7500000Y-2908450D01*
X7500000Y-7176102D01*
X7479998Y-7244223D01*
X7448063Y-7278037D01*
X7388742Y-7321137D01*
X7260965Y-7463048D01*
X7260958Y-7463058D01*
X7165476Y-7628438D01*
X7165473Y-7628445D01*
X7106457Y-7810072D01*
X7086496Y-8000000D01*
X7106457Y-8189927D01*
X7136526Y-8282470D01*
X7165473Y-8371556D01*
X7165476Y-8371561D01*
X7260958Y-8536941D01*
X7260965Y-8536951D01*
X7388744Y-8678864D01*
X7448061Y-8721960D01*
X7491415Y-8778182D01*
X7500000Y-8823896D01*
X7500000Y-13374000D01*
X7479998Y-13442121D01*
X7426342Y-13488614D01*
X7374000Y-13500000D01*
X4626000Y-13500000D01*
X4557879Y-13479998D01*
X4511386Y-13426342D01*
X4500000Y-13374000D01*
X4500000Y-2626000D01*
X4520002Y-2557879D01*
X4573658Y-2511386D01*
X4626000Y-2500000D01*
X7091550Y-2500000D01*
X7159671Y-2520002D01*
G37*
G04 #@! TD.AperFunction*
D16*
X0Y-16000000D02*
X27000000Y-16000000D01*
X27000000Y2000000D02*
X0Y2000000D01*
X27000000Y-16000000D02*
X27000000Y2000000D01*
X0Y2000000D02*
X0Y-16000000D01*
M02*
