G04 #@! TF.GenerationSoftware,KiCad,Pcbnew,8.0.3*
G04 #@! TF.CreationDate,2024-08-02T23:53:27+02:00*
G04 #@! TF.ProjectId,powermod,706f7765-726d-46f6-942e-6b696361645f,rev?*
G04 #@! TF.SameCoordinates,PXf42400PY2719c40*
G04 #@! TF.FileFunction,Copper,L1,Top*
G04 #@! TF.FilePolarity,Positive*
%FSLAX46Y46*%
G04 Gerber Fmt 4.6, Leading zero omitted, Abs format (unit mm)*
G04 Created by KiCad (PCBNEW 8.0.3) date 2024-08-02 23:53:27*
%MOMM*%
%LPD*%
G01*
G04 APERTURE LIST*
G04 Aperture macros list*
%AMRoundRect*
0 Rectangle with rounded corners*
0 $1 Rounding radius*
0 $2 $3 $4 $5 $6 $7 $8 $9 X,Y pos of 4 corners*
0 Add a 4 corners polygon primitive as box body*
4,1,4,$2,$3,$4,$5,$6,$7,$8,$9,$2,$3,0*
0 Add four circle primitives for the rounded corners*
1,1,$1+$1,$2,$3*
1,1,$1+$1,$4,$5*
1,1,$1+$1,$6,$7*
1,1,$1+$1,$8,$9*
0 Add four rect primitives between the rounded corners*
20,1,$1+$1,$2,$3,$4,$5,0*
20,1,$1+$1,$4,$5,$6,$7,0*
20,1,$1+$1,$6,$7,$8,$9,0*
20,1,$1+$1,$8,$9,$2,$3,0*%
G04 Aperture macros list end*
G04 #@! TA.AperFunction,Conductor*
%ADD10C,0.300000*%
G04 #@! TD*
G04 #@! TA.AperFunction,SMDPad,CuDef*
%ADD11RoundRect,0.250000X1.412500X0.550000X-1.412500X0.550000X-1.412500X-0.550000X1.412500X-0.550000X0*%
G04 #@! TD*
G04 #@! TA.AperFunction,SMDPad,CuDef*
%ADD12RoundRect,0.075000X-0.650000X-0.075000X0.650000X-0.075000X0.650000X0.075000X-0.650000X0.075000X0*%
G04 #@! TD*
G04 #@! TA.AperFunction,HeatsinkPad*
%ADD13C,0.500000*%
G04 #@! TD*
G04 #@! TA.AperFunction,HeatsinkPad*
%ADD14R,2.200000X3.100000*%
G04 #@! TD*
G04 #@! TA.AperFunction,SMDPad,CuDef*
%ADD15RoundRect,0.135000X-0.185000X0.135000X-0.185000X-0.135000X0.185000X-0.135000X0.185000X0.135000X0*%
G04 #@! TD*
G04 #@! TA.AperFunction,SMDPad,CuDef*
%ADD16RoundRect,0.135000X0.135000X0.185000X-0.135000X0.185000X-0.135000X-0.185000X0.135000X-0.185000X0*%
G04 #@! TD*
G04 #@! TA.AperFunction,SMDPad,CuDef*
%ADD17RoundRect,0.135000X-0.135000X-0.185000X0.135000X-0.185000X0.135000X0.185000X-0.135000X0.185000X0*%
G04 #@! TD*
G04 #@! TA.AperFunction,SMDPad,CuDef*
%ADD18RoundRect,0.135000X0.185000X-0.135000X0.185000X0.135000X-0.185000X0.135000X-0.185000X-0.135000X0*%
G04 #@! TD*
G04 #@! TA.AperFunction,SMDPad,CuDef*
%ADD19R,1.500000X4.200000*%
G04 #@! TD*
G04 #@! TA.AperFunction,SMDPad,CuDef*
%ADD20RoundRect,0.250000X1.000000X-1.400000X1.000000X1.400000X-1.000000X1.400000X-1.000000X-1.400000X0*%
G04 #@! TD*
G04 #@! TA.AperFunction,SMDPad,CuDef*
%ADD21RoundRect,0.140000X0.170000X-0.140000X0.170000X0.140000X-0.170000X0.140000X-0.170000X-0.140000X0*%
G04 #@! TD*
G04 #@! TA.AperFunction,SMDPad,CuDef*
%ADD22RoundRect,0.140000X-0.140000X-0.170000X0.140000X-0.170000X0.140000X0.170000X-0.140000X0.170000X0*%
G04 #@! TD*
G04 #@! TA.AperFunction,SMDPad,CuDef*
%ADD23RoundRect,0.250000X0.475000X-0.250000X0.475000X0.250000X-0.475000X0.250000X-0.475000X-0.250000X0*%
G04 #@! TD*
G04 #@! TA.AperFunction,SMDPad,CuDef*
%ADD24RoundRect,0.140000X0.140000X0.170000X-0.140000X0.170000X-0.140000X-0.170000X0.140000X-0.170000X0*%
G04 #@! TD*
G04 #@! TA.AperFunction,ViaPad*
%ADD25C,0.800000*%
G04 #@! TD*
G04 #@! TA.AperFunction,ViaPad*
%ADD26C,0.600000*%
G04 #@! TD*
G04 #@! TA.AperFunction,Conductor*
%ADD27C,0.250000*%
G04 #@! TD*
G04 #@! TA.AperFunction,Conductor*
%ADD28C,0.500000*%
G04 #@! TD*
G04 #@! TA.AperFunction,Conductor*
%ADD29C,0.600000*%
G04 #@! TD*
G04 #@! TA.AperFunction,Conductor*
%ADD30C,0.700000*%
G04 #@! TD*
G04 #@! TA.AperFunction,Profile*
%ADD31C,0.120000*%
G04 #@! TD*
G04 APERTURE END LIST*
D10*
X14500000Y-5500000D02*
X15000000Y-5500000D01*
X14000000Y-5500000D02*
X14500000Y-5500000D01*
D11*
X6930640Y-1500000D03*
X1855640Y-1500000D03*
D12*
X10890000Y-4970000D03*
X10890000Y-5470000D03*
X10890000Y-5970000D03*
X10890000Y-6470000D03*
X10890000Y-6970000D03*
X15190000Y-6970000D03*
X15190000Y-6470000D03*
X15190000Y-5970000D03*
X15190000Y-5470000D03*
X15190000Y-4970000D03*
D13*
X12390000Y-4670000D03*
X12390000Y-5970000D03*
X12390000Y-7270000D03*
D14*
X13040000Y-5970000D03*
D13*
X13690000Y-4670000D03*
X13690000Y-5970000D03*
X13690000Y-7270000D03*
D15*
X15000000Y-2490000D03*
X15000000Y-3510000D03*
D16*
X11510000Y-8500000D03*
X10490000Y-8500000D03*
X9010000Y-5000000D03*
X7990000Y-5000000D03*
X9010000Y-7000000D03*
X7990000Y-7000000D03*
D17*
X7990000Y-6000000D03*
X9010000Y-6000000D03*
D18*
X15000000Y-9510000D03*
X15000000Y-8490000D03*
X15000000Y-11510000D03*
X15000000Y-10490000D03*
D19*
X18700000Y-8000000D03*
X22300000Y-8000000D03*
D20*
X18100000Y-1500000D03*
X24900000Y-1500000D03*
D21*
X17204121Y-7495657D03*
X17204121Y-6535657D03*
D22*
X14020000Y-1500000D03*
X14980000Y-1500000D03*
X10020000Y-2500000D03*
X10980000Y-2500000D03*
D23*
X16500000Y-10900000D03*
X16500000Y-9000000D03*
D24*
X14980000Y-500000D03*
X14020000Y-500000D03*
D25*
X7000000Y-6000000D03*
X6500000Y-4000000D03*
X5500000Y-4000000D03*
X15000000Y-12000000D03*
X16000000Y-12000000D03*
X17000000Y-12000000D03*
X8000000Y-8000000D03*
X26000000Y-12000000D03*
X26000000Y-10000000D03*
X26000000Y-8000000D03*
X26000000Y-6000000D03*
X17000000Y-6000003D03*
X16000000Y-3510000D03*
X16294122Y-7546240D03*
X15000000Y-9944919D03*
X10840000Y-3899669D03*
X9500000Y-8000000D03*
X8500000Y-4000000D03*
X22000000Y-6500000D03*
X22000000Y-9500000D03*
X19000000Y-5000000D03*
X18000000Y-5000000D03*
X17000000Y-5000000D03*
X19000000Y500000D03*
X19000000Y-3500000D03*
X17500000Y-3500000D03*
X17500000Y500000D03*
X18500000Y-9500000D03*
X18500000Y-6500000D03*
X26000000Y1000000D03*
X25000000Y1000000D03*
X24000000Y1000000D03*
X26000000Y-4000000D03*
X25000000Y-4000000D03*
X24000000Y-4000000D03*
X13500000Y-8500000D03*
X13500000Y-9500000D03*
X13500000Y-10500000D03*
X12500000Y-10500000D03*
X12500000Y-9500000D03*
X12500000Y-8500000D03*
X13500000Y-3500000D03*
X13500000Y-2500000D03*
X13500000Y-1500000D03*
X12500000Y-3500000D03*
X12500000Y-2500000D03*
X12500000Y-1500000D03*
D26*
X1000000Y-4000000D03*
X1000000Y-6000000D03*
X1000000Y-10000000D03*
X1000000Y-12000000D03*
X1000000Y-8000000D03*
X1000000Y-14000000D03*
D27*
X19000000Y-3500000D02*
X19000000Y-2400000D01*
X19000000Y-2400000D02*
X18100000Y-1500000D01*
X17500000Y-3500000D02*
X17500000Y-2100000D01*
X17500000Y-2100000D02*
X18100000Y-1500000D01*
X19000000Y500000D02*
X19000000Y-600000D01*
X19000000Y-600000D02*
X18100000Y-1500000D01*
X17500000Y500000D02*
X17500000Y-900000D01*
X17500000Y-900000D02*
X18100000Y-1500000D01*
D28*
X5500000Y-4000000D02*
X5500000Y-2930640D01*
X5500000Y-2930640D02*
X6930640Y-1500000D01*
X6430640Y-2000000D02*
X7000000Y-2000000D01*
D10*
X10890000Y-5470000D02*
X10061880Y-5470000D01*
X10061880Y-5470000D02*
X9678863Y-5086983D01*
X9678863Y-5086983D02*
X9678863Y-3678863D01*
X9678863Y-3678863D02*
X8000000Y-2000000D01*
X8000000Y-2000000D02*
X7000000Y-2000000D01*
D28*
X7000000Y-6000000D02*
X7970366Y-6000000D01*
X6500000Y-4000000D02*
X6500000Y-2500000D01*
D27*
X6500000Y-2500000D02*
X7000000Y-2000000D01*
D10*
X8500000Y-4000000D02*
X8500000Y-4480000D01*
X8500000Y-4480000D02*
X7980000Y-5000000D01*
X14980000Y-500000D02*
X17100000Y-500000D01*
X17100000Y-500000D02*
X18100000Y-1500000D01*
X10840000Y-3899669D02*
X10840000Y-2640000D01*
X10840000Y-2640000D02*
X10980000Y-2500000D01*
D29*
X15000000Y-11510000D02*
X15000000Y-12000000D01*
D10*
X10890000Y-4970000D02*
X11590000Y-4270000D01*
X11590000Y-4270000D02*
X11590000Y-1150001D01*
X11590000Y-1150001D02*
X12240001Y-500000D01*
X12240001Y-500000D02*
X14020000Y-500000D01*
D29*
X15000000Y-8490000D02*
X15990000Y-8490000D01*
X15990000Y-8490000D02*
X16500000Y-9000000D01*
X15000000Y-8490000D02*
X13510000Y-8490000D01*
D10*
X13510000Y-8490000D02*
X13500000Y-8500000D01*
D30*
X15000000Y-10490000D02*
X15000000Y-9510000D01*
D10*
X7970366Y-6000000D02*
X7990000Y-6000000D01*
X15000000Y-10490000D02*
X15000000Y-9944919D01*
X16000000Y-3510000D02*
X15000000Y-3510000D01*
X9000000Y-7000000D02*
X8000000Y-8000000D01*
X9010000Y-7000000D02*
X9000000Y-7000000D01*
D29*
X14980000Y-1500000D02*
X14980000Y-2470000D01*
D10*
X14980000Y-2470000D02*
X15000000Y-2490000D01*
X16969997Y-5970000D02*
X17000000Y-6000003D01*
X15190000Y-5970000D02*
X16969997Y-5970000D01*
X16294122Y-6746002D02*
X16294122Y-7546240D01*
X16018120Y-6470000D02*
X16294122Y-6746002D01*
X15190000Y-6470000D02*
X16018120Y-6470000D01*
D29*
X17204121Y-7495657D02*
X17204121Y-8295879D01*
X17204121Y-8295879D02*
X16500000Y-9000000D01*
D10*
X10890000Y-6470000D02*
X10061880Y-6470000D01*
X10061880Y-6470000D02*
X9815000Y-6716880D01*
X9815000Y-6716880D02*
X9815000Y-7685000D01*
X9815000Y-7685000D02*
X9500000Y-8000000D01*
X7990000Y-7000000D02*
X8000366Y-7000000D01*
X8000366Y-7000000D02*
X9000366Y-6000000D01*
X9000366Y-6000000D02*
X9010000Y-6000000D01*
X9010000Y-6000000D02*
X9010000Y-5010000D01*
X9010000Y-5010000D02*
X9000000Y-5000000D01*
X9010000Y-6000000D02*
X9040000Y-5970000D01*
X9040000Y-5970000D02*
X10890000Y-5970000D01*
X10490000Y-8500000D02*
X10490000Y-7370000D01*
X10490000Y-7370000D02*
X10890000Y-6970000D01*
D29*
X11510000Y-8500000D02*
X12500000Y-8500000D01*
D10*
X15190000Y-5970000D02*
X16450000Y-5970000D01*
X16450000Y-5970000D02*
X17000000Y-6520000D01*
X18000000Y-5000000D02*
X19000000Y-5000000D01*
X17000000Y-5000000D02*
X18000000Y-5000000D01*
X15190000Y-4970000D02*
X16970000Y-4970000D01*
X16970000Y-4970000D02*
X17000000Y-5000000D01*
D27*
X18100000Y-2060000D02*
X18100000Y-1500000D01*
D28*
X7036256Y-6000000D02*
X7000000Y-6000000D01*
G04 #@! TA.AperFunction,Conductor*
G36*
X14245725Y-7554681D02*
G01*
X14245732Y-7554686D01*
X14387676Y-7613481D01*
X14501756Y-7628500D01*
X15275812Y-7628500D01*
X15343933Y-7648502D01*
X15390426Y-7702158D01*
X15398019Y-7729959D01*
X15399206Y-7729707D01*
X15400578Y-7736164D01*
X15414909Y-7780268D01*
X15459595Y-7917796D01*
X15459598Y-7917801D01*
X15555080Y-8083181D01*
X15555087Y-8083191D01*
X15682866Y-8225104D01*
X15682869Y-8225106D01*
X15837370Y-8337358D01*
X16011834Y-8415034D01*
X16198635Y-8454740D01*
X16389609Y-8454740D01*
X16576410Y-8415034D01*
X16750874Y-8337358D01*
X16905375Y-8225106D01*
X16915794Y-8213535D01*
X17033156Y-8083191D01*
X17033157Y-8083189D01*
X17033162Y-8083184D01*
X17128649Y-7917796D01*
X17187664Y-7736168D01*
X17190190Y-7712136D01*
X17217203Y-7646479D01*
X17275424Y-7605849D01*
X17346369Y-7603146D01*
X17407514Y-7639228D01*
X17439444Y-7702638D01*
X17441500Y-7725306D01*
X17441500Y-9710082D01*
X17421498Y-9778203D01*
X17367842Y-9824696D01*
X17297568Y-9834800D01*
X17280534Y-9831133D01*
X17268911Y-9827775D01*
X17261135Y-9825529D01*
X17259382Y-9824984D01*
X17258687Y-9824821D01*
X17258683Y-9824820D01*
X17258682Y-9824820D01*
X17197802Y-9816338D01*
X17113926Y-9804652D01*
X17113923Y-9804652D01*
X17084910Y-9804778D01*
X16003348Y-9809501D01*
X15935141Y-9789796D01*
X15888414Y-9736344D01*
X15882965Y-9722438D01*
X15864667Y-9666122D01*
X15858500Y-9627186D01*
X15858500Y-9425444D01*
X15858499Y-9425441D01*
X15839216Y-9328500D01*
X15825508Y-9259585D01*
X15814991Y-9234195D01*
X15810406Y-9221137D01*
X15803541Y-9197507D01*
X15780269Y-9117404D01*
X15780267Y-9117400D01*
X15780267Y-9117399D01*
X15697507Y-8977460D01*
X15697501Y-8977453D01*
X15582546Y-8862498D01*
X15582542Y-8862495D01*
X15582541Y-8862494D01*
X15556395Y-8847031D01*
X15530323Y-8831612D01*
X15524461Y-8827924D01*
X15406652Y-8749207D01*
X15250418Y-8684493D01*
X15250415Y-8684492D01*
X15084558Y-8651500D01*
X15084555Y-8651500D01*
X14915445Y-8651500D01*
X14915441Y-8651500D01*
X14749584Y-8684492D01*
X14749581Y-8684493D01*
X14593346Y-8749208D01*
X14475527Y-8827931D01*
X14469666Y-8831618D01*
X14417459Y-8862493D01*
X14417455Y-8862496D01*
X14302498Y-8977453D01*
X14302492Y-8977460D01*
X14219732Y-9117400D01*
X14219730Y-9117404D01*
X14189589Y-9221145D01*
X14185005Y-9234201D01*
X14174493Y-9259582D01*
X14174492Y-9259585D01*
X14155998Y-9352553D01*
X14154164Y-7484424D01*
X14245725Y-7554681D01*
G37*
G04 #@! TD.AperFunction*
G04 #@! TA.AperFunction,Conductor*
G36*
X14160114Y-1392158D02*
G01*
X14171500Y-1444500D01*
X14171500Y-2689987D01*
X14174370Y-2726464D01*
X14219732Y-2882599D01*
X14251231Y-2935862D01*
X14268690Y-3004679D01*
X14251231Y-3064138D01*
X14219732Y-3117400D01*
X14174370Y-3273534D01*
X14174370Y-3273535D01*
X14171500Y-3310001D01*
X14171500Y-3709987D01*
X14174370Y-3746464D01*
X14219732Y-3902600D01*
X14302492Y-4042539D01*
X14302498Y-4042546D01*
X14394904Y-4134952D01*
X14428930Y-4197264D01*
X14423865Y-4268079D01*
X14381318Y-4324915D01*
X14354028Y-4340455D01*
X14245737Y-4385311D01*
X14245725Y-4385318D01*
X14151193Y-4457854D01*
X14148170Y-1378374D01*
X14160114Y-1392158D01*
G37*
G04 #@! TD.AperFunction*
G04 #@! TA.AperFunction,Conductor*
G36*
X26931621Y1969498D02*
G01*
X26978114Y1915842D01*
X26989500Y1863500D01*
X26989500Y-15863500D01*
X26969498Y-15931621D01*
X26915842Y-15978114D01*
X26863500Y-15989500D01*
X136500Y-15989500D01*
X68379Y-15969498D01*
X21886Y-15915842D01*
X10500Y-15863500D01*
X10500Y-4000000D01*
X4586496Y-4000000D01*
X4606457Y-4189927D01*
X4631851Y-4268079D01*
X4665473Y-4371556D01*
X4673416Y-4385314D01*
X4760958Y-4536941D01*
X4760965Y-4536951D01*
X4888744Y-4678864D01*
X4918277Y-4700321D01*
X5043248Y-4791118D01*
X5217712Y-4868794D01*
X5404513Y-4908500D01*
X5595487Y-4908500D01*
X5782288Y-4868794D01*
X5948755Y-4794678D01*
X6019118Y-4785245D01*
X6051240Y-4794676D01*
X6217712Y-4868794D01*
X6404513Y-4908500D01*
X6595486Y-4908500D01*
X6595487Y-4908500D01*
X6613918Y-4904582D01*
X6684706Y-4909981D01*
X6741340Y-4952796D01*
X6765837Y-5019433D01*
X6750418Y-5088735D01*
X6699980Y-5138699D01*
X6691366Y-5142934D01*
X6543254Y-5208878D01*
X6543248Y-5208882D01*
X6388744Y-5321135D01*
X6260965Y-5463048D01*
X6260958Y-5463058D01*
X6165476Y-5628438D01*
X6165473Y-5628445D01*
X6106457Y-5810072D01*
X6086496Y-6000000D01*
X6106457Y-6189927D01*
X6121573Y-6236447D01*
X6165473Y-6371556D01*
X6165476Y-6371561D01*
X6260958Y-6536941D01*
X6260965Y-6536951D01*
X6388744Y-6678864D01*
X6422727Y-6703554D01*
X6543248Y-6791118D01*
X6717712Y-6868794D01*
X6904513Y-6908500D01*
X7085500Y-6908500D01*
X7153621Y-6928502D01*
X7200114Y-6982158D01*
X7211500Y-7034499D01*
X7211500Y-7249987D01*
X7214370Y-7286464D01*
X7259732Y-7442600D01*
X7342492Y-7582539D01*
X7342498Y-7582546D01*
X7457453Y-7697501D01*
X7457460Y-7697507D01*
X7597399Y-7780267D01*
X7597402Y-7780267D01*
X7597404Y-7780269D01*
X7753534Y-7825629D01*
X7790011Y-7828500D01*
X8189988Y-7828499D01*
X8226466Y-7825629D01*
X8382596Y-7780269D01*
X8408999Y-7764654D01*
X8477812Y-7747194D01*
X8545144Y-7769709D01*
X8589614Y-7825052D01*
X8598448Y-7886277D01*
X8586496Y-7999999D01*
X8606457Y-8189927D01*
X8636526Y-8282470D01*
X8665473Y-8371556D01*
X8665476Y-8371561D01*
X8760958Y-8536941D01*
X8760965Y-8536951D01*
X8888744Y-8678864D01*
X8888747Y-8678866D01*
X9043248Y-8791118D01*
X9217712Y-8868794D01*
X9404513Y-8908500D01*
X9595486Y-8908500D01*
X9595487Y-8908500D01*
X9634915Y-8900119D01*
X9705705Y-8905520D01*
X9762338Y-8948336D01*
X9769565Y-8959225D01*
X9842495Y-9082542D01*
X9842498Y-9082546D01*
X9957453Y-9197501D01*
X9957460Y-9197507D01*
X10097399Y-9280267D01*
X10097402Y-9280267D01*
X10097404Y-9280269D01*
X10253534Y-9325629D01*
X10290011Y-9328500D01*
X10689988Y-9328499D01*
X10726466Y-9325629D01*
X10882596Y-9280269D01*
X10882598Y-9280267D01*
X10882600Y-9280267D01*
X10975892Y-9225093D01*
X11022541Y-9197506D01*
X11137506Y-9082541D01*
X11210435Y-8959225D01*
X11220267Y-8942600D01*
X11220267Y-8942598D01*
X11220269Y-8942596D01*
X11265629Y-8786466D01*
X11268500Y-8749989D01*
X11268499Y-8250012D01*
X11265629Y-8213534D01*
X11220269Y-8057404D01*
X11220267Y-8057400D01*
X11166046Y-7965715D01*
X11148500Y-7901577D01*
X11148500Y-7754500D01*
X11168502Y-7686379D01*
X11222158Y-7639886D01*
X11274500Y-7628500D01*
X11578237Y-7628500D01*
X11578244Y-7628500D01*
X11692324Y-7613481D01*
X11834268Y-7554686D01*
X11925028Y-7485043D01*
X11925028Y-11000000D01*
X14157616Y-11000000D01*
X14157276Y-10653867D01*
X14174492Y-10740414D01*
X14174494Y-10740420D01*
X14185006Y-10765801D01*
X14189592Y-10778860D01*
X14219732Y-10882599D01*
X14251231Y-10935862D01*
X14268690Y-11004679D01*
X14251231Y-11064138D01*
X14219732Y-11117400D01*
X14174370Y-11273534D01*
X14174370Y-11273535D01*
X14171500Y-11310001D01*
X14171500Y-11589939D01*
X14165333Y-11628876D01*
X14106457Y-11810072D01*
X14086496Y-12000000D01*
X14106457Y-12189929D01*
X14120537Y-12233261D01*
X14126412Y-12280776D01*
X14125254Y-12297735D01*
X14125254Y-12297736D01*
X14124259Y-12312289D01*
X14131830Y-12441742D01*
X14143442Y-12503789D01*
X14174103Y-12598973D01*
X14183203Y-12627225D01*
X14263427Y-12749397D01*
X14310445Y-12802593D01*
X14310449Y-12802597D01*
X14384705Y-12865673D01*
X14421835Y-12897214D01*
X14421838Y-12897215D01*
X14421839Y-12897216D01*
X14460539Y-12914432D01*
X14555375Y-12956621D01*
X14555381Y-12956622D01*
X14555382Y-12956623D01*
X14622293Y-12975558D01*
X14623588Y-12975940D01*
X14623690Y-12975953D01*
X14623691Y-12975954D01*
X14768559Y-12995331D01*
X17122998Y-12972191D01*
X17122999Y-12972191D01*
X17169285Y-12966869D01*
X17229565Y-12959939D01*
X17280669Y-12948559D01*
X17382370Y-12914432D01*
X17505325Y-12835414D01*
X17556434Y-12791127D01*
X17558637Y-12789320D01*
X17593230Y-12749396D01*
X17654695Y-12678461D01*
X17690997Y-12598969D01*
X17711971Y-12567006D01*
X17739040Y-12536944D01*
X17834527Y-12371556D01*
X17893542Y-12189928D01*
X17913504Y-12000000D01*
X17893542Y-11810072D01*
X17834527Y-11628444D01*
X17773094Y-11522038D01*
X17756213Y-11459038D01*
X17756213Y-10733167D01*
X17776215Y-10665046D01*
X17829871Y-10618553D01*
X17895688Y-10607890D01*
X17897790Y-10608116D01*
X17901351Y-10608499D01*
X17901354Y-10608499D01*
X17901362Y-10608500D01*
X17901368Y-10608500D01*
X19498632Y-10608500D01*
X19498638Y-10608500D01*
X19498645Y-10608499D01*
X19498649Y-10608499D01*
X19559196Y-10601990D01*
X19559199Y-10601989D01*
X19559201Y-10601989D01*
X19696204Y-10550889D01*
X19813261Y-10463261D01*
X19900889Y-10346204D01*
X19951989Y-10209201D01*
X19958500Y-10148638D01*
X19958500Y-5851362D01*
X19958499Y-5851350D01*
X21041500Y-5851350D01*
X21041500Y-10148649D01*
X21048009Y-10209196D01*
X21048011Y-10209204D01*
X21099110Y-10346202D01*
X21099112Y-10346207D01*
X21186738Y-10463261D01*
X21303792Y-10550887D01*
X21303794Y-10550888D01*
X21303796Y-10550889D01*
X21356211Y-10570439D01*
X21440795Y-10601988D01*
X21440803Y-10601990D01*
X21501350Y-10608499D01*
X21501355Y-10608499D01*
X21501362Y-10608500D01*
X21501368Y-10608500D01*
X23098632Y-10608500D01*
X23098638Y-10608500D01*
X23098645Y-10608499D01*
X23098649Y-10608499D01*
X23159196Y-10601990D01*
X23159199Y-10601989D01*
X23159201Y-10601989D01*
X23296204Y-10550889D01*
X23413261Y-10463261D01*
X23500889Y-10346204D01*
X23551989Y-10209201D01*
X23558500Y-10148638D01*
X23558500Y-5851362D01*
X23554061Y-5810072D01*
X23551990Y-5790803D01*
X23551988Y-5790795D01*
X23500889Y-5653797D01*
X23500887Y-5653792D01*
X23413261Y-5536738D01*
X23296207Y-5449112D01*
X23296202Y-5449110D01*
X23159204Y-5398011D01*
X23159196Y-5398009D01*
X23098649Y-5391500D01*
X23098638Y-5391500D01*
X21501362Y-5391500D01*
X21501350Y-5391500D01*
X21440803Y-5398009D01*
X21440795Y-5398011D01*
X21303797Y-5449110D01*
X21303792Y-5449112D01*
X21186738Y-5536738D01*
X21099112Y-5653792D01*
X21099110Y-5653797D01*
X21048011Y-5790795D01*
X21048009Y-5790803D01*
X21041500Y-5851350D01*
X19958499Y-5851350D01*
X19954061Y-5810072D01*
X19951990Y-5790803D01*
X19951988Y-5790795D01*
X19900889Y-5653797D01*
X19900887Y-5653792D01*
X19821231Y-5547385D01*
X19796420Y-5480865D01*
X19811511Y-5411491D01*
X19812981Y-5408874D01*
X19834525Y-5371559D01*
X19834527Y-5371556D01*
X19893542Y-5189928D01*
X19913504Y-5000000D01*
X19893542Y-4810072D01*
X19834527Y-4628444D01*
X19739040Y-4463056D01*
X19623116Y-4334309D01*
X19592400Y-4270303D01*
X19601164Y-4199849D01*
X19623115Y-4165691D01*
X19739040Y-4036944D01*
X19834527Y-3871556D01*
X19893542Y-3689928D01*
X19913504Y-3500000D01*
X19893542Y-3310072D01*
X19841773Y-3150747D01*
X19839746Y-3079782D01*
X19841990Y-3072219D01*
X19847887Y-3054426D01*
X19858500Y-2950545D01*
X19858499Y-49456D01*
X19847887Y54426D01*
X19842002Y72184D01*
X19839562Y143136D01*
X19841762Y150713D01*
X19893542Y310072D01*
X19913504Y500000D01*
X19893542Y689928D01*
X19834527Y871556D01*
X19739040Y1036944D01*
X19739038Y1036946D01*
X19739034Y1036952D01*
X19611255Y1178865D01*
X19456752Y1291118D01*
X19282288Y1368794D01*
X19095487Y1408500D01*
X18904513Y1408500D01*
X18717711Y1368794D01*
X18543247Y1291118D01*
X18388746Y1178866D01*
X18343636Y1128766D01*
X18283190Y1091527D01*
X18212206Y1092879D01*
X18156364Y1128766D01*
X18111253Y1178866D01*
X17956752Y1291118D01*
X17782288Y1368794D01*
X17595487Y1408500D01*
X17404513Y1408500D01*
X17217711Y1368794D01*
X17043247Y1291118D01*
X16888744Y1178865D01*
X16760965Y1036952D01*
X16760958Y1036942D01*
X16665476Y871562D01*
X16665473Y871555D01*
X16606457Y689928D01*
X16586365Y498759D01*
X16559352Y433103D01*
X16550152Y422836D01*
X16500972Y373655D01*
X16500970Y373653D01*
X16466952Y318500D01*
X16407885Y222738D01*
X16407884Y222736D01*
X16405181Y218353D01*
X16352395Y170875D01*
X16297940Y158500D01*
X15599850Y158500D01*
X15531729Y178502D01*
X15522626Y184939D01*
X15520631Y186487D01*
X15379599Y269893D01*
X15379598Y269894D01*
X15379597Y269894D01*
X15300925Y292750D01*
X15222252Y315607D01*
X15185493Y318500D01*
X15185484Y318500D01*
X14774516Y318500D01*
X14774507Y318500D01*
X14737748Y315607D01*
X14737747Y315607D01*
X14580400Y269893D01*
X14564137Y260275D01*
X14495320Y242817D01*
X14435863Y260275D01*
X14419599Y269893D01*
X14419598Y269894D01*
X14419597Y269894D01*
X14340925Y292750D01*
X14262252Y315607D01*
X14225493Y318500D01*
X14225484Y318500D01*
X13814516Y318500D01*
X13814507Y318500D01*
X13777748Y315607D01*
X13777747Y315607D01*
X13620400Y269893D01*
X13479368Y186487D01*
X13477374Y184939D01*
X13475525Y184214D01*
X13472549Y182453D01*
X13472265Y182934D01*
X13411288Y158993D01*
X13400150Y158500D01*
X12175140Y158500D01*
X12047923Y133194D01*
X12047920Y133193D01*
X11928084Y83555D01*
X11820232Y11491D01*
X11820231Y11490D01*
X11078508Y-730232D01*
X11006744Y-837636D01*
X11006445Y-838083D01*
X10956807Y-957920D01*
X10956806Y-957923D01*
X10931500Y-1085140D01*
X10931500Y-1555500D01*
X10911498Y-1623621D01*
X10857842Y-1670114D01*
X10805500Y-1681500D01*
X10774507Y-1681500D01*
X10737748Y-1684393D01*
X10737747Y-1684393D01*
X10580400Y-1730107D01*
X10439369Y-1813513D01*
X10439365Y-1813516D01*
X10323516Y-1929365D01*
X10323513Y-1929369D01*
X10240107Y-2070400D01*
X10194393Y-2227747D01*
X10194393Y-2227748D01*
X10191500Y-2264506D01*
X10191500Y-2512458D01*
X10189079Y-2537040D01*
X10181500Y-2575139D01*
X10181500Y-2946050D01*
X10161498Y-3014171D01*
X10107842Y-3060664D01*
X10037568Y-3070768D01*
X9972988Y-3041274D01*
X9966405Y-3035145D01*
X9137504Y-2206244D01*
X9103478Y-2143932D01*
X9101252Y-2104342D01*
X9101640Y-2100545D01*
X9101639Y-899456D01*
X9095369Y-838083D01*
X9091027Y-795574D01*
X9069375Y-730232D01*
X9035255Y-627262D01*
X8942170Y-476348D01*
X8942169Y-476347D01*
X8942164Y-476341D01*
X8816798Y-350975D01*
X8816792Y-350970D01*
X8665878Y-257885D01*
X8581722Y-229999D01*
X8497567Y-202113D01*
X8497560Y-202112D01*
X8393693Y-191500D01*
X5467595Y-191500D01*
X5363714Y-202112D01*
X5195401Y-257885D01*
X5044487Y-350970D01*
X5044481Y-350975D01*
X4919115Y-476341D01*
X4919110Y-476347D01*
X4826025Y-627262D01*
X4770253Y-795572D01*
X4770252Y-795579D01*
X4759640Y-899446D01*
X4759640Y-2100544D01*
X4770253Y-2204427D01*
X4770253Y-2204431D01*
X4826025Y-2372737D01*
X4826026Y-2372741D01*
X4848113Y-2408549D01*
X4866850Y-2477029D01*
X4845639Y-2544695D01*
X4827826Y-2571354D01*
X4770648Y-2709394D01*
X4770646Y-2709399D01*
X4765854Y-2733497D01*
X4765854Y-2733500D01*
X4741500Y-2855930D01*
X4741500Y-3462999D01*
X4724619Y-3525999D01*
X4665476Y-3628438D01*
X4665473Y-3628445D01*
X4606457Y-3810072D01*
X4586496Y-4000000D01*
X10500Y-4000000D01*
X10500Y1863500D01*
X30502Y1931621D01*
X84158Y1978114D01*
X136500Y1989500D01*
X26863500Y1989500D01*
X26931621Y1969498D01*
G37*
G04 #@! TD.AperFunction*
G04 #@! TA.AperFunction,Conductor*
G36*
X13468271Y-1178502D02*
G01*
X13477374Y-1184939D01*
X13479368Y-1186486D01*
X13479370Y-1186487D01*
X13479371Y-1186488D01*
X13620403Y-1269894D01*
X13777746Y-1315606D01*
X13814506Y-1318499D01*
X13814507Y-1318500D01*
X14148112Y-1318500D01*
X14151193Y-4457854D01*
X14123842Y-4478842D01*
X14030318Y-4600725D01*
X14030313Y-4600733D01*
X13971518Y-4742677D01*
X13956500Y-4856753D01*
X13956500Y-5083246D01*
X13971518Y-5197322D01*
X14030313Y-5339266D01*
X14030318Y-5339274D01*
X14071771Y-5393296D01*
X14097372Y-5459516D01*
X14083107Y-5529065D01*
X14071771Y-5546704D01*
X14030318Y-5600725D01*
X14030313Y-5600733D01*
X13971518Y-5742677D01*
X13956500Y-5856753D01*
X13956500Y-6083246D01*
X13972339Y-6203554D01*
X13972339Y-6236446D01*
X13956500Y-6356753D01*
X13956500Y-6583246D01*
X13972339Y-6703554D01*
X13972339Y-6736446D01*
X13956500Y-6856753D01*
X13956500Y-7083246D01*
X13971518Y-7197322D01*
X14030313Y-7339266D01*
X14030318Y-7339274D01*
X14123842Y-7461157D01*
X14154164Y-7484424D01*
X14155998Y-9352553D01*
X14141500Y-9425441D01*
X14141500Y-9627186D01*
X14135333Y-9666122D01*
X14106457Y-9754990D01*
X14086496Y-9944919D01*
X14106457Y-10134846D01*
X14135333Y-10223714D01*
X14141500Y-10262651D01*
X14141500Y-10574558D01*
X14157276Y-10653867D01*
X14157616Y-11000000D01*
X11925028Y-11000000D01*
X11925028Y-7485043D01*
X11956157Y-7461157D01*
X12049681Y-7339274D01*
X12049686Y-7339268D01*
X12108481Y-7197324D01*
X12123500Y-7083244D01*
X12123500Y-6856756D01*
X12108481Y-6742676D01*
X12108479Y-6742672D01*
X12107660Y-6736447D01*
X12107660Y-6703553D01*
X12108479Y-6697327D01*
X12108481Y-6697324D01*
X12123500Y-6583244D01*
X12123500Y-6356756D01*
X12108481Y-6242676D01*
X12108479Y-6242672D01*
X12107660Y-6236447D01*
X12107660Y-6203553D01*
X12108479Y-6197327D01*
X12108481Y-6197324D01*
X12123500Y-6083244D01*
X12123500Y-5856756D01*
X12108481Y-5742676D01*
X12108479Y-5742672D01*
X12107660Y-5736447D01*
X12107660Y-5703553D01*
X12108479Y-5697327D01*
X12108481Y-5697324D01*
X12123500Y-5583244D01*
X12123500Y-5356756D01*
X12108481Y-5242676D01*
X12108479Y-5242672D01*
X12107660Y-5236447D01*
X12107660Y-5203553D01*
X12108479Y-5197327D01*
X12108481Y-5197324D01*
X12123500Y-5083244D01*
X12123500Y-4856756D01*
X12108481Y-4742676D01*
X12108480Y-4742674D01*
X12107701Y-4736754D01*
X12118640Y-4666606D01*
X12127851Y-4650316D01*
X12173555Y-4581917D01*
X12223194Y-4462077D01*
X12248500Y-4334857D01*
X12248500Y-1474950D01*
X12268502Y-1406829D01*
X12285405Y-1385855D01*
X12475855Y-1195405D01*
X12538167Y-1161379D01*
X12564950Y-1158500D01*
X13400150Y-1158500D01*
X13468271Y-1178502D01*
G37*
G04 #@! TD.AperFunction*
G04 #@! TA.AperFunction,Conductor*
G36*
X17184370Y-10337852D02*
G01*
X17231097Y-10391304D01*
X17242713Y-10444146D01*
X17242713Y-12332722D01*
X17222711Y-12400843D01*
X17169055Y-12447336D01*
X17117951Y-12458716D01*
X14763512Y-12481856D01*
X14695198Y-12462524D01*
X14648180Y-12409328D01*
X14636567Y-12347277D01*
X14637561Y-12332722D01*
X14697838Y-11450099D01*
X14722434Y-11383504D01*
X14779132Y-11340774D01*
X14848125Y-11335109D01*
X14915445Y-11348500D01*
X15084555Y-11348500D01*
X15250415Y-11315508D01*
X15406652Y-11250793D01*
X15524493Y-11172053D01*
X15530296Y-11168402D01*
X15582541Y-11137506D01*
X15582545Y-11137501D01*
X15585291Y-11135878D01*
X15638242Y-11118830D01*
X15687594Y-11114433D01*
X15694379Y-11050232D01*
X15711225Y-10999342D01*
X15780269Y-10882596D01*
X15810413Y-10778837D01*
X15814990Y-10765806D01*
X15825508Y-10740415D01*
X15858500Y-10574555D01*
X15858500Y-10449090D01*
X15878502Y-10380969D01*
X15932158Y-10334476D01*
X15983946Y-10323091D01*
X17116165Y-10318147D01*
X17184370Y-10337852D01*
G37*
G04 #@! TD.AperFunction*
D31*
X0Y-16000000D02*
X27000000Y-16000000D01*
X27000000Y2000000D02*
X0Y2000000D01*
X27000000Y-16000000D02*
X27000000Y2000000D01*
X0Y2000000D02*
X0Y-16000000D01*
M02*
