G04 #@! TF.GenerationSoftware,KiCad,Pcbnew,8.0.3*
G04 #@! TF.CreationDate,2024-08-02T19:38:20+02:00*
G04 #@! TF.ProjectId,powermod,706f7765-726d-46f6-942e-6b696361645f,rev?*
G04 #@! TF.SameCoordinates,PXf42400PY2719c40*
G04 #@! TF.FileFunction,Copper,L2,Inr*
G04 #@! TF.FilePolarity,Positive*
%FSLAX46Y46*%
G04 Gerber Fmt 4.6, Leading zero omitted, Abs format (unit mm)*
G04 Created by KiCad (PCBNEW 8.0.3) date 2024-08-02 19:38:20*
%MOMM*%
%LPD*%
G01*
G04 APERTURE LIST*
G04 #@! TA.AperFunction,HeatsinkPad*
%ADD10C,0.500000*%
G04 #@! TD*
G04 #@! TA.AperFunction,ViaPad*
%ADD11C,0.800000*%
G04 #@! TD*
G04 #@! TA.AperFunction,ViaPad*
%ADD12C,0.600000*%
G04 #@! TD*
G04 #@! TA.AperFunction,Profile*
%ADD13C,0.120000*%
G04 #@! TD*
G04 APERTURE END LIST*
D10*
X12390000Y-4670000D03*
X12390000Y-5970000D03*
X12390000Y-7270000D03*
X13690000Y-4670000D03*
X13690000Y-5970000D03*
X13690000Y-7270000D03*
D11*
X15000000Y-12000000D03*
X16000000Y-12000000D03*
X17000000Y-12000000D03*
X8000000Y-8000000D03*
X26000000Y-12000000D03*
X26000000Y-10000000D03*
X26000000Y-8000000D03*
X26000000Y-6000000D03*
X17000000Y-6000003D03*
X16000000Y-3510000D03*
X16294122Y-7546240D03*
X15000000Y-9944919D03*
X10840000Y-3899669D03*
X9500000Y-8000000D03*
X8029077Y-4116585D03*
X6085000Y-1000000D03*
X7036256Y-3996956D03*
X22000000Y-6500000D03*
X22000000Y-7500000D03*
X22000000Y-8500000D03*
X22000000Y-9500000D03*
X19000000Y-5000000D03*
X18000000Y-5000000D03*
X17000000Y-5000000D03*
X17500000Y-1500000D03*
X19000000Y-1500000D03*
X19000000Y-500000D03*
X19000000Y-2500000D03*
X17500000Y-2500000D03*
X17500000Y-500000D03*
X18500000Y-9500000D03*
X18500000Y-8500000D03*
X18500000Y-7500000D03*
X18500000Y-6500000D03*
X26000000Y1000000D03*
X25000000Y1000000D03*
X24000000Y1000000D03*
X26000000Y-4000000D03*
X25000000Y-4000000D03*
X24000000Y-4000000D03*
X13500000Y-8500000D03*
X13500000Y-9500000D03*
X13500000Y-10500000D03*
X12500000Y-10500000D03*
X12500000Y-9500000D03*
X12500000Y-8500000D03*
X13500000Y-3500000D03*
X13500000Y-2500000D03*
X13500000Y-1500000D03*
X12500000Y-3500000D03*
X12500000Y-2500000D03*
X12500000Y-1500000D03*
D12*
X1000000Y-4000000D03*
X1000000Y-6000000D03*
X1000000Y-10000000D03*
X1000000Y-12000000D03*
X1000000Y-8000000D03*
X1000000Y-14000000D03*
G04 #@! TA.AperFunction,Conductor*
G36*
X26931621Y1969498D02*
G01*
X26978114Y1915842D01*
X26989500Y1863500D01*
X26989500Y-15863500D01*
X26969498Y-15931621D01*
X26915842Y-15978114D01*
X26863500Y-15989500D01*
X136500Y-15989500D01*
X68379Y-15969498D01*
X21886Y-15915842D01*
X10500Y-15863500D01*
X10500Y-8000000D01*
X8586496Y-8000000D01*
X8606457Y-8189927D01*
X8617887Y-8225104D01*
X8665473Y-8371556D01*
X8665476Y-8371561D01*
X8760958Y-8536941D01*
X8760965Y-8536951D01*
X8888744Y-8678864D01*
X8888747Y-8678866D01*
X9043248Y-8791118D01*
X9217712Y-8868794D01*
X9404513Y-8908500D01*
X9595487Y-8908500D01*
X9782288Y-8868794D01*
X9956752Y-8791118D01*
X10111253Y-8678866D01*
X10239040Y-8536944D01*
X10334527Y-8371556D01*
X10393542Y-8189928D01*
X10413504Y-8000000D01*
X10393542Y-7810072D01*
X10334527Y-7628444D01*
X10239040Y-7463056D01*
X10239038Y-7463054D01*
X10239034Y-7463048D01*
X10111255Y-7321135D01*
X9956752Y-7208882D01*
X9782288Y-7131206D01*
X9595487Y-7091500D01*
X9404513Y-7091500D01*
X9217711Y-7131206D01*
X9043247Y-7208882D01*
X8888744Y-7321135D01*
X8760965Y-7463048D01*
X8760958Y-7463058D01*
X8665476Y-7628438D01*
X8665473Y-7628445D01*
X8606457Y-7810072D01*
X8586496Y-8000000D01*
X10500Y-8000000D01*
X10500Y-3996956D01*
X6122752Y-3996956D01*
X6142713Y-4186883D01*
X6170118Y-4271223D01*
X6201729Y-4368512D01*
X6201732Y-4368517D01*
X6297214Y-4533897D01*
X6297221Y-4533907D01*
X6425000Y-4675820D01*
X6445599Y-4690786D01*
X6579504Y-4788074D01*
X6753968Y-4865750D01*
X6940769Y-4905456D01*
X7131743Y-4905456D01*
X7318544Y-4865750D01*
X7373637Y-4841220D01*
X7444004Y-4831786D01*
X7498946Y-4854390D01*
X7572325Y-4907703D01*
X7746789Y-4985379D01*
X7933590Y-5025085D01*
X8124564Y-5025085D01*
X8311365Y-4985379D01*
X8485829Y-4907703D01*
X8640330Y-4795451D01*
X8741909Y-4682636D01*
X8768111Y-4653536D01*
X8768112Y-4653534D01*
X8768117Y-4653529D01*
X8863604Y-4488141D01*
X8922619Y-4306513D01*
X8942581Y-4116585D01*
X8922619Y-3926657D01*
X8913850Y-3899669D01*
X9926496Y-3899669D01*
X9946457Y-4089596D01*
X9955227Y-4116585D01*
X10005473Y-4271225D01*
X10005476Y-4271230D01*
X10100958Y-4436610D01*
X10100965Y-4436620D01*
X10228744Y-4578533D01*
X10228747Y-4578535D01*
X10383248Y-4690787D01*
X10557712Y-4768463D01*
X10744513Y-4808169D01*
X10935487Y-4808169D01*
X11122288Y-4768463D01*
X11296752Y-4690787D01*
X11428859Y-4594805D01*
X11495722Y-4570949D01*
X11564874Y-4587029D01*
X11614354Y-4637942D01*
X11628124Y-4682636D01*
X11645837Y-4839848D01*
X11702290Y-5001182D01*
X11793231Y-5145912D01*
X11878224Y-5230905D01*
X11912250Y-5293217D01*
X11907185Y-5364032D01*
X11878224Y-5409095D01*
X11793232Y-5494086D01*
X11793231Y-5494087D01*
X11702290Y-5638817D01*
X11645837Y-5800151D01*
X11626701Y-5970000D01*
X11645837Y-6139848D01*
X11702290Y-6301182D01*
X11793231Y-6445912D01*
X11878224Y-6530905D01*
X11912250Y-6593217D01*
X11907185Y-6664032D01*
X11878224Y-6709095D01*
X11793232Y-6794086D01*
X11793231Y-6794087D01*
X11702290Y-6938817D01*
X11645837Y-7100151D01*
X11626701Y-7270000D01*
X11645837Y-7439848D01*
X11702290Y-7601182D01*
X11793231Y-7745912D01*
X11914087Y-7866768D01*
X11914089Y-7866769D01*
X11914091Y-7866771D01*
X11925028Y-7873643D01*
X11925028Y-11000000D01*
X14157616Y-11000000D01*
X14156919Y-10290149D01*
X14165473Y-10316475D01*
X14165476Y-10316480D01*
X14260958Y-10481860D01*
X14260965Y-10481870D01*
X14388744Y-10623783D01*
X14388747Y-10623785D01*
X14543248Y-10736037D01*
X14717712Y-10813713D01*
X14884722Y-10849212D01*
X14947195Y-10882940D01*
X14981517Y-10945090D01*
X14976789Y-11015929D01*
X14934513Y-11072967D01*
X14884723Y-11095705D01*
X14717715Y-11131204D01*
X14543247Y-11208882D01*
X14388744Y-11321135D01*
X14260965Y-11463048D01*
X14260958Y-11463058D01*
X14165476Y-11628438D01*
X14165473Y-11628445D01*
X14106457Y-11810072D01*
X14086496Y-12000000D01*
X14106457Y-12189927D01*
X14136526Y-12282470D01*
X14165473Y-12371556D01*
X14165476Y-12371561D01*
X14260958Y-12536941D01*
X14260965Y-12536951D01*
X14388744Y-12678864D01*
X14388747Y-12678866D01*
X14543248Y-12791118D01*
X14717712Y-12868794D01*
X14904513Y-12908500D01*
X15095487Y-12908500D01*
X15282288Y-12868794D01*
X15448755Y-12794678D01*
X15519118Y-12785245D01*
X15551240Y-12794676D01*
X15717712Y-12868794D01*
X15904513Y-12908500D01*
X16095487Y-12908500D01*
X16282288Y-12868794D01*
X16448755Y-12794678D01*
X16519118Y-12785245D01*
X16551240Y-12794676D01*
X16717712Y-12868794D01*
X16904513Y-12908500D01*
X17095487Y-12908500D01*
X17282288Y-12868794D01*
X17456752Y-12791118D01*
X17611253Y-12678866D01*
X17739040Y-12536944D01*
X17834527Y-12371556D01*
X17893542Y-12189928D01*
X17913504Y-12000000D01*
X17893542Y-11810072D01*
X17834527Y-11628444D01*
X17739040Y-11463056D01*
X17739038Y-11463054D01*
X17739034Y-11463048D01*
X17611255Y-11321135D01*
X17456752Y-11208882D01*
X17282288Y-11131206D01*
X17095487Y-11091500D01*
X16904513Y-11091500D01*
X16717711Y-11131206D01*
X16612231Y-11178168D01*
X16551248Y-11205320D01*
X16480882Y-11214754D01*
X16448752Y-11205320D01*
X16282288Y-11131206D01*
X16095487Y-11091500D01*
X15904513Y-11091500D01*
X15717711Y-11131206D01*
X15612231Y-11178168D01*
X15551248Y-11205320D01*
X15480882Y-11214754D01*
X15448752Y-11205320D01*
X15282288Y-11131206D01*
X15282287Y-11131205D01*
X15282283Y-11131204D01*
X15115277Y-11095705D01*
X15052803Y-11061977D01*
X15018482Y-10999827D01*
X15023210Y-10928988D01*
X15065486Y-10871951D01*
X15115275Y-10849212D01*
X15282288Y-10813713D01*
X15456752Y-10736037D01*
X15611253Y-10623785D01*
X15710555Y-10513499D01*
X15739034Y-10481870D01*
X15739035Y-10481868D01*
X15739040Y-10481863D01*
X15834527Y-10316475D01*
X15860992Y-10235023D01*
X15901066Y-10176418D01*
X15966462Y-10148781D01*
X16036419Y-10160888D01*
X16086823Y-10205840D01*
X16123306Y-10262609D01*
X16123315Y-10262621D01*
X16167575Y-10313700D01*
X16169396Y-10315920D01*
X16280258Y-10411980D01*
X16280261Y-10411982D01*
X16413210Y-10472698D01*
X16481331Y-10492700D01*
X16626000Y-10513500D01*
X16626004Y-10513500D01*
X19373994Y-10513500D01*
X19374000Y-10513500D01*
X19483149Y-10501766D01*
X19483158Y-10501764D01*
X19483159Y-10501764D01*
X19499303Y-10498251D01*
X19535491Y-10490380D01*
X19639657Y-10455710D01*
X19762612Y-10376692D01*
X19813721Y-10332405D01*
X19815924Y-10330598D01*
X19882308Y-10253984D01*
X19911982Y-10219739D01*
X19972698Y-10086790D01*
X19992700Y-10018669D01*
X20013500Y-9874000D01*
X20013500Y-6500000D01*
X21086496Y-6500000D01*
X21106457Y-6689927D01*
X21127641Y-6755122D01*
X21165473Y-6871556D01*
X21165474Y-6871559D01*
X21203257Y-6937001D01*
X21219994Y-7005997D01*
X21203257Y-7062999D01*
X21165474Y-7128440D01*
X21165473Y-7128445D01*
X21106457Y-7310072D01*
X21086496Y-7500000D01*
X21106457Y-7689927D01*
X21126891Y-7752815D01*
X21165473Y-7871556D01*
X21165474Y-7871559D01*
X21203257Y-7937001D01*
X21219994Y-8005997D01*
X21203257Y-8062999D01*
X21165474Y-8128440D01*
X21165473Y-8128445D01*
X21106457Y-8310072D01*
X21086496Y-8500000D01*
X21106457Y-8689927D01*
X21136526Y-8782470D01*
X21165473Y-8871556D01*
X21165474Y-8871559D01*
X21203257Y-8937001D01*
X21219994Y-9005997D01*
X21203257Y-9062999D01*
X21165474Y-9128440D01*
X21165473Y-9128445D01*
X21106457Y-9310072D01*
X21086496Y-9500000D01*
X21106457Y-9689927D01*
X21127598Y-9754991D01*
X21165473Y-9871556D01*
X21165476Y-9871561D01*
X21260958Y-10036941D01*
X21260965Y-10036951D01*
X21388744Y-10178864D01*
X21388747Y-10178866D01*
X21543248Y-10291118D01*
X21717712Y-10368794D01*
X21904513Y-10408500D01*
X22095487Y-10408500D01*
X22282288Y-10368794D01*
X22456752Y-10291118D01*
X22611253Y-10178866D01*
X22613457Y-10176418D01*
X22739034Y-10036951D01*
X22739035Y-10036949D01*
X22739040Y-10036944D01*
X22834527Y-9871556D01*
X22893542Y-9689928D01*
X22913504Y-9500000D01*
X22893542Y-9310072D01*
X22834527Y-9128444D01*
X22796742Y-9063000D01*
X22780005Y-8994005D01*
X22796743Y-8936999D01*
X22813197Y-8908500D01*
X22834527Y-8871556D01*
X22893542Y-8689928D01*
X22913504Y-8500000D01*
X22893542Y-8310072D01*
X22834527Y-8128444D01*
X22796742Y-8063000D01*
X22780005Y-7994005D01*
X22796743Y-7936999D01*
X22807831Y-7917794D01*
X22834527Y-7871556D01*
X22893542Y-7689928D01*
X22913504Y-7500000D01*
X22893542Y-7310072D01*
X22834527Y-7128444D01*
X22796742Y-7063000D01*
X22780005Y-6994005D01*
X22796743Y-6936999D01*
X22834527Y-6871556D01*
X22893542Y-6689928D01*
X22913504Y-6500000D01*
X22893542Y-6310072D01*
X22834527Y-6128444D01*
X22739040Y-5963056D01*
X22739038Y-5963054D01*
X22739034Y-5963048D01*
X22611255Y-5821135D01*
X22456752Y-5708882D01*
X22282288Y-5631206D01*
X22095487Y-5591500D01*
X21904513Y-5591500D01*
X21717711Y-5631206D01*
X21543247Y-5708882D01*
X21388744Y-5821135D01*
X21260965Y-5963048D01*
X21260958Y-5963058D01*
X21165476Y-6128438D01*
X21165473Y-6128445D01*
X21106457Y-6310072D01*
X21086496Y-6500000D01*
X20013500Y-6500000D01*
X20013500Y-126000D01*
X20001766Y-16851D01*
X19990380Y35491D01*
X19955710Y139657D01*
X19876692Y262612D01*
X19832420Y313704D01*
X19830600Y315923D01*
X19719741Y411981D01*
X19719738Y411983D01*
X19586789Y472699D01*
X19518677Y492698D01*
X19518670Y492700D01*
X19489735Y496860D01*
X19374000Y513500D01*
X16626000Y513500D01*
X16625990Y513500D01*
X16537267Y503961D01*
X16516851Y501766D01*
X16516848Y501766D01*
X16516844Y501765D01*
X16516840Y501765D01*
X16464519Y490383D01*
X16464498Y490377D01*
X16360345Y455712D01*
X16237385Y376690D01*
X16186299Y332424D01*
X16184080Y330605D01*
X16088019Y219742D01*
X16088017Y219739D01*
X16027301Y86790D01*
X16007302Y18678D01*
X16007300Y18671D01*
X16007300Y18669D01*
X15986502Y-125990D01*
X15986500Y-126003D01*
X15986500Y-2482039D01*
X15966498Y-2550160D01*
X15912842Y-2596653D01*
X15886698Y-2605285D01*
X15717715Y-2641204D01*
X15543247Y-2718882D01*
X15388744Y-2831135D01*
X15260965Y-2973048D01*
X15260958Y-2973058D01*
X15165476Y-3138438D01*
X15165473Y-3138445D01*
X15106457Y-3320072D01*
X15086496Y-3510000D01*
X15106457Y-3699927D01*
X15136526Y-3792470D01*
X15165473Y-3881556D01*
X15165476Y-3881561D01*
X15260958Y-4046941D01*
X15260965Y-4046951D01*
X15388744Y-4188864D01*
X15449999Y-4233368D01*
X15543248Y-4301118D01*
X15717712Y-4378794D01*
X15886697Y-4414713D01*
X15949170Y-4448442D01*
X15983492Y-4510591D01*
X15986500Y-4537960D01*
X15986500Y-5034117D01*
X15991384Y-5104780D01*
X15996154Y-5139111D01*
X15996155Y-5139116D01*
X16010715Y-5208428D01*
X16010716Y-5208433D01*
X16070162Y-5341952D01*
X16107978Y-5402047D01*
X16107981Y-5402051D01*
X16162530Y-5466229D01*
X16191407Y-5531088D01*
X16180634Y-5601262D01*
X16175645Y-5610826D01*
X16165475Y-5628440D01*
X16165470Y-5628452D01*
X16106457Y-5810074D01*
X16086496Y-6000003D01*
X16106457Y-6189930D01*
X16136526Y-6282473D01*
X16165473Y-6371559D01*
X16165473Y-6371560D01*
X16165474Y-6371561D01*
X16219267Y-6464734D01*
X16236004Y-6533729D01*
X16212783Y-6600821D01*
X16156976Y-6644708D01*
X16136344Y-6650979D01*
X16011838Y-6677444D01*
X15837369Y-6755122D01*
X15682866Y-6867375D01*
X15555087Y-7009288D01*
X15555080Y-7009298D01*
X15459598Y-7174678D01*
X15459595Y-7174685D01*
X15400579Y-7356312D01*
X15380618Y-7546240D01*
X15400579Y-7736167D01*
X15415399Y-7781776D01*
X15459595Y-7917796D01*
X15459598Y-7917801D01*
X15555080Y-8083181D01*
X15555087Y-8083191D01*
X15682866Y-8225104D01*
X15682869Y-8225106D01*
X15837370Y-8337358D01*
X15916651Y-8372655D01*
X15970747Y-8418634D01*
X15991397Y-8486561D01*
X15990121Y-8505691D01*
X15986500Y-8530879D01*
X15986500Y-9366350D01*
X15966498Y-9434471D01*
X15912842Y-9480964D01*
X15842568Y-9491068D01*
X15777988Y-9461574D01*
X15751381Y-9429351D01*
X15739040Y-9407975D01*
X15739036Y-9407970D01*
X15739034Y-9407967D01*
X15611255Y-9266054D01*
X15456752Y-9153801D01*
X15282288Y-9076125D01*
X15095487Y-9036419D01*
X14904513Y-9036419D01*
X14717711Y-9076125D01*
X14543247Y-9153801D01*
X14388744Y-9266054D01*
X14260965Y-9407967D01*
X14260958Y-9407977D01*
X14165476Y-9573357D01*
X14165473Y-9573364D01*
X14156243Y-9601769D01*
X14154547Y-7873910D01*
X14165909Y-7866771D01*
X14286771Y-7745909D01*
X14377709Y-7601183D01*
X14434162Y-7439850D01*
X14453299Y-7270000D01*
X14434162Y-7100150D01*
X14377709Y-6938817D01*
X14286771Y-6794091D01*
X14286769Y-6794089D01*
X14286768Y-6794087D01*
X14201776Y-6709095D01*
X14167750Y-6646783D01*
X14172815Y-6575968D01*
X14201776Y-6530905D01*
X14286767Y-6445913D01*
X14286768Y-6445912D01*
X14286771Y-6445909D01*
X14377709Y-6301183D01*
X14434162Y-6139850D01*
X14453299Y-5970000D01*
X14434162Y-5800150D01*
X14377709Y-5638817D01*
X14286771Y-5494091D01*
X14286769Y-5494089D01*
X14286768Y-5494087D01*
X14201776Y-5409095D01*
X14167750Y-5346783D01*
X14172815Y-5275968D01*
X14201776Y-5230905D01*
X14286767Y-5145913D01*
X14286768Y-5145912D01*
X14286771Y-5145909D01*
X14377709Y-5001183D01*
X14434162Y-4839850D01*
X14453299Y-4670000D01*
X14434162Y-4500150D01*
X14377709Y-4338817D01*
X14286771Y-4194091D01*
X14286769Y-4194089D01*
X14286768Y-4194087D01*
X14165912Y-4073231D01*
X14150806Y-4063739D01*
X14147799Y-1000000D01*
X11925028Y-1000000D01*
X11925028Y-4060469D01*
X11873731Y-4074965D01*
X11805818Y-4054270D01*
X11759875Y-4000143D01*
X11749706Y-3935801D01*
X11750667Y-3926657D01*
X11753504Y-3899669D01*
X11733542Y-3709741D01*
X11674527Y-3528113D01*
X11579040Y-3362725D01*
X11579038Y-3362723D01*
X11579034Y-3362717D01*
X11451255Y-3220804D01*
X11296752Y-3108551D01*
X11122288Y-3030875D01*
X10935487Y-2991169D01*
X10744513Y-2991169D01*
X10557711Y-3030875D01*
X10383247Y-3108551D01*
X10228744Y-3220804D01*
X10100965Y-3362717D01*
X10100958Y-3362727D01*
X10005476Y-3528107D01*
X10005473Y-3528114D01*
X9946457Y-3709741D01*
X9926496Y-3899669D01*
X8913850Y-3899669D01*
X8863604Y-3745029D01*
X8768117Y-3579641D01*
X8768115Y-3579639D01*
X8768111Y-3579633D01*
X8640332Y-3437720D01*
X8485829Y-3325467D01*
X8311365Y-3247791D01*
X8124564Y-3208085D01*
X7933590Y-3208085D01*
X7746786Y-3247791D01*
X7691693Y-3272320D01*
X7621326Y-3281754D01*
X7566385Y-3259149D01*
X7493012Y-3205840D01*
X7318544Y-3128162D01*
X7131743Y-3088456D01*
X6940769Y-3088456D01*
X6753967Y-3128162D01*
X6579503Y-3205838D01*
X6425000Y-3318091D01*
X6297221Y-3460004D01*
X6297214Y-3460014D01*
X6201732Y-3625394D01*
X6201729Y-3625401D01*
X6142713Y-3807028D01*
X6122752Y-3996956D01*
X10500Y-3996956D01*
X10500Y-1000000D01*
X5171496Y-1000000D01*
X5191457Y-1189927D01*
X5221526Y-1282470D01*
X5250473Y-1371556D01*
X5250476Y-1371561D01*
X5345958Y-1536941D01*
X5345965Y-1536951D01*
X5473744Y-1678864D01*
X5473747Y-1678866D01*
X5628248Y-1791118D01*
X5802712Y-1868794D01*
X5989513Y-1908500D01*
X6180487Y-1908500D01*
X6367288Y-1868794D01*
X6541752Y-1791118D01*
X6696253Y-1678866D01*
X6824040Y-1536944D01*
X6919527Y-1371556D01*
X6978542Y-1189928D01*
X6998504Y-1000000D01*
X6978542Y-810072D01*
X6919527Y-628444D01*
X6824040Y-463056D01*
X6824038Y-463054D01*
X6824034Y-463048D01*
X6696255Y-321135D01*
X6541752Y-208882D01*
X6367288Y-131206D01*
X6180487Y-91500D01*
X5989513Y-91500D01*
X5802711Y-131206D01*
X5628247Y-208882D01*
X5473744Y-321135D01*
X5345965Y-463048D01*
X5345958Y-463058D01*
X5250476Y-628438D01*
X5250473Y-628445D01*
X5191457Y-810072D01*
X5171496Y-1000000D01*
X10500Y-1000000D01*
X10500Y1863500D01*
X30502Y1931621D01*
X84158Y1978114D01*
X136500Y1989500D01*
X26863500Y1989500D01*
X26931621Y1969498D01*
G37*
G04 #@! TD.AperFunction*
G04 #@! TA.AperFunction,Conductor*
G36*
X13084032Y-7752815D02*
G01*
X13129095Y-7781776D01*
X13214087Y-7866768D01*
X13214089Y-7866769D01*
X13214091Y-7866771D01*
X13358817Y-7957709D01*
X13520150Y-8014162D01*
X13520149Y-8014162D01*
X13537348Y-8016099D01*
X13690000Y-8033299D01*
X13859850Y-8014162D01*
X14021183Y-7957709D01*
X14154547Y-7873910D01*
X14156243Y-9601769D01*
X14106457Y-9754991D01*
X14086496Y-9944919D01*
X14106457Y-10134846D01*
X14134125Y-10219998D01*
X14156919Y-10290148D01*
X14157616Y-11000000D01*
X11925028Y-11000000D01*
X11925028Y-7873643D01*
X12058817Y-7957709D01*
X12220150Y-8014162D01*
X12220149Y-8014162D01*
X12237348Y-8016099D01*
X12390000Y-8033299D01*
X12559850Y-8014162D01*
X12721183Y-7957709D01*
X12865909Y-7866771D01*
X12865913Y-7866767D01*
X12950905Y-7781776D01*
X13013217Y-7747750D01*
X13084032Y-7752815D01*
G37*
G04 #@! TD.AperFunction*
G04 #@! TA.AperFunction,Conductor*
G36*
X14150806Y-4063739D02*
G01*
X14021182Y-3982290D01*
X13921270Y-3947330D01*
X13859850Y-3925838D01*
X13859848Y-3925837D01*
X13859850Y-3925837D01*
X13690000Y-3906701D01*
X13520151Y-3925837D01*
X13358817Y-3982290D01*
X13214087Y-4073231D01*
X13214086Y-4073232D01*
X13129095Y-4158224D01*
X13066783Y-4192250D01*
X12995968Y-4187185D01*
X12950905Y-4158224D01*
X12865912Y-4073231D01*
X12721182Y-3982290D01*
X12621270Y-3947330D01*
X12559850Y-3925838D01*
X12559848Y-3925837D01*
X12559850Y-3925837D01*
X12390000Y-3906701D01*
X12220151Y-3925837D01*
X12058817Y-3982290D01*
X11925028Y-4066356D01*
X11925028Y-1000000D01*
X14147799Y-1000000D01*
X14150806Y-4063739D01*
G37*
G04 #@! TD.AperFunction*
G04 #@! TA.AperFunction,Conductor*
G36*
X19442121Y-20002D02*
G01*
X19488614Y-73658D01*
X19500000Y-126000D01*
X19500000Y-9874000D01*
X19479998Y-9942121D01*
X19426342Y-9988614D01*
X19374000Y-10000000D01*
X16626000Y-10000000D01*
X16557879Y-9979998D01*
X16511386Y-9926342D01*
X16500000Y-9874000D01*
X16500000Y-8530879D01*
X16520002Y-8462758D01*
X16573658Y-8416265D01*
X16574752Y-8415772D01*
X16576410Y-8415034D01*
X16750874Y-8337358D01*
X16905375Y-8225106D01*
X17033162Y-8083184D01*
X17128649Y-7917796D01*
X17187664Y-7736168D01*
X17207626Y-7546240D01*
X17187664Y-7356312D01*
X17128649Y-7174684D01*
X17105700Y-7134936D01*
X17074855Y-7081509D01*
X17058117Y-7012513D01*
X17081338Y-6945421D01*
X17137145Y-6901534D01*
X17157771Y-6895263D01*
X17282288Y-6868797D01*
X17456752Y-6791121D01*
X17611253Y-6678869D01*
X17739040Y-6536947D01*
X17834527Y-6371559D01*
X17893542Y-6189931D01*
X17913504Y-6000003D01*
X17893542Y-5810075D01*
X17834527Y-5628447D01*
X17739040Y-5463059D01*
X17739038Y-5463057D01*
X17739034Y-5463051D01*
X17611255Y-5321138D01*
X17456752Y-5208885D01*
X17282288Y-5131209D01*
X17095487Y-5091503D01*
X16904513Y-5091503D01*
X16717709Y-5131209D01*
X16677248Y-5149224D01*
X16606881Y-5158658D01*
X16542584Y-5128551D01*
X16504771Y-5068462D01*
X16500000Y-5034117D01*
X16500000Y-4333896D01*
X16520002Y-4265775D01*
X16551939Y-4231960D01*
X16611253Y-4188866D01*
X16739040Y-4046944D01*
X16834527Y-3881556D01*
X16893542Y-3699928D01*
X16913504Y-3510000D01*
X16893542Y-3320072D01*
X16834527Y-3138444D01*
X16739040Y-2973056D01*
X16739038Y-2973054D01*
X16739034Y-2973048D01*
X16611257Y-2831137D01*
X16551937Y-2788037D01*
X16508584Y-2731813D01*
X16500000Y-2686102D01*
X16500000Y-126000D01*
X16520002Y-57879D01*
X16573658Y-11386D01*
X16626000Y0D01*
X19374000Y0D01*
X19442121Y-20002D01*
G37*
G04 #@! TD.AperFunction*
D13*
X0Y-16000000D02*
X27000000Y-16000000D01*
X27000000Y2000000D02*
X0Y2000000D01*
X27000000Y-16000000D02*
X27000000Y2000000D01*
X0Y2000000D02*
X0Y-16000000D01*
M02*
